<svg width="26" height="25" viewBox="0 0 26 25" fill="none" xmlns="http://www.w3.org/2000/svg">
<path d="M13 25C14.4343 25 15.6078 23.8462 15.6078 22.4359H10.3922C10.3922 23.8462 11.5657 25 13 25ZM20.8235 17.3077V10.8974C20.8235 6.96154 18.6981 3.66667 14.9559 2.79487V1.92308C14.9559 0.858974 14.0822 0 13 0C11.9178 0 11.0441 0.858974 11.0441 1.92308V2.79487C7.31495 3.66667 5.17653 6.94872 5.17653 10.8974V17.3077L2.56871 19.8718V21.1538H23.4313V19.8718L20.8235 17.3077ZM18.2156 18.5897H7.78435V10.8974C7.78435 7.71795 9.75326 5.12821 13 5.12821C16.2467 5.12821 18.2156 7.71795 18.2156 10.8974V18.5897ZM7.23671 2.02564L5.37212 0.192308C2.24273 2.53846 0.182548 6.15385 0 10.2564H2.60782C2.80341 6.85897 4.57673 3.88462 7.23671 2.02564ZM23.3922 10.2564H26C25.8044 6.15385 23.7442 2.53846 20.6279 0.192308L18.7763 2.02564C21.4102 3.88462 23.1966 6.85897 23.3922 10.2564Z" fill="#F2C05F"/>
</svg>
