<svg width="20" height="20" viewBox="0 0 20 20" fill="none" xmlns="http://www.w3.org/2000/svg">
<path d="M2.9589 0.0794849C1.56556 0.372568 0.469667 1.41595 0.0900196 2.81103L0 3.14319V9.98182V16.8204L0.0900196 17.1721C0.207436 17.6372 0.504892 18.2312 0.806262 18.6102C1.27984 19.2042 2.04697 19.6966 2.79843 19.8959L3.13112 19.9858L9.78474 19.9975C14.7515 20.0053 16.5284 19.9975 16.7906 19.9623C18.0157 19.8021 19.0802 19.0362 19.6282 17.9146C19.7339 17.6997 19.863 17.3636 19.91 17.1721L20 16.8204V10.0014V3.18227L19.91 2.83057C19.6047 1.61524 18.6536 0.587496 17.4755 0.19281C16.8767 -0.00648689 17.0802 -0.00257874 9.96086 0.00132942C3.50294 0.00132942 3.31898 0.00523567 2.9589 0.0794849ZM6.15656 3.12365C6.8728 4.08887 7.45597 4.88997 7.45597 4.90169C7.45597 4.91342 6.08219 4.92123 4.40313 4.92123H1.35029V4.28426C1.35029 3.61603 1.38943 3.27605 1.50294 2.94389C1.71429 2.31474 2.2818 1.74811 2.92759 1.52146C3.26419 1.40422 3.50294 1.37296 4.21135 1.36905L4.85714 1.36515L6.15656 3.12365ZM12.0235 3.04549C12.7006 3.95992 13.2877 4.7532 13.3307 4.81181L13.409 4.92123H11.3033L9.19765 4.91732L7.92564 3.19399C7.22505 2.24831 6.63796 1.44721 6.62231 1.41595C6.59491 1.37296 6.92759 1.36515 8.69276 1.37296L10.7945 1.38469L12.0235 3.04549ZM16.7045 1.42376C17.5773 1.57617 18.3053 2.24049 18.5519 3.10802C18.5988 3.27605 18.6262 3.55741 18.638 4.13186L18.6575 4.92123L16.8885 4.91342L15.1155 4.90169L13.8278 3.16273C13.1233 2.20923 12.544 1.41204 12.544 1.39641C12.544 1.37687 13.4129 1.36515 14.4736 1.36515C15.9374 1.36905 16.4736 1.38078 16.7045 1.42376ZM18.6301 11.4472C18.6301 17.0158 18.638 16.7579 18.4149 17.2503C18.184 17.7544 17.773 18.1647 17.2524 18.4109C16.7515 18.6454 16.9785 18.6415 9.83953 18.6258C3.98043 18.618 3.30724 18.6102 3.12329 18.5516C2.27397 18.2898 1.6908 17.7114 1.44423 16.8947C1.37769 16.6798 1.36986 16.3398 1.36204 11.5254C1.35421 8.70006 1.35812 6.36711 1.36595 6.33976C1.3816 6.29677 3.00196 6.28896 10.0078 6.29677L18.6301 6.3085V11.4472Z" fill="black"/>
<path d="M7.53518 8.71598C7.4569 8.75897 7.35123 8.86057 7.30035 8.93482L7.2025 9.07941L7.19076 12.4167C7.18293 15.7461 7.18293 15.7578 7.26512 15.9298C7.38645 16.1799 7.62128 16.3088 7.91874 16.2854C8.13009 16.2697 8.29839 16.1759 10.9403 14.6519C12.4784 13.7648 13.77 13.0106 13.8131 12.9755C13.9305 12.8739 14.0322 12.6355 14.0322 12.4636C14.0322 12.2682 13.9148 12.0259 13.77 11.9243C13.6409 11.8344 8.45494 8.84103 8.21228 8.71598C7.99702 8.61047 7.71913 8.60656 7.53518 8.71598ZM10.3649 11.5413C11.2182 12.0376 11.9187 12.4518 11.9187 12.4636C11.9187 12.4831 8.86982 14.2572 8.5841 14.4057C8.56453 14.4135 8.55279 13.5421 8.55279 12.4636V10.5097L8.68195 10.5761C8.75631 10.6152 9.5117 11.0489 10.3649 11.5413Z" fill="black"/>
</svg>
