<svg width="20" height="18" viewBox="0 0 20 18" fill="none" xmlns="http://www.w3.org/2000/svg">
<path d="M1.53365 0.0709705C0.82565 0.241724 0.259252 0.808121 0.0718409 1.53278C-0.023947 1.89094 -0.023947 15.5261 0.0718409 15.8843C0.263417 16.6173 0.829815 17.1795 1.55447 17.3503C1.78769 17.4044 2.84969 17.4128 10.0046 17.4128C19.0087 17.4128 18.4548 17.4252 18.9629 17.1587C19.2544 17.0004 19.6167 16.634 19.7667 16.3383C20.0124 15.851 19.9999 16.2716 19.9999 8.70854C19.9999 2.61143 19.9916 1.74101 19.9374 1.52445C19.7458 0.795628 19.1795 0.237558 18.4506 0.0668068C18.0633 -0.0248165 1.90847 -0.0206528 1.53365 0.0709705ZM18.5256 0.970545C18.6464 1.03301 18.8088 1.16212 18.8921 1.26207C19.1253 1.53278 19.167 1.73685 19.167 2.59477V3.33609H10.0046H0.842309V2.59477C0.842309 1.73685 0.883956 1.53278 1.11718 1.26207C1.27127 1.08299 1.51282 0.933062 1.73772 0.874756C1.80852 0.858097 5.56507 0.849768 10.0879 0.849768L18.3132 0.858097L18.5256 0.970545ZM19.167 9.86633C19.167 16.18 19.1836 15.8177 18.8921 16.155C18.8088 16.255 18.6464 16.3841 18.5256 16.4465L18.3132 16.559H10.0046H1.69607L1.48367 16.4465C1.3629 16.3841 1.20047 16.255 1.11718 16.155C0.82565 15.8177 0.842309 16.18 0.842309 9.86633V4.16903H10.0046H19.167V9.86633Z" fill="black"/>
<path d="M1.94037 1.71087C1.81543 1.76085 1.67383 1.95242 1.67383 2.0732C1.67383 2.22313 1.77795 2.39804 1.90289 2.45219C1.98202 2.48967 3.00653 2.50216 6.05092 2.50216C10.4405 2.50216 10.2614 2.51049 10.3697 2.2731C10.4488 2.10235 10.428 1.97325 10.2989 1.82748L10.1781 1.69005L6.1009 1.68172C3.86029 1.67755 1.98618 1.69005 1.94037 1.71087Z" fill="black"/>
<path d="M16.1035 1.70674C15.9785 1.76088 15.8369 1.95246 15.8369 2.07323C15.8369 2.29813 16.0368 2.5022 16.2534 2.5022C16.4741 2.5022 16.6699 2.29813 16.6699 2.06907C16.6699 1.83585 16.3242 1.61512 16.1035 1.70674Z" fill="black"/>
<path d="M17.3535 1.70674C17.2285 1.76088 17.0869 1.95246 17.0869 2.07323C17.0869 2.29813 17.2868 2.5022 17.5034 2.5022C17.7241 2.5022 17.9199 2.29813 17.9199 2.06907C17.9199 1.83585 17.5742 1.61512 17.3535 1.70674Z" fill="black"/>
<path d="M1.94446 5.04058C1.7279 5.13221 1.62378 5.40291 1.72373 5.59865C1.9278 5.99846 2.51086 5.84853 2.51086 5.40291C2.51086 5.16969 2.16519 4.94896 1.94446 5.04058Z" fill="black"/>
<path d="M13.2515 5.05464C12.7726 5.23372 12.506 5.59605 12.506 6.06666V6.2499L8.04565 6.25823L3.58527 6.27073L3.46449 6.40816C3.28957 6.6039 3.31456 6.83713 3.52696 7.00788C3.61025 7.07451 3.91011 7.08284 8.06231 7.08284H12.506V7.25776C12.506 7.67839 12.7184 8.02406 13.0849 8.21564C13.7763 8.57797 14.5884 8.06154 14.5884 7.25776V7.08284H15.463C16.4042 7.08284 16.5125 7.06202 16.6124 6.87044C16.6999 6.69553 16.6832 6.55809 16.55 6.40816L16.4292 6.27073L15.5088 6.25823L14.5884 6.24574V6.06666C14.5884 5.84176 14.5009 5.58355 14.3593 5.40031C14.1303 5.10045 13.5847 4.9297 13.2515 5.05464ZM13.6805 5.90423C13.7471 5.96254 13.7554 6.04583 13.7554 6.67054C13.7554 7.41185 13.7346 7.49931 13.5472 7.49931C13.3598 7.49931 13.339 7.41185 13.339 6.67887C13.339 6.09165 13.3515 5.97503 13.4098 5.9084C13.4931 5.81678 13.5805 5.81261 13.6805 5.90423Z" fill="black"/>
<path d="M17.7697 5.04058C17.5531 5.13221 17.449 5.40291 17.5489 5.59865C17.753 5.99846 18.3361 5.84853 18.3361 5.40291C18.3361 5.16969 17.9904 4.94896 17.7697 5.04058Z" fill="black"/>
<path d="M1.94446 6.28765C1.7279 6.37928 1.62378 6.64998 1.72373 6.84572C1.9278 7.24553 2.51086 7.09561 2.51086 6.64998C2.51086 6.41676 2.16519 6.19603 1.94446 6.28765Z" fill="black"/>
<path d="M17.7697 6.28765C17.5531 6.37928 17.449 6.64998 17.5489 6.84572C17.753 7.24553 18.3361 7.09561 18.3361 6.64998C18.3361 6.41676 17.9904 6.19603 17.7697 6.28765Z" fill="black"/>
<path d="M1.94446 7.53765C1.7279 7.62928 1.62378 7.89998 1.72373 8.09572C1.9278 8.49553 2.51086 8.34561 2.51086 7.89998C2.51086 7.66676 2.16519 7.44603 1.94446 7.53765Z" fill="black"/>
<path d="M17.7697 7.53765C17.5531 7.62928 17.449 7.89998 17.5489 8.09572C17.753 8.49553 18.3361 8.34561 18.3361 7.89998C18.3361 7.66676 17.9904 7.44603 17.7697 7.53765Z" fill="black"/>
<path d="M1.94446 8.78765C1.7279 8.87928 1.62378 9.14998 1.72373 9.34572C1.9278 9.74553 2.51086 9.59561 2.51086 9.14998C2.51086 8.91676 2.16519 8.69603 1.94446 8.78765Z" fill="black"/>
<path d="M6.17154 8.80464C5.6926 8.98372 5.42606 9.34605 5.42606 9.81666V9.99574L4.50566 10.0082L3.58527 10.0207L3.46449 10.1582C3.28957 10.3539 3.31456 10.5871 3.52696 10.7579C3.60193 10.8203 3.72687 10.8328 4.52232 10.8328H5.42606V11.0078C5.42606 11.4284 5.63846 11.7741 6.00495 11.9656C6.69629 12.328 7.50841 11.8115 7.50841 11.0078V10.8328H11.923C16.7249 10.8328 16.5125 10.8412 16.6208 10.6038C16.6999 10.433 16.6791 10.3039 16.55 10.1582L16.4292 10.0207L11.9688 10.0082L7.50841 9.9999V9.81666C7.50841 9.59176 7.42095 9.33355 7.27935 9.15031C7.05029 8.85045 6.50472 8.6797 6.17154 8.80464ZM6.6005 9.65423C6.66714 9.71254 6.67547 9.79583 6.67547 10.4205C6.67547 11.1619 6.65464 11.2493 6.46723 11.2493C6.27982 11.2493 6.259 11.1619 6.259 10.4289C6.259 9.84165 6.27149 9.72503 6.3298 9.6584C6.41309 9.56678 6.50055 9.56261 6.6005 9.65423Z" fill="black"/>
<path d="M17.7697 8.78765C17.5531 8.87928 17.449 9.14998 17.5489 9.34572C17.753 9.74553 18.3361 9.59561 18.3361 9.14998C18.3361 8.91676 17.9904 8.69603 17.7697 8.78765Z" fill="black"/>
<path d="M1.94446 10.0377C1.7279 10.1293 1.62378 10.4 1.72373 10.5957C1.9278 10.9955 2.51086 10.8456 2.51086 10.4C2.51086 10.1668 2.16519 9.94603 1.94446 10.0377Z" fill="black"/>
<path d="M17.7697 10.0377C17.5531 10.1293 17.449 10.4 17.5489 10.5957C17.753 10.9955 18.3361 10.8456 18.3361 10.4C18.3361 10.1668 17.9904 9.94603 17.7697 10.0377Z" fill="black"/>
<path d="M1.94446 11.2877C1.7279 11.3793 1.62378 11.65 1.72373 11.8457C1.9278 12.2455 2.51086 12.0956 2.51086 11.65C2.51086 11.4168 2.16519 11.196 1.94446 11.2877Z" fill="black"/>
<path d="M17.7697 11.2877C17.5531 11.3793 17.449 11.65 17.5489 11.8457C17.753 12.2455 18.3361 12.0956 18.3361 11.65C18.3361 11.4168 17.9904 11.196 17.7697 11.2877Z" fill="black"/>
<path d="M1.94446 12.535C1.7279 12.6266 1.62378 12.8973 1.72373 13.093C1.9278 13.4928 2.51086 13.3429 2.51086 12.8973C2.51086 12.6641 2.16519 12.4433 1.94446 12.535Z" fill="black"/>
<path d="M13.2515 12.552C12.7726 12.731 12.506 13.0934 12.506 13.564V13.7472L8.04565 13.7555L3.58527 13.768L3.46449 13.9055C3.28957 14.1012 3.31456 14.3344 3.52696 14.5052C3.61025 14.5718 3.91011 14.5802 8.06231 14.5802H12.506V14.7551C12.506 15.1757 12.7184 15.5214 13.0849 15.713C13.7763 16.0753 14.5884 15.5589 14.5884 14.7551V14.5802H15.463C16.4042 14.5802 16.5125 14.5593 16.6124 14.3678C16.6999 14.1928 16.6832 14.0554 16.55 13.9055L16.4292 13.768L15.5088 13.7555L14.5884 13.7431V13.564C14.5884 13.3391 14.5009 13.0809 14.3593 12.8976C14.1303 12.5978 13.5847 12.427 13.2515 12.552ZM13.6805 13.4015C13.7471 13.4599 13.7554 13.5431 13.7554 14.1679C13.7554 14.9092 13.7346 14.9966 13.5472 14.9966C13.3598 14.9966 13.339 14.9092 13.339 14.1762C13.339 13.589 13.3515 13.4723 13.4098 13.4057C13.4931 13.3141 13.5805 13.3099 13.6805 13.4015Z" fill="black"/>
<path d="M17.7697 12.535C17.5531 12.6266 17.449 12.8973 17.5489 13.093C17.753 13.4928 18.3361 13.3429 18.3361 12.8973C18.3361 12.6641 17.9904 12.4433 17.7697 12.535Z" fill="black"/>
<path d="M1.94446 13.785C1.7279 13.8766 1.62378 14.1473 1.72373 14.343C1.9278 14.7428 2.51086 14.5929 2.51086 14.1473C2.51086 13.9141 2.16519 13.6933 1.94446 13.785Z" fill="black"/>
<path d="M17.7697 13.785C17.5531 13.8766 17.449 14.1473 17.5489 14.343C17.753 14.7428 18.3361 14.5929 18.3361 14.1473C18.3361 13.9141 17.9904 13.6933 17.7697 13.785Z" fill="black"/>
<path d="M1.94446 15.035C1.7279 15.1266 1.62378 15.3973 1.72373 15.593C1.9278 15.9928 2.51086 15.8429 2.51086 15.3973C2.51086 15.1641 2.16519 14.9433 1.94446 15.035Z" fill="black"/>
<path d="M17.7697 15.035C17.5531 15.1266 17.449 15.3973 17.5489 15.593C17.753 15.9928 18.3361 15.8429 18.3361 15.3973C18.3361 15.1641 17.9904 14.9433 17.7697 15.035Z" fill="black"/>
</svg>
