<svg width="25" height="20" viewBox="0 0 25 20" fill="none" xmlns="http://www.w3.org/2000/svg">
<path d="M2.2617 0.0320206C1.69837 0.146772 1.0881 0.496243 0.717763 0.908306C0.389156 1.27343 0.107492 1.90456 0.0449005 2.40529C0.00838861 2.68174 -0.00725935 5.11239 0.00317263 9.70768C0.0188206 16.2277 0.0240366 16.6084 0.117924 16.8797C0.430884 17.829 1.08288 18.4758 2.02698 18.7887C2.29821 18.8774 2.64768 18.8878 7.52984 18.9035C11.1706 18.9139 12.8032 18.9035 12.9388 18.8617C13.4135 18.7261 13.4969 18.1002 13.0692 17.8603C12.9806 17.8081 11.7757 17.7872 7.63416 17.7664L2.31386 17.7403L2.05306 17.5995C1.56275 17.3387 1.21328 16.8536 1.15591 16.3528L1.12461 16.0973H7.08127H13.0431L13.1944 15.946C13.4396 15.6956 13.3874 15.2679 13.0849 15.0906C12.9493 15.0071 12.4485 15.0019 7.03954 15.0019H1.14026V8.71664C1.14026 2.49918 1.14026 2.43138 1.24979 2.14971C1.38541 1.78459 1.72966 1.42469 2.12086 1.24213L2.41818 1.1013H11.6505C20.4707 1.1013 20.8932 1.10651 21.1592 1.19519C21.5243 1.32559 21.9521 1.722 22.1137 2.07669C22.2337 2.3427 22.2389 2.42094 22.265 3.76145C22.2859 4.99242 22.3015 5.19063 22.385 5.31582C22.5623 5.58705 23.0109 5.58705 23.2456 5.32103L23.3656 5.18542L23.3499 3.66235C23.3343 2.2436 23.3239 2.12363 23.2195 1.84197C22.917 1.03871 22.2859 0.418003 21.4774 0.125908L21.1436 0.00594139L11.807 0.000724792C6.67442 -0.00449181 2.37645 0.0111561 2.2617 0.0320206Z" fill="black"/>
<path d="M8.76576 4.05302C8.51539 4.12605 8.21286 4.45465 8.13462 4.7311C8.08768 4.90323 8.07725 5.82124 8.08768 8.46575L8.10333 11.9657L8.25981 12.19C8.4841 12.5081 8.80749 12.6698 9.18304 12.6438C9.51165 12.6177 9.15174 12.8159 13.1107 10.5261C14.3729 9.80104 15.4631 9.15426 15.5257 9.09167C15.7291 8.90389 15.8491 8.6118 15.8491 8.32492C15.8491 8.03804 15.7291 7.74594 15.5257 7.55817C15.4266 7.46428 13.4497 6.31155 10.148 4.41293C9.43341 4.00608 9.15696 3.93306 8.76576 4.05302ZM12.2135 6.89052C13.554 7.66249 14.6494 8.30927 14.6494 8.32492C14.6494 8.34578 11.1443 10.3905 9.47513 11.3398L9.17261 11.5119V8.32492V5.13795L9.47513 5.31008C9.64205 5.40396 10.873 6.11334 12.2135 6.89052Z" fill="black"/>
<path d="M18.5509 5.71158L18.3787 5.86285L18.3631 9.61836L18.3527 13.3687L17.9458 13.3426C16.4123 13.2591 14.9258 14.3806 14.5763 15.888C14.472 16.3209 14.472 17.0198 14.5763 17.4528C14.7901 18.3656 15.4734 19.2262 16.3184 19.6383C16.8922 19.9199 17.4086 20.0295 17.9875 19.993C19.2185 19.9147 20.2461 19.2419 20.7937 18.1517C21.1432 17.4632 21.1328 17.5467 21.1536 13.9946C21.1641 12.2264 21.1797 10.7763 21.1849 10.7763C21.1902 10.7763 21.7952 10.9745 22.5255 11.2197C23.2557 11.4648 23.8973 11.663 23.9494 11.663C24.0016 11.663 24.1163 11.6265 24.1998 11.5796C24.4919 11.4335 24.5075 11.3136 24.5075 9.52447C24.5075 7.80319 24.4867 7.61542 24.2572 7.49545C23.939 7.32332 19.0516 5.56032 18.9003 5.56032C18.7752 5.56032 18.6656 5.60726 18.5509 5.71158ZM21.4301 7.62064C22.4733 8.00662 23.3339 8.32479 23.3444 8.32479C23.3548 8.32479 23.36 8.76815 23.36 9.31583C23.36 9.85829 23.3444 10.3069 23.3235 10.3069C23.3026 10.3069 22.6715 10.1034 21.9256 9.85308L20.5695 9.4045L20.3765 9.49318C20.0061 9.67052 20.0218 9.51926 20.0218 13.473C20.0218 17.3224 20.0218 17.2911 19.7297 17.797C19.568 18.0735 19.109 18.5064 18.8273 18.6525C18.7021 18.715 18.4361 18.7985 18.2327 18.8402C17.5129 18.9915 16.7931 18.7672 16.2506 18.23C14.9727 16.952 15.6664 14.8083 17.4659 14.4797C17.8467 14.4119 18.1232 14.4379 18.6135 14.5944C18.9316 14.6935 18.9629 14.6935 19.1507 14.6205C19.5106 14.4692 19.5002 14.6048 19.5002 10.5416C19.5002 8.54908 19.5054 6.91648 19.5158 6.91648C19.5263 6.91648 20.3869 7.23465 21.4301 7.62064Z" fill="black"/>
</svg>
