<svg width="22" height="20" viewBox="0 0 22 20" fill="none" xmlns="http://www.w3.org/2000/svg">
<path d="M7.73245 2.79155C7.38692 2.8854 7.16936 3.01338 6.90915 3.27786C6.20956 3.97745 6.19249 5.06097 6.87076 5.77763C7.24188 6.17009 7.65993 6.35352 8.1889 6.35352C8.71359 6.35352 9.13591 6.17009 9.50277 5.78616C9.76725 5.50462 9.88243 5.27853 9.96348 4.89034C10.2322 3.60206 9.00793 2.45029 7.73245 2.79155ZM8.40645 4.16088C8.80317 4.36564 8.64107 4.98845 8.19316 4.98845C7.74952 4.98845 7.57035 4.40404 7.95001 4.17368C8.11211 4.07557 8.23582 4.0713 8.40645 4.16088Z" fill="black"/>
<path d="M5.14744 0.0742817C4.60995 0.215054 4.08952 0.63737 3.84637 1.12794C3.61175 1.60998 3.61601 1.49053 3.62028 7.24939C3.62028 10.1715 3.63734 12.7054 3.65441 12.8845C3.68427 13.1746 3.70986 13.2386 3.90609 13.5287C4.26442 14.0576 4.69527 14.3818 5.19863 14.497C5.32234 14.5269 7.94156 14.5439 12.7491 14.5439C20.0096 14.5439 20.1205 14.5439 20.3935 14.4586C20.9097 14.2965 21.3533 13.9254 21.5964 13.4434C21.8396 12.9571 21.8311 13.213 21.8311 7.27072C21.8311 1.26018 21.8439 1.57585 21.5709 1.05969C21.4088 0.761079 21.0334 0.389953 20.7305 0.236383C20.2314 -0.0153008 20.6793 -0.0025034 12.7235 0.00176239C5.97075 0.00176239 5.40766 0.00602913 5.14744 0.0742817ZM20.0522 1.42228C20.2314 1.4948 20.4148 1.71236 20.4447 1.88726C20.4575 1.96404 20.4617 3.64904 20.4575 5.63265L20.4447 9.2458L18.8023 7.32618C17.898 6.27252 17.0661 5.32124 16.9552 5.21886C16.6396 4.91599 16.4263 4.8392 15.9442 4.8392C15.5987 4.8392 15.5049 4.85627 15.3044 4.95012C15.1721 5.00984 14.993 5.12501 14.8991 5.20606C14.8095 5.28711 13.9692 6.26825 13.0349 7.3859C12.1007 8.50781 11.3201 9.42496 11.303 9.42496C11.286 9.42496 10.9874 9.13915 10.6376 8.78935C9.84411 7.99164 9.69481 7.91059 9.07626 7.91059C8.39373 7.91486 8.42359 7.89353 6.56796 9.74063L4.98108 11.3233L4.98961 6.58819C5.00241 1.89579 5.00241 1.85313 5.09199 1.70382C5.13891 1.62278 5.25409 1.51186 5.34794 1.46067L5.51431 1.36256H12.715C18.7 1.36256 19.937 1.37109 20.0522 1.42228ZM16.0893 6.27678C16.149 6.33224 17.1557 7.49681 18.3331 8.8704L20.4703 11.3659L20.4575 12.057C20.4447 12.8206 20.4233 12.8803 20.1247 13.0808L19.984 13.1789H12.7363C6.32481 13.1789 5.47591 13.1704 5.365 13.1149C5.29248 13.0765 5.23703 13.0338 5.23703 13.0168C5.23703 12.9656 8.91843 9.30978 9.02508 9.25433C9.12319 9.2074 9.17864 9.25433 10.0489 10.1203C10.5608 10.6279 11.03 11.0588 11.094 11.0844C11.2646 11.1484 11.5334 11.1441 11.6784 11.0673C11.7424 11.0332 12.6979 9.92406 13.8071 8.59313C15.1977 6.92519 15.8419 6.18294 15.8973 6.18294C15.9442 6.18294 16.0296 6.2256 16.0893 6.27678Z" fill="black"/>
<path d="M1.91197 7.34672C1.83092 7.39791 1.73281 7.50029 1.69442 7.56854C1.58351 7.75624 0.0307462 13.7412 0.0051513 14.0739C-0.0545702 14.8546 0.410404 15.6693 1.11853 16.0149C1.34462 16.1258 2.49639 16.45 5.6659 17.2946C7.9993 17.9217 11.1304 18.7578 12.6192 19.1545C14.108 19.5555 15.4346 19.9096 15.5626 19.9437C15.8313 20.0119 16.3134 20.0205 16.5821 19.9565C17.1026 19.837 17.6955 19.3635 17.9301 18.8815C17.9984 18.7407 18.1648 18.1563 18.3269 17.5079C18.5871 16.4415 18.5999 16.3689 18.5487 16.1983C18.4079 15.7248 17.8448 15.5456 17.478 15.8528C17.2988 16.0063 17.2775 16.0703 16.9959 17.2136C16.8594 17.7553 16.7144 18.2587 16.6674 18.3312C16.5565 18.5189 16.3475 18.6383 16.1342 18.6383C15.9849 18.6383 13.8392 18.0753 7.28691 16.3135C6.64277 16.1428 5.13693 15.7376 3.93824 15.4177C2.74381 15.0977 1.71575 14.8034 1.65602 14.7607C1.51525 14.6583 1.35742 14.3811 1.35742 14.2275C1.35742 14.1592 1.71148 12.7387 2.14659 11.0793C2.58171 9.41564 2.93577 7.98659 2.93577 7.90128C2.93577 7.68799 2.82059 7.47469 2.64143 7.35099C2.43667 7.21448 2.11247 7.21021 1.91197 7.34672Z" fill="black"/>
</svg>
