<svg width="20" height="20" viewBox="0 0 20 20" fill="none" xmlns="http://www.w3.org/2000/svg">
<path d="M0.788403 0.0621071C0.397565 0.198898 0.120071 0.511564 0.0340863 0.906305C0.00281934 1.047 -0.00499741 3.46235 0.00281934 9.33264L0.0145445 17.5597L0.0966203 17.7394C0.303764 18.185 0.659426 18.4039 1.2066 18.4312L1.54663 18.4468L1.57008 18.7751C1.60134 19.2051 1.70687 19.4435 1.97655 19.6897C2.34784 20.0297 1.78895 20.0063 8.7693 19.9945L14.9445 19.9828L15.1439 19.8773C15.2533 19.8187 15.4174 19.6897 15.5034 19.592C15.7731 19.2832 15.7848 19.2168 15.7848 17.7824V16.5122L16.16 16.1566L16.5313 15.8009L18.251 11.1891C19.4704 7.91392 19.9785 6.51474 19.9942 6.35841C20.0489 5.81124 19.7167 5.34225 19.107 5.11556C18.3136 4.81462 18.083 4.74818 17.8524 4.77163C17.4498 4.80681 17.0433 5.09602 16.887 5.4634C16.844 5.56111 16.5821 6.24507 16.3086 6.98765L15.8044 8.33602L15.7848 5.3657C15.7614 2.05926 15.7809 2.27031 15.4878 1.94592C15.2533 1.68797 15.011 1.58244 14.5889 1.5629L14.2293 1.54727L14.2137 1.20724C14.1863 0.663988 13.987 0.327873 13.5649 0.120731L13.3421 0.0112991L7.16687 0.00348282C1.31994 -0.0043335 0.979913 -0.0043335 0.788403 0.0621071ZM13.2405 0.828138C13.3812 0.902395 13.4398 1.0431 13.4398 1.32059V1.55509H8.01499C3.27022 1.55509 2.5628 1.5629 2.38693 1.61371C2.12116 1.69188 1.79676 1.98891 1.6717 2.2664L1.57789 2.47354L1.56617 5.7448C1.55444 9.30528 1.55054 9.20757 1.7694 9.35218C1.91011 9.44598 2.13679 9.4069 2.25404 9.27402L2.34003 9.1724V5.94804C2.34003 2.46572 2.33612 2.53607 2.54717 2.39928C2.62925 2.34066 3.22332 2.33675 8.72631 2.34457L14.8156 2.35629L14.9094 2.46572L15.0032 2.57516V6.53428V10.4934L14.2254 12.5844L13.4437 14.6792L13.6001 16.1175C13.686 16.9109 13.7759 17.6105 13.7994 17.6691C13.8463 17.7863 14.0104 17.8919 14.1433 17.8919C14.2723 17.8919 14.3739 17.8254 14.6905 17.5284L14.9836 17.2548L14.9953 18.1068C15.0071 19.0331 14.9914 19.1034 14.7843 19.1816C14.7218 19.2051 12.3924 19.2207 8.65987 19.2207C3.14906 19.2207 2.62143 19.2168 2.53935 19.1582C2.33612 19.0135 2.34003 19.0761 2.34003 15.6094V12.385L2.25404 12.2834C2.13679 12.1505 1.91011 12.1115 1.7694 12.2053C1.55835 12.342 1.55835 12.3186 1.55835 15.0974V17.6574H1.32385C1.05026 17.6574 0.89002 17.5909 0.823578 17.4424C0.749319 17.2861 0.757136 1.10563 0.831395 0.972746C0.944738 0.765604 0.620342 0.77733 7.10043 0.773422C12.2438 0.773422 13.1467 0.781239 13.2405 0.828138ZM18.5285 5.73699C19.0757 5.94022 19.2242 6.04574 19.2242 6.22944C19.2242 6.31151 16.0037 15.0232 15.9568 15.074C15.949 15.0818 15.5855 14.9567 15.1517 14.7926C14.6123 14.5932 14.3622 14.4799 14.37 14.4447C14.413 14.2806 17.5983 5.77998 17.6452 5.70572C17.7078 5.61192 17.825 5.54939 17.9423 5.54548C17.9813 5.54157 18.2471 5.62755 18.5285 5.73699ZM15.14 15.625C15.2689 15.6719 15.3862 15.7267 15.4057 15.7384C15.4214 15.754 15.222 15.9651 14.9602 16.2113C14.6514 16.5005 14.4794 16.6373 14.4599 16.606C14.4443 16.5826 14.4091 16.3481 14.3817 16.0823C14.3544 15.8205 14.3231 15.5391 14.3114 15.457L14.2879 15.3124L14.5967 15.4257C14.7687 15.4882 15.011 15.5781 15.14 15.625Z" fill="black"/>
<path d="M8.29253 4.01766C7.12392 4.1779 6.1312 4.95957 5.713 6.04608C5.56057 6.44082 5.51367 6.72222 5.51367 7.22248C5.51367 9.03985 7.03012 10.4703 8.85533 10.3765C10.0357 10.3179 11.0597 9.64173 11.5717 8.57085C11.8179 8.06277 11.8648 7.83609 11.8648 7.16386C11.8609 6.60497 11.857 6.56198 11.7358 6.20632C11.5677 5.72169 11.3528 5.36603 11.0088 5.00647C10.5672 4.53747 10.0826 4.24825 9.48458 4.09583C9.13674 4.00984 8.61692 3.97467 8.29253 4.01766ZM9.26571 4.84232C9.62528 4.92048 10.0747 5.17843 10.3757 5.47546C10.8603 5.95619 11.1026 6.5268 11.1026 7.1834C11.1026 7.76574 10.919 8.28555 10.5555 8.71937C9.56666 9.91922 7.71018 9.88796 6.78389 8.66074C6.43605 8.20347 6.29535 7.77356 6.29535 7.19122C6.29535 6.50335 6.5064 5.99136 6.99885 5.49891C7.60465 4.88922 8.40587 4.65472 9.26571 4.84232Z" fill="black"/>
<path d="M8.07406 5.98759C7.91772 6.05794 7.7653 6.20645 7.67931 6.36669C7.62069 6.47613 7.60505 6.60901 7.59333 7.10537C7.5816 7.4962 7.59333 7.76196 7.62459 7.86749C7.77702 8.37948 8.30465 8.59444 8.79711 8.3443C9.3091 8.08636 9.75466 7.78541 9.86018 7.63299C10.0282 7.39458 10.0478 7.12491 9.9149 6.85914C9.80156 6.62464 9.75075 6.58165 9.09023 6.20255C8.71503 5.98368 8.63686 5.95241 8.42581 5.9446C8.28511 5.93678 8.14441 5.95241 8.07406 5.98759ZM8.53915 6.78879C8.6056 6.82788 8.78929 6.9334 8.94563 7.0272L9.23484 7.19135L9.02379 7.31642C8.91045 7.38677 8.71503 7.50011 8.59387 7.57046L8.36719 7.69552V7.20698C8.36719 6.93731 8.37891 6.71454 8.39064 6.71454C8.40627 6.71454 8.47271 6.7458 8.53915 6.78879Z" fill="black"/>
<path d="M1.75901 10.4504C1.7082 10.4856 1.64567 10.5755 1.6144 10.6458C1.50106 10.9116 1.73165 11.2008 2.02087 11.1578C2.45861 11.0875 2.4508 10.4582 2.00915 10.4035C1.89971 10.3879 1.82546 10.4035 1.75901 10.4504Z" fill="black"/>
<path d="M4.07139 11.756C3.85252 11.8419 3.78998 12.1781 3.95414 12.3696L4.04794 12.479L8.62464 12.4907L13.1974 12.4985L13.3264 12.3852C13.4319 12.2914 13.4554 12.2445 13.4554 12.1077C13.4554 11.9709 13.4319 11.924 13.3264 11.8302L13.2014 11.7169L8.67545 11.7208C6.18973 11.7208 4.11438 11.7364 4.07139 11.756Z" fill="black"/>
<path d="M4.07139 13.5543C3.85252 13.6403 3.78998 13.9764 3.95414 14.1679L4.04794 14.2773L8.10092 14.2891L12.1539 14.2969L12.2868 14.164C12.4666 13.9842 12.4666 13.8279 12.2868 13.6481L12.1539 13.5152L8.15564 13.5191C5.95522 13.5191 4.11438 13.5348 4.07139 13.5543Z" fill="black"/>
<path d="M4.07139 15.3512C3.85252 15.4372 3.78998 15.7733 3.95414 15.9648L4.04794 16.0742L8.10092 16.0859L12.1539 16.0938L12.2868 15.9609C12.4666 15.7811 12.4666 15.6248 12.2868 15.445L12.1539 15.3121L8.15564 15.316C5.95522 15.316 4.11438 15.3316 4.07139 15.3512Z" fill="black"/>
<path d="M4.07139 17.1495C3.85252 17.2355 3.78998 17.5716 3.95414 17.7631L4.04794 17.8725L8.10092 17.8843L12.1539 17.8921L12.2868 17.7592C12.4666 17.5794 12.4666 17.4231 12.2868 17.2433L12.1539 17.1104L8.15564 17.1143C5.95522 17.1143 4.11438 17.13 4.07139 17.1495Z" fill="black"/>
</svg>
