<svg width="21" height="20" viewBox="0 0 21 20" fill="none" xmlns="http://www.w3.org/2000/svg">
<path d="M8.49305 0.0398693C7.65281 0.118032 6.55072 0.403324 5.71439 0.762869C4.06126 1.46633 2.58399 2.70129 1.56789 4.21763C-0.710539 7.62941 -0.487777 12.1472 2.11893 15.3557C3.42814 16.9659 5.3353 18.1539 7.33625 18.5995C8.2742 18.8066 8.22339 18.8027 11.9517 18.8379C13.8745 18.8535 15.512 18.8769 15.5863 18.8926C15.6605 18.9043 15.8989 18.9434 16.1139 18.9785C17.0948 19.1271 18.1031 19.4397 18.9863 19.8657C19.3185 20.0259 19.4709 20.0376 19.6898 19.9282C19.8656 19.8383 20.0024 19.6156 20.0024 19.4202C20.0024 19.2638 19.8774 19.0176 19.7601 18.9473C19.7093 18.916 19.4944 18.8066 19.2794 18.7089C17.8373 18.0484 16.0826 17.6693 14.4334 17.6576C14.0543 17.6576 13.98 17.6498 14.0387 17.6107C14.4177 17.3801 15.1446 16.8682 15.3869 16.6689C15.7895 16.3328 16.489 15.6059 16.8056 15.1994C19.4279 11.815 19.4514 7.13308 16.8642 3.70958C16.5359 3.27578 15.809 2.5137 15.3869 2.16197C13.4993 0.587004 10.9708 -0.190708 8.49305 0.0398693ZM10.197 1.2123C12.1667 1.41162 14.0269 2.32611 15.3518 3.74084C16.489 4.95236 17.212 6.39836 17.5051 8.06712C17.5794 8.4931 17.595 8.71196 17.595 9.41541C17.595 10.3651 17.5247 10.8966 17.2863 11.7212C16.2467 15.3245 12.8193 17.8061 9.09881 17.6498C5.16725 17.4817 1.97042 14.6679 1.27869 10.7637C1.14972 10.0329 1.14972 8.79793 1.27869 8.06712C1.73203 5.51122 3.24056 3.40084 5.51117 2.15415C6.86728 1.40771 8.63765 1.05207 10.197 1.2123Z" fill="black"/>
<path d="M8.83706 2.45895C8.41108 2.57228 8.10625 2.74815 7.77406 3.08424C7.43405 3.42034 7.2621 3.72127 7.14876 4.16288C7.00807 4.71392 7.07842 5.31186 7.35198 5.83164C7.51612 6.1482 7.99291 6.62499 8.30947 6.78913C8.82925 7.0627 9.42719 7.13304 9.97823 6.99235C10.4238 6.87902 10.7208 6.70706 11.0569 6.36705C11.3969 6.02705 11.5727 5.72222 11.6822 5.28842C11.8229 4.73737 11.7525 4.13943 11.4789 3.61965C11.3148 3.3031 10.838 2.82631 10.5215 2.66217C10.0056 2.39251 9.3842 2.31826 8.83706 2.45895ZM9.93915 3.68609C10.3495 3.88541 10.5684 4.24886 10.5684 4.72565C10.5684 5.05784 10.4863 5.2806 10.2792 5.51899C9.95869 5.87854 9.35293 5.99188 8.89959 5.76911C8.2743 5.46037 8.05935 4.68266 8.43844 4.08863C8.75109 3.59621 9.39983 3.42425 9.93915 3.68609Z" fill="black"/>
<path d="M4.4664 5.66735C4.19674 5.72206 3.73168 5.94483 3.50501 6.1246C2.59442 6.85151 2.35603 8.02785 2.89925 9.10258C3.06339 9.42695 3.53627 9.88029 3.89582 10.0562C4.82986 10.5095 5.86551 10.3414 6.59241 9.61063C7.82347 8.37958 7.3584 6.35908 5.70136 5.75333C5.40044 5.63999 4.79468 5.60091 4.4664 5.66735ZM5.35354 6.87495C5.63883 6.98047 5.8616 7.1837 5.99447 7.45335C6.08436 7.63704 6.1039 7.72692 6.1039 7.96922C6.09999 8.31314 6.00229 8.55935 5.77171 8.78993C5.53722 9.02441 5.29492 9.12212 4.95101 9.12212C4.47422 9.12212 4.11858 8.90326 3.888 8.46555C3.75904 8.22716 3.75904 7.71129 3.89191 7.46117C4.18111 6.90231 4.78296 6.66392 5.35354 6.87495Z" fill="black"/>
<path d="M13.4192 5.66308C12.1373 5.94055 11.3127 7.18724 11.5823 8.45346C11.7348 9.17255 12.2741 9.82912 12.958 10.1222C13.1847 10.2199 13.6497 10.3137 13.8999 10.3137C14.4431 10.3098 15.0527 10.0597 15.4631 9.66888C15.9282 9.23118 16.1666 8.71531 16.2017 8.0861C16.2604 7.01919 15.6311 6.10469 14.5838 5.73733C14.3297 5.64744 13.6771 5.60445 13.4192 5.66308ZM14.3962 6.92539C14.6268 7.04264 14.8026 7.2185 14.9277 7.4608C15.0606 7.71092 15.0606 8.22679 14.9316 8.46519C14.7948 8.72312 14.6229 8.89508 14.3845 9.01232C14.0796 9.16083 13.6693 9.16865 13.384 9.02795C13.1378 8.9068 12.9306 8.69967 12.8134 8.45346C12.6727 8.16426 12.6766 7.75391 12.8251 7.45299C12.9541 7.19114 13.1769 6.98401 13.4543 6.87459C13.7318 6.76516 14.1265 6.7847 14.3962 6.92539Z" fill="black"/>
<path d="M9.13393 8.91086C8.96589 8.99684 8.8291 9.22742 8.8291 9.415C8.8291 9.7042 9.12612 10.0012 9.41141 10.0012C9.71233 10.0012 10.0015 9.71202 10.0015 9.415C10.0015 9.2196 9.86475 8.99684 9.68888 8.90695C9.49739 8.80925 9.32152 8.80925 9.13393 8.91086Z" fill="black"/>
<path d="M6.171 10.9241C5.48708 11.0687 4.86179 11.5572 4.57259 12.1629C4.37718 12.5772 4.32638 12.7961 4.33028 13.226C4.33419 13.6441 4.40454 13.949 4.58822 14.2968C4.8696 14.8283 5.36593 15.2504 5.94042 15.4379C6.35468 15.5708 6.96825 15.5708 7.37861 15.4379C7.73424 15.3207 8.17586 15.0315 8.41816 14.7579C8.64092 14.5078 8.88714 14.0115 8.94966 13.6832C9.0161 13.3393 8.97702 12.7413 8.86759 12.4287C8.75426 12.1161 8.44943 11.6549 8.21103 11.4478C7.96482 11.2328 7.46458 10.9905 7.12849 10.9202C6.79239 10.8498 6.50319 10.8498 6.171 10.9241ZM7.17538 12.1669C7.38251 12.2685 7.60918 12.4951 7.71861 12.7062C7.7616 12.7843 7.79287 12.9563 7.80459 13.1478C7.82022 13.4135 7.8085 13.4956 7.73424 13.6676C7.617 13.9411 7.28872 14.2382 7.02297 14.3202C6.58917 14.4492 6.21008 14.3632 5.88571 14.0662C5.19397 13.4331 5.448 12.3701 6.36641 12.0692C6.54227 12.0105 6.96825 12.0613 7.17538 12.1669Z" fill="black"/>
<path d="M11.6808 10.924C11.0985 11.0491 10.5631 11.4086 10.2387 11.8932C9.97299 12.2919 9.87529 12.585 9.85184 13.0852C9.82448 13.5776 9.87138 13.8199 10.0746 14.242C10.442 15.0041 11.1767 15.4887 12.0482 15.5395C13.1386 15.602 14.1547 14.8673 14.4321 13.8082C14.5064 13.519 14.5064 12.9015 14.4321 12.6202C14.1117 11.4165 12.8845 10.6622 11.6808 10.924ZM12.6852 12.1668C13.0838 12.37 13.3261 12.7608 13.3222 13.2064C13.3222 13.5737 13.2128 13.816 12.9392 14.0661C12.482 14.4843 11.8489 14.4843 11.3916 14.0661C11.0907 13.7926 10.9969 13.562 11.0204 13.1477C11.0321 12.9562 11.0634 12.7843 11.1063 12.7061C11.2627 12.4052 11.5753 12.1512 11.8919 12.0691C12.0951 12.0144 12.4781 12.0613 12.6852 12.1668Z" fill="black"/>
</svg>
