<svg width="20" height="20" viewBox="0 0 20 20" fill="none" xmlns="http://www.w3.org/2000/svg">
<path d="M3.00148 0.0593681C2.33032 0.246843 1.79255 0.788439 1.61747 1.45502C1.55077 1.70915 1.5466 2.30491 1.5466 9.69561L1.54243 17.6654H0.875432C0.220942 17.6654 0.204268 17.6696 0.104218 17.7695C0.0208436 17.8487 0 17.9112 0 18.0903C0.00416873 18.9736 0.704515 19.7901 1.60079 19.9526C1.93846 20.0151 14.9407 20.0151 15.2617 19.9568C15.8078 19.8526 16.3706 19.4402 16.629 18.9611C16.8875 18.4778 16.8875 18.4778 16.875 15.1616L16.8625 12.1578L16.7458 12.0578C16.5915 11.9245 16.3831 11.9245 16.2288 12.0578L16.1121 12.1578L16.0913 15.2574C16.0704 18.3486 16.0704 18.3528 15.9787 18.5236C15.6869 19.0694 15.1408 19.311 14.5864 19.1527C14.1445 19.0236 13.8318 18.6403 13.761 18.1487C13.7318 17.9487 13.6901 17.832 13.6276 17.7654L13.5359 17.6654H7.93308H2.33449L2.34282 9.63311L2.35533 1.605L2.44704 1.43002C2.56377 1.21755 2.78888 0.992579 2.99314 0.888426C3.13905 0.817602 3.44754 0.813437 9.80484 0.800938L16.4581 0.792604L16.3414 1.01341C16.0829 1.48001 16.0913 1.36337 16.0913 5.52532V9.32482L16.1997 9.45397C16.3372 9.62062 16.5707 9.63311 16.7458 9.48314L16.8625 9.38315L16.875 5.85861L16.8833 2.33407H18.284C19.8223 2.33407 19.8681 2.32574 19.9682 2.0841C20.0099 1.97995 20.0099 1.89246 19.9724 1.65916C19.8431 0.880095 19.2845 0.259342 18.53 0.0593681C18.234 -0.0197887 3.28496 -0.0197887 3.00148 0.0593681ZM18.5091 0.880095C18.7718 0.996744 19.1344 1.36753 19.1344 1.52168C19.1344 1.53417 18.6467 1.54251 18.0506 1.54251C17.4545 1.54251 16.9667 1.53001 16.9667 1.51334C16.9667 1.50084 17.0126 1.40919 17.0709 1.31337C17.1793 1.12589 17.3836 0.950918 17.6004 0.855097C17.8088 0.763443 18.284 0.77594 18.5091 0.880095ZM13.069 18.6319C13.1065 18.7528 13.1857 18.9319 13.2399 19.0277L13.3441 19.2069H7.54956C1.86342 19.2069 1.75086 19.2069 1.53409 19.1235C1.29647 19.0361 1.01717 18.7819 0.900445 18.5486L0.829576 18.4153H6.91592H12.9981L13.069 18.6319Z" fill="black"/>
<path d="M6.48702 2.62601C5.16553 3.03846 4.88623 3.13844 4.81119 3.2301C4.71531 3.33842 4.71531 3.35925 4.71531 4.38828V5.43814L4.38598 5.42564C4.0108 5.40481 3.79819 5.4798 3.53973 5.70477C3.07283 6.11305 3.04365 6.91295 3.4772 7.36706C3.70648 7.60452 3.98161 7.72534 4.31928 7.72534C4.79868 7.72534 5.17387 7.48787 5.39064 7.04626C5.48235 6.85879 5.48652 6.81713 5.49903 5.30483L5.51154 3.75503L6.10349 3.56755C6.85387 3.33008 7.80017 3.04262 7.82518 3.04262C7.83352 3.04262 7.84185 3.37175 7.84185 3.77586V4.50493L7.75014 4.47577C7.57089 4.42161 7.19153 4.4466 6.99977 4.52993C6.54955 4.7299 6.29942 5.11735 6.29942 5.60062C6.30359 6.2797 6.79133 6.76713 7.46667 6.76297C7.81267 6.76297 8.07113 6.64632 8.31709 6.37135C8.61724 6.03806 8.61307 6.06723 8.61307 4.09248V2.32605L8.49634 2.22606C8.41297 2.15524 8.33376 2.12607 8.22538 2.13024C8.142 2.13441 7.35828 2.35521 6.48702 2.62601ZM7.63759 5.2715C7.95024 5.43398 7.87937 5.91725 7.53337 5.9839C7.1165 6.05889 6.90389 5.56312 7.24156 5.29649C7.37496 5.19234 7.47084 5.18817 7.63759 5.2715ZM4.48603 6.21721C4.61526 6.27553 4.71531 6.44634 4.71531 6.60466C4.71531 6.75047 4.50687 6.95878 4.36097 6.95878C3.98578 6.95878 3.80236 6.5255 4.07333 6.28803C4.21923 6.16305 4.32762 6.14222 4.48603 6.21721Z" fill="black"/>
<path d="M9.89631 2.73858C9.6837 2.78024 9.55031 3.16352 9.68787 3.3385C9.80877 3.49681 9.86713 3.50098 12.0682 3.50098H14.2109L14.3402 3.39266C14.4777 3.27601 14.5153 3.0802 14.4235 2.90939C14.3193 2.71775 14.2318 2.70941 12.0432 2.71358C10.9135 2.71775 9.94633 2.73024 9.89631 2.73858Z" fill="black"/>
<path d="M9.89631 4.61236C9.6837 4.65402 9.55031 5.0373 9.68787 5.21228C9.80877 5.37059 9.86713 5.37476 12.0682 5.37476H14.2109L14.3402 5.26644C14.4777 5.14979 14.5153 4.95398 14.4235 4.78317C14.3193 4.59153 14.2318 4.58319 12.0432 4.58736C10.9135 4.59153 9.94633 4.60402 9.89631 4.61236Z" fill="black"/>
<path d="M13.9402 7.12917C13.3065 7.31248 10.822 8.09154 10.7553 8.12487C10.7094 8.14987 10.6552 8.20403 10.6302 8.24986C10.6052 8.29568 10.5885 8.73729 10.5885 9.36638V10.4079L10.2467 10.3996C9.83815 10.3954 9.60887 10.4787 9.35875 10.7287C9.1253 10.9662 9.02525 11.212 9.02942 11.5619C9.03359 11.9035 9.10863 12.0952 9.32957 12.341C9.75895 12.8159 10.5427 12.8368 10.9971 12.3868C11.3222 12.0619 11.3139 12.0952 11.3389 10.3163L11.3597 8.73729L12.4853 8.3915C13.1064 8.19986 13.6359 8.04155 13.665 8.04155C13.7026 8.04155 13.7151 8.21236 13.7151 8.74979V9.4622L13.4691 9.43303C12.9689 9.37888 12.502 9.62051 12.2769 10.0621C11.9809 10.6454 12.206 11.3286 12.8105 11.6536C13.0064 11.7619 13.5942 11.7577 13.8193 11.6452C14.0277 11.5411 14.257 11.312 14.3612 11.1036C14.4404 10.9453 14.4446 10.8287 14.4571 9.18723C14.4613 8.22486 14.4571 7.3958 14.4446 7.34164C14.4238 7.24999 14.1986 7.07918 14.1111 7.08751C14.0903 7.08751 14.011 7.10834 13.9402 7.12917ZM13.5358 10.2704C13.6525 10.3537 13.7276 10.5829 13.6775 10.712C13.5608 11.0203 13.1273 11.0703 12.9855 10.787C12.8897 10.6079 12.9105 10.4662 13.0439 10.3288C13.1815 10.1913 13.3857 10.1663 13.5358 10.2704ZM10.3801 11.2286C10.5218 11.3036 10.6094 11.5244 10.551 11.6702C10.3884 12.0952 9.79647 11.9785 9.79647 11.5203C9.79647 11.3744 10.0049 11.1661 10.1508 11.1661C10.2092 11.1661 10.3134 11.1953 10.3801 11.2286Z" fill="black"/>
<path d="M3.6809 8.37556C3.58085 8.41722 3.45996 8.61719 3.45996 8.74634C3.45996 8.79634 3.51415 8.89216 3.58085 8.96715L3.70175 9.10463L5.8403 9.11713C7.39941 9.12546 8.01221 9.11296 8.09975 9.07963C8.25816 9.01298 8.33737 8.88799 8.33737 8.70468C8.33737 8.58387 8.30819 8.52554 8.20814 8.44222L8.07891 8.3339L5.92785 8.33806C4.74393 8.33806 3.73093 8.35473 3.6809 8.37556Z" fill="black"/>
<path d="M3.6809 10.2493C3.58085 10.291 3.45996 10.491 3.45996 10.6201C3.45996 10.6701 3.51415 10.7659 3.58085 10.8409L3.70175 10.9784L5.8403 10.9909C7.39941 10.9992 8.01221 10.9867 8.09975 10.9534C8.25816 10.8868 8.33737 10.7618 8.33737 10.5785C8.33737 10.4576 8.30819 10.3993 8.20814 10.316L8.07891 10.2077L5.92785 10.2118C4.74393 10.2118 3.73093 10.2285 3.6809 10.2493Z" fill="black"/>
<path d="M16.2941 10.4374C16.0858 10.5499 16.04 10.8707 16.2025 11.0498C16.3608 11.2248 16.7107 11.1706 16.8232 10.9498C16.9065 10.7873 16.8649 10.6124 16.7066 10.4791C16.5691 10.3624 16.4524 10.3499 16.2941 10.4374Z" fill="black"/>
<path d="M5.66211 12.0959C5.51204 12.2083 5.49953 12.3125 5.49953 13.3332V14.3372L5.40782 14.3081C5.07849 14.2039 4.56574 14.3372 4.29894 14.5955C4.05715 14.8247 3.94043 15.0996 3.94043 15.4371C3.94043 15.7954 4.05299 16.0495 4.31145 16.287C4.5574 16.5119 4.7575 16.5911 5.08266 16.5953C5.56623 16.6036 5.9706 16.3453 6.17487 15.8954C6.26658 15.6954 6.27075 15.6412 6.28325 14.3247L6.29993 12.9582L6.45 13.0249C6.67928 13.1166 6.82936 13.2832 6.96276 13.5707C7.02945 13.7123 7.12534 13.8581 7.17536 13.8915C7.31293 13.9914 7.51303 13.9748 7.64226 13.854C7.78816 13.7206 7.78816 13.479 7.64226 13.1665C7.41298 12.6749 7.10449 12.4208 6.4375 12.1833C6.02479 12.0375 5.77467 12.0084 5.66211 12.0959ZM5.28693 15.0996C5.39948 15.158 5.49953 15.3204 5.49953 15.4412C5.49953 15.6662 5.2369 15.8662 5.00762 15.812C4.67413 15.7412 4.61159 15.2663 4.91174 15.1038C5.04931 15.0288 5.14102 15.0288 5.28693 15.0996Z" fill="black"/>
<path d="M8.56915 14.0407C8.34821 14.2157 8.3899 14.5615 8.64419 14.6865C8.76925 14.7448 9.09024 14.749 11.5206 14.7406L14.2595 14.7281L14.3595 14.6115C14.5096 14.4365 14.4971 14.2032 14.3303 14.0657L14.2011 13.9574H11.4414C8.7359 13.9574 8.67337 13.9574 8.56915 14.0407Z" fill="black"/>
<path d="M8.56915 15.916C8.34821 16.0909 8.3899 16.4367 8.64419 16.5617C8.76925 16.62 9.09024 16.6242 11.5206 16.6159L14.2595 16.6034L14.3595 16.4867C14.5096 16.3118 14.4971 16.0784 14.3303 15.941L14.2011 15.8326H11.4414C8.7359 15.8326 8.67337 15.8326 8.56915 15.916Z" fill="black"/>
</svg>
