<svg width="253" height="253" viewBox="0 0 253 253" fill="none" xmlns="http://www.w3.org/2000/svg">
<circle cx="126.5" cy="126.5" r="126.5" fill="#F7F7F7"/>
<g clip-path="url(#clip0_1602_764)">
<path fill-rule="evenodd" clip-rule="evenodd" d="M179.04 59L153.471 66.7744C161.307 72.9631 169.143 79.1008 176.978 85.2896L186.309 82.4765L179.04 59ZM165.637 87.9492L142.8 69.9455L120.427 76.748C128.263 82.9368 136.099 89.1256 143.934 95.3144L166.307 88.5118L165.637 87.9492ZM109.808 79.9703L87.435 86.7728C95.2706 92.9616 103.106 99.1504 110.942 105.288L133.315 98.4855C125.479 92.3479 117.644 86.1591 109.808 79.9703ZM76.8155 89.9951L63 94.1892L70.2171 117.666L100.323 108.561C92.4869 102.373 84.6512 96.1839 76.8155 89.9951Z" fill="url(#paint0_linear_1602_764)"/>
<path fill-rule="evenodd" clip-rule="evenodd" d="M191.002 117.359V185.998C191.002 190.908 186.929 194.949 181.98 194.949H79.2401C74.2912 194.949 70.2188 190.908 70.2188 185.998V117.359H191.002Z" fill="url(#paint1_linear_1602_764)"/>
<path d="M100.632 176.843C100.632 165.386 91.3012 156.18 79.7539 156.18C91.3012 156.18 100.58 146.922 100.58 135.516C100.58 146.973 109.911 156.18 121.407 156.18C109.963 156.282 100.632 165.386 100.632 176.843Z" fill="#F6F6F6"/>
<path d="M140.222 160.067H132.85L131.459 163.442H127.695L134.758 147.689H138.366L145.48 163.442H141.614L140.222 160.067ZM139.088 157.305L136.562 151.269L134.036 157.305H139.088Z" fill="#F6F6F6"/>
<path d="M147.129 147.689H154.346C159.553 147.689 163.11 150.809 163.11 155.566C163.11 160.322 159.553 163.442 154.346 163.442H147.129V147.689ZM154.191 160.425C157.336 160.425 159.398 158.532 159.398 155.514C159.398 152.497 157.336 150.604 154.191 150.604H150.841V160.373H154.191V160.425Z" fill="#F6F6F6"/>
<path d="M164.656 161.908L165.893 159.146C167.234 160.118 169.244 160.783 171.152 160.783C173.317 160.783 174.193 160.067 174.193 159.095C174.193 156.128 164.966 158.174 164.966 152.292C164.966 149.633 167.131 147.382 171.667 147.382C173.678 147.382 175.688 147.843 177.183 148.763L176.049 151.525C174.554 150.707 173.059 150.298 171.667 150.298C169.502 150.298 168.626 151.116 168.626 152.088C168.626 155.003 177.853 153.009 177.853 158.788C177.853 161.448 175.637 163.698 171.1 163.698C168.574 163.698 166.048 162.982 164.656 161.908Z" fill="#F6F6F6"/>
</g>
<defs>
<linearGradient id="paint0_linear_1602_764" x1="63" y1="88.323" x2="186.244" y2="88.323" gradientUnits="userSpaceOnUse">
<stop stop-color="#D2AE78"/>
<stop offset="1" stop-color="#916F3F"/>
</linearGradient>
<linearGradient id="paint1_linear_1602_764" x1="70.2281" y1="156.17" x2="190.976" y2="156.17" gradientUnits="userSpaceOnUse">
<stop stop-color="#D2AE78"/>
<stop offset="1" stop-color="#916F3F"/>
</linearGradient>
<clipPath id="clip0_1602_764">
<rect width="128" height="136" fill="white" transform="translate(63 59)"/>
</clipPath>
</defs>
</svg>
