<svg width="391" height="130" viewBox="0 0 391 130" fill="none" xmlns="http://www.w3.org/2000/svg">
<path d="M389.43 129.856H2.47559V60.2452C2.47559 28.2927 28.4566 2.42645 60.338 2.42645H331.568C363.544 2.42645 389.43 28.2927 389.43 60.2452V129.856Z" fill="white"/>
<path d="M373.633 62.2422H17.3223V129.761H373.633V62.2422Z" fill="#9C9C9C"/>
<path d="M245.726 30.2898H145.133C141.898 30.2898 139.328 27.7222 139.328 24.4889C139.328 21.2556 141.898 18.688 145.133 18.688H245.726C248.962 18.688 251.532 21.2556 251.532 24.4889C251.532 27.7222 248.962 30.2898 245.726 30.2898Z" fill="white" stroke="#DCDCDC" stroke-width="1.5" stroke-miterlimit="10"/>
<path d="M302.066 30.2898C305.272 30.2898 307.871 27.6926 307.871 24.4889C307.871 21.2851 305.272 18.688 302.066 18.688C298.86 18.688 296.261 21.2851 296.261 24.4889C296.261 27.6926 298.86 30.2898 302.066 30.2898Z" fill="white" stroke="#DCDCDC" stroke-width="1.5" stroke-miterlimit="10"/>
<path d="M369.731 66.4265H21.3193V125.672H369.731V66.4265Z" fill="white"/>
<path d="M2 129.856V60.2452C2 28.2927 27.8858 2.42645 59.8624 2.42645H331.092C363.069 2.42645 388.955 28.2927 388.955 60.2452V129.856" stroke="#DBDBDB" stroke-width="3" stroke-miterlimit="10"/>
</svg>
