<svg width="391" height="133" viewBox="0 0 391 133" fill="none" xmlns="http://www.w3.org/2000/svg">
<path d="M388.859 129.623H2V60.0119C2 28.0594 27.8858 2.19318 59.8624 2.19318H331.092C363.069 2.19318 388.955 28.0594 388.955 60.0119V129.623H388.859Z" fill="white"/>
<path d="M2 129.623V60.0119C2 28.0594 27.8858 2.19318 59.8624 2.19318H331.092C363.069 2.19318 388.955 28.0594 388.955 60.0119V129.623" stroke="#DDDDDD" stroke-width="3" stroke-miterlimit="10"/>
<path d="M195.382 37.6642C195.382 36.9034 195.477 36.1426 195.572 35.3818V39.6612C195.382 38.9955 195.382 38.3298 195.382 37.6642Z" fill="#9E9E9E"/>
<path d="M195.572 37.6642C195.572 38.3299 195.572 38.9004 195.477 39.471L195.382 39.5661V34.6211C195.477 35.6672 195.572 36.7132 195.572 37.6642Z" fill="#9E9E9E"/>
<path d="M291.311 37.6642C291.311 38.3299 291.311 38.9004 291.216 39.471L291.121 39.5661V34.6211C291.216 35.6672 291.311 36.7132 291.311 37.6642Z" fill="#9E9E9E"/>
<path d="M97.2635 35.382V39.6613C97.1683 38.9956 97.1683 38.425 97.1683 37.7594C97.0732 36.9035 97.1683 36.1427 97.2635 35.382Z" fill="#9E9E9E"/>
<path d="M367.922 60.5825V129.623H22.8418V60.5825C22.8418 42.419 37.5929 27.584 55.8652 27.584H93.0761C95.4553 27.584 97.2635 29.4859 97.2635 31.7682V35.3819C97.1683 36.1427 97.0731 36.9035 97.0731 37.6642C97.0731 38.3299 97.0731 38.9956 97.1683 39.5662C98.12 48.8856 106.019 56.113 115.536 56.113H272.754C277.893 56.113 282.461 54.0208 285.792 50.6925C288.742 47.7445 290.741 43.8455 291.121 39.4711C291.217 38.9005 291.217 38.2348 291.217 37.6642C291.217 36.7133 291.121 35.6672 291.026 34.7162V31.7682C291.026 29.3908 292.93 27.584 295.214 27.584H334.899C353.171 27.584 367.922 42.324 367.922 60.5825Z" fill="#9E9E9E"/>
<path d="M97.2635 35.382V39.6613C97.1683 38.9956 97.1683 38.425 97.1683 37.7594C97.0732 36.9035 97.1683 36.1427 97.2635 35.382Z" fill="#9E9E9E"/>
<path d="M291.311 37.6642C291.311 38.3299 291.311 38.9004 291.216 39.471L291.121 39.5661V34.6211C291.216 35.6672 291.311 36.7132 291.311 37.6642Z" fill="#9E9E9E"/>
<path d="M355.587 127H33.4129C29.8714 127 27 124.114 27 120.554V72.4464C27 68.8864 29.8714 66 33.4129 66H355.587C359.129 66 362 68.8864 362 72.4464V120.554C362 124.114 359.129 127 355.587 127Z" fill="white"/>
<path d="M205.85 26.633H159.503C157.695 26.633 156.268 25.2066 156.268 23.3997V22.2586C156.268 20.4517 157.695 19.0253 159.503 19.0253H205.85C207.659 19.0253 209.086 20.4517 209.086 22.2586V23.3997C209.086 25.2066 207.659 26.633 205.85 26.633Z" fill="white" stroke="#DCDCDC" stroke-width="0.8307" stroke-miterlimit="10"/>
<path d="M230.118 27.2987C232.589 27.2987 234.591 25.2976 234.591 22.8292C234.591 20.3607 232.589 18.3596 230.118 18.3596C227.648 18.3596 225.646 20.3607 225.646 22.8292C225.646 25.2976 227.648 27.2987 230.118 27.2987Z" fill="white" stroke="#DCDCDC" stroke-width="1.1533" stroke-miterlimit="10"/>
</svg>
