<svg width="28" height="28" viewBox="0 0 28 28" fill="none" xmlns="http://www.w3.org/2000/svg">
<path d="M4.27403 24.07C2.93689 22.7786 1.87034 21.2338 1.13662 19.5257C0.402889 17.8176 0.016682 15.9806 0.000528595 14.1217C-0.0156248 12.2627 0.338599 10.4192 1.04253 8.69868C1.74646 6.97813 2.78601 5.415 4.1005 4.1005C5.415 2.78601 6.97813 1.74646 8.69868 1.04253C10.4192 0.338599 12.2627 -0.0156248 14.1217 0.000528595C15.9806 0.016682 17.8176 0.402889 19.5257 1.13662C21.2338 1.87034 22.7786 2.93689 24.07 4.27403C26.6202 6.91447 28.0314 10.4509 27.9995 14.1217C27.9676 17.7924 26.4952 21.3038 23.8995 23.8995C21.3038 26.4952 17.7924 27.9676 14.1217 27.9995C10.4509 28.0314 6.91447 26.6202 4.27403 24.07ZM6.24803 22.096C8.34961 24.1976 11.2 25.3783 14.172 25.3783C17.1441 25.3783 19.9945 24.1976 22.096 22.096C24.1976 19.9945 25.3783 17.1441 25.3783 14.172C25.3783 11.2 24.1976 8.34961 22.096 6.24803C19.9945 4.14646 17.1441 2.96581 14.172 2.96581C11.2 2.96581 8.34961 4.14646 6.24803 6.24803C4.14646 8.34961 2.96581 11.2 2.96581 14.172C2.96581 17.1441 4.14646 19.9945 6.24803 22.096ZM20.108 10.21L16.146 14.172L20.108 18.134L18.134 20.108L14.172 16.146L10.21 20.108L8.23604 18.134L12.198 14.172L8.23604 10.21L10.21 8.23604L14.172 12.198L18.134 8.23604L20.108 10.21Z" fill="black"/>
</svg>
