<svg width="21" height="21" viewBox="0 0 21 21" fill="none" xmlns="http://www.w3.org/2000/svg">
<path d="M17.6813 0L20.9994 3.31807L18.4699 5.84866L15.1518 2.53058L17.6813 0ZM5.52832 15.4711H8.84639L16.906 7.41147L13.5879 4.0934L5.52832 12.153V15.4711Z" fill="#F3C060"/>
<path d="M17.6964 18.789H5.70487C5.67612 18.789 5.64626 18.8001 5.6175 18.8001C5.581 18.8001 5.5445 18.7902 5.5069 18.789H2.21205V3.3047H9.785L11.997 1.09265H2.21205C0.992104 1.09265 0 2.08365 0 3.3047V18.789C0 20.0101 0.992104 21.0011 2.21205 21.0011H17.6964C18.2831 21.0011 18.8457 20.768 19.2605 20.3532C19.6754 19.9384 19.9084 19.3757 19.9084 18.789V9.20202L17.6964 11.4141V18.789Z" fill="#F3C060"/>
</svg>
