<svg width="13" height="12" viewBox="0 0 13 12" fill="none" xmlns="http://www.w3.org/2000/svg">
<path d="M10.1239 0L12.0198 1.89593L10.5745 3.3419L8.67853 1.44597L10.1239 0ZM3.17969 8.84011H5.07562L9.68085 4.23488L7.78491 2.33895L3.17969 6.94417V8.84011Z" fill="#A9A9A9"/>
<path d="M10.1322 10.736H3.28025C3.26382 10.736 3.24676 10.7424 3.23032 10.7424C3.20947 10.7424 3.18861 10.7367 3.16713 10.736H1.28446V1.88835H5.61162L6.87557 0.62439H1.28446C0.587392 0.62439 0.0205078 1.19064 0.0205078 1.88835V10.736C0.0205078 11.4337 0.587392 12 1.28446 12H10.1322C10.4674 12 10.7889 11.8668 11.0259 11.6298C11.2629 11.3928 11.3961 11.0713 11.3961 10.736V5.25805L10.1322 6.52201V10.736Z" fill="#A9A9A9"/>
</svg>
