<svg width="83" height="83" viewBox="0 0 83 83" fill="none" xmlns="http://www.w3.org/2000/svg">
<circle cx="41.5" cy="41.5" r="41.5" fill="#EFEFEF"/>
<path d="M19.3047 28.7244H32.6515V62.7898H19.3047V28.7244Z" fill="white"/>
<path d="M19.3047 28.7269V62.7915H32.6546V58.9385C23.1887 55.5273 22.7655 36.3863 22.7966 28.7268L19.3047 28.7269Z" fill="#DEE1E6"/>
<path d="M51.0645 28.7244H64.4112V62.7898H51.0645V28.7244Z" fill="white"/>
<path d="M64.4124 28.7269V62.7915H51.0625V58.9385C60.5283 55.5273 60.9516 36.3863 60.9205 28.7268L64.4124 28.7269Z" fill="#DEE1E6"/>
<path d="M32.6543 17.0498H51.0666V62.7898H32.6543V17.0498Z" fill="#FF7E7E"/>
<path d="M51.0666 17.0518V62.7917H32.6543V59.3239C46.7949 56.0445 47.2601 23.9749 47.1981 17.0518H51.0666Z" fill="#EF3D3D"/>
<path d="M66.6651 63.5646V65.8903C66.6651 66.3185 66.318 66.6656 65.8898 66.6656H17.8241C17.3959 66.6656 17.0488 66.3185 17.0488 65.8903V63.5646C17.0488 63.1364 17.3959 62.7893 17.8241 62.7893H65.8898C66.3179 62.7893 66.6651 63.1364 66.6651 63.5646Z" fill="#DEE1E6"/>
<path d="M36.207 32.4255H40.1686V37.8601H36.207V32.4255Z" fill="white"/>
<path d="M43.5449 32.4255H47.5065V37.8601H43.5449V32.4255Z" fill="white"/>
<path d="M55.2168 32.1892H60.2559V36.7818H55.2168V32.1892Z" fill="#4DABF4"/>
<path d="M55.2168 39.7031H60.2559V44.2957H55.2168V39.7031Z" fill="#4DABF4"/>
<path d="M55.2168 47.217H60.2559V51.8096H55.2168V47.217Z" fill="#4DABF4"/>
<path d="M55.2168 54.7305H60.2559V59.3231H55.2168V54.7305Z" fill="#4DABF4"/>
<path d="M23.459 32.1895H28.4981V36.7821H23.459V32.1895Z" fill="#4DABF4"/>
<path d="M23.459 39.7034H28.4981V44.296H23.459V39.7034Z" fill="#4DABF4"/>
<path d="M23.459 47.217H28.4981V51.8096H23.459V47.217Z" fill="#4DABF4"/>
<path d="M23.459 54.7305H28.4981V59.3231H23.459V54.7305Z" fill="#4DABF4"/>
<path d="M36.2109 41.9788H40.1725V47.4133H36.2109V41.9788Z" fill="white"/>
<path d="M43.5508 41.9788H47.5123V47.4133H43.5508V41.9788Z" fill="white"/>
<path d="M37.5957 51.5037H46.1235V62.7867H37.5957V51.5037Z" fill="white"/>
<path d="M46.1225 24.3545C46.1225 26.7126 44.2168 28.6184 41.8655 28.6184C39.5073 28.6184 37.6016 26.7126 37.6016 24.3545C37.6016 22.0031 39.5073 20.0906 41.8655 20.0906C44.2168 20.0906 46.1225 22.0032 46.1225 24.3545Z" fill="white"/>
<path d="M65.8897 62.0144H65.1848V28.7239C65.1848 28.2958 64.8377 27.9487 64.4096 27.9487H51.8382V17.8249H53.9668V16.2744C47.8987 16.2744 35.79 16.2744 29.7469 16.2744V17.8249H31.8754V27.9487H19.3041C18.876 27.9487 18.5288 28.2958 18.5288 28.7239V62.0144H17.8239C16.9688 62.0144 16.2734 62.7098 16.2734 63.5649V65.8907C16.2734 66.7458 16.9688 67.4412 17.8239 67.4412H65.8897C66.7448 67.4412 67.4402 66.7458 67.4402 65.8907V63.5649C67.4402 62.7098 66.7448 62.0144 65.8897 62.0144ZM63.6343 29.4992V62.0144H51.8382V29.4992H63.6343ZM50.2877 17.8249V62.0144H46.8956V51.5034C46.8956 51.0753 46.5484 50.7282 46.1203 50.7282H37.5925C37.1644 50.7282 36.8173 51.0753 36.8173 51.5034V62.0144H33.4259C33.4259 53.8599 33.4259 26.7909 33.4259 17.8249H50.2877ZM45.3451 52.2787V62.011H42.6317V52.2787H45.3451ZM41.0812 62.011H38.3678V52.2787H41.0812V62.011ZM20.0793 29.4992H31.8754V62.0144H20.0793V29.4992ZM17.8239 65.8907V63.5649H65.8897L65.8909 65.8907H17.8239Z" fill="black"/>
<path d="M36.2069 38.6354H40.1684C40.5965 38.6354 40.9436 38.2883 40.9436 37.8602V32.4254C40.9436 31.9973 40.5965 31.6501 40.1684 31.6501H36.2069C35.7788 31.6501 35.4316 31.9973 35.4316 32.4254V37.8602C35.4316 38.2883 35.7788 38.6354 36.2069 38.6354ZM36.9821 33.2007H39.3931V37.0849H36.9821V33.2007Z" fill="black"/>
<path d="M42.7695 32.4254V37.8602C42.7695 38.2883 43.1167 38.6354 43.5448 38.6354H47.5063C47.9344 38.6354 48.2815 38.2883 48.2815 37.8602V32.4254C48.2815 31.9973 47.9344 31.6501 47.5063 31.6501H43.5448C43.1167 31.6501 42.7695 31.9973 42.7695 32.4254ZM44.32 33.2007H46.731V37.0849H44.32V33.2007Z" fill="black"/>
<path d="M55.2167 37.5581H60.2558C60.6839 37.5581 61.0311 37.211 61.0311 36.7829V32.19C61.0311 31.762 60.6839 31.4148 60.2558 31.4148H55.2167C54.7886 31.4148 54.4414 31.762 54.4414 32.19V36.7829C54.4414 37.2111 54.7886 37.5581 55.2167 37.5581ZM55.9919 32.9653H59.4806V36.0076H55.9919V32.9653Z" fill="black"/>
<path d="M55.2167 45.0718H60.2558C60.6839 45.0718 61.0311 44.7247 61.0311 44.2966V39.7037C61.0311 39.2756 60.6839 38.9285 60.2558 38.9285H55.2167C54.7886 38.9285 54.4414 39.2756 54.4414 39.7037V44.2966C54.4414 44.7247 54.7886 45.0718 55.2167 45.0718ZM55.9919 40.479H59.4806V43.5213H55.9919V40.479Z" fill="black"/>
<path d="M55.2167 52.5855H60.2558C60.6839 52.5855 61.0311 52.2383 61.0311 51.8102V47.2174C61.0311 46.7893 60.6839 46.4421 60.2558 46.4421H55.2167C54.7886 46.4421 54.4414 46.7893 54.4414 47.2174V51.8102C54.4414 52.2383 54.7886 52.5855 55.2167 52.5855ZM55.9919 47.9926H59.4806V51.035H55.9919V47.9926Z" fill="black"/>
<path d="M55.2167 60.0987H60.2558C60.6839 60.0987 61.0311 59.7515 61.0311 59.3234V54.7306C61.0311 54.3025 60.6839 53.9553 60.2558 53.9553H55.2167C54.7886 53.9553 54.4414 54.3025 54.4414 54.7306V59.3234C54.4414 59.7515 54.7886 60.0987 55.2167 60.0987ZM55.9919 55.5058H59.4806V58.5482H55.9919V55.5058Z" fill="black"/>
<path d="M28.496 31.4148H23.4569C23.0288 31.4148 22.6816 31.762 22.6816 32.19V36.7829C22.6816 37.211 23.0288 37.5581 23.4569 37.5581H28.496C28.9241 37.5581 29.2713 37.211 29.2713 36.7829V32.19C29.2713 31.762 28.9241 31.4148 28.496 31.4148ZM27.7208 36.0076H24.2321V32.9653H27.7208V36.0076Z" fill="black"/>
<path d="M28.496 38.9285H23.4569C23.0288 38.9285 22.6816 39.2756 22.6816 39.7037V44.2966C22.6816 44.7247 23.0288 45.0718 23.4569 45.0718H28.496C28.9241 45.0718 29.2713 44.7247 29.2713 44.2966V39.7037C29.2713 39.2755 28.9241 38.9285 28.496 38.9285ZM27.7208 43.5213H24.2321V40.479H27.7208V43.5213Z" fill="black"/>
<path d="M28.496 46.4421H23.4569C23.0288 46.4421 22.6816 46.7893 22.6816 47.2174V51.8102C22.6816 52.2383 23.0288 52.5855 23.4569 52.5855H28.496C28.9241 52.5855 29.2713 52.2383 29.2713 51.8102V47.2174C29.2713 46.7892 28.9241 46.4421 28.496 46.4421ZM27.7208 51.035H24.2321V47.9926H27.7208V51.035Z" fill="black"/>
<path d="M28.496 53.9553H23.4569C23.0288 53.9553 22.6816 54.3025 22.6816 54.7306V59.3234C22.6816 59.7515 23.0288 60.0987 23.4569 60.0987H28.496C28.9241 60.0987 29.2713 59.7515 29.2713 59.3234V54.7306C29.2713 54.3024 28.9241 53.9553 28.496 53.9553ZM27.7208 58.5482H24.2321V55.5058H27.7208V58.5482Z" fill="black"/>
<path d="M36.2069 48.1891H40.1684C40.5965 48.1891 40.9436 47.842 40.9436 47.4139V41.9791C40.9436 41.551 40.5965 41.2039 40.1684 41.2039H36.2069C35.7788 41.2039 35.4316 41.551 35.4316 41.9791V47.4139C35.4316 47.842 35.7788 48.1891 36.2069 48.1891ZM36.9821 42.7544H39.3931V46.6387H36.9821V42.7544Z" fill="black"/>
<path d="M47.5063 41.2041H43.5448C43.1167 41.2041 42.7695 41.5513 42.7695 41.9794V47.4141C42.7695 47.8422 43.1167 48.1894 43.5448 48.1894H47.5063C47.9344 48.1894 48.2815 47.8422 48.2815 47.4141V41.9794C48.2815 41.5512 47.9344 41.2041 47.5063 41.2041ZM46.731 46.6388H44.32V42.7545H46.731V46.6388Z" fill="black"/>
<path d="M41.8595 29.3937C44.6342 29.3937 46.8918 27.1331 46.8918 24.3546C46.8918 21.5761 44.6342 19.3154 41.8595 19.3154C39.081 19.3154 36.8203 21.5761 36.8203 24.3546C36.8203 27.1331 39.081 29.3937 41.8595 29.3937ZM41.8595 20.8659C43.7795 20.8659 45.3413 22.4309 45.3413 24.3546C45.3413 26.2783 43.7795 27.8432 41.8595 27.8432C39.9357 27.8432 38.3708 26.2783 38.3708 24.3546C38.3708 22.4309 39.9357 20.8659 41.8595 20.8659Z" fill="black"/>
<path d="M42.6325 24.562L43.6883 22.7318L42.3452 21.9573L41.082 24.1471V26.3067H42.6325V24.562Z" fill="black"/>
</svg>
