<svg width="173" height="173" viewBox="0 0 173 173" fill="none" xmlns="http://www.w3.org/2000/svg">
<rect width="173" height="173" fill="#F6F6F6"/>
<path d="M50 37V136.884H77.9066V37H50ZM71.969 129.037C71.969 130.064 71.0784 130.944 70.0393 130.944H57.9415C56.9024 130.944 56.0118 130.064 56.0118 129.037V117.083C56.0118 116.057 56.9024 115.177 57.9415 115.177H70.0393C71.0784 115.177 71.969 116.057 71.969 117.083V129.037ZM71.969 105.203C71.969 106.23 71.0784 107.11 70.0393 107.11H57.9415C56.9024 107.11 56.0118 106.23 56.0118 105.203V93.2491C56.0118 92.2224 56.9024 91.3424 57.9415 91.3424H70.0393C71.0784 91.3424 71.969 92.2224 71.969 93.2491V105.203ZM71.969 81.3686C71.969 82.3953 71.0784 83.2753 70.0393 83.2753H57.9415C56.9024 83.2753 56.0118 82.3953 56.0118 81.3686V69.4147C56.0118 68.388 56.9024 67.508 57.9415 67.508H70.0393C71.0784 67.508 71.969 68.388 71.969 69.4147V81.3686ZM71.969 57.5342C71.969 58.5609 71.0784 59.441 70.0393 59.441H57.9415C56.9024 59.441 56.0118 58.5609 56.0118 57.5342V45.5804C56.0118 44.5537 56.9024 43.6736 57.9415 43.6736H70.0393C71.0784 43.6736 71.969 44.5537 71.969 45.5804V57.5342Z" fill="url(#paint0_linear_846_221)"/>
<path d="M121.758 37V76.428C114.206 44.2285 89.2007 37 89.2007 37H121.758Z" fill="url(#paint1_linear_846_221)"/>
<path d="M103.647 116.808C103.647 105.672 94.6638 96.6884 83.5278 96.6884C94.6638 96.6884 103.647 87.7048 103.647 76.5688C103.647 87.7048 112.631 96.6884 123.767 96.6884C112.725 96.782 103.647 105.672 103.647 116.808Z" fill="url(#paint2_linear_846_221)"/>
<defs>
<linearGradient id="paint0_linear_846_221" x1="54.8766" y1="80.6528" x2="77.5332" y2="96.7323" gradientUnits="userSpaceOnUse">
<stop stop-color="#D4AF7E"/>
<stop offset="1" stop-color="#957241"/>
</linearGradient>
<linearGradient id="paint1_linear_846_221" x1="106.066" y1="45.7732" x2="132.54" y2="64.39" gradientUnits="userSpaceOnUse">
<stop stop-color="#D2AE78"/>
<stop offset="0.2212" stop-color="#CBA772"/>
<stop offset="0.5388" stop-color="#B89561"/>
<stop offset="0.913" stop-color="#997746"/>
<stop offset="1" stop-color="#916F3F"/>
</linearGradient>
<linearGradient id="paint2_linear_846_221" x1="90.147" y1="87.2353" x2="117.148" y2="106.142" gradientUnits="userSpaceOnUse">
<stop stop-color="#D2AE78"/>
<stop offset="1" stop-color="#916F3F"/>
</linearGradient>
</defs>
</svg>
