<svg width="236" height="32" viewBox="0 0 236 32" fill="none" xmlns="http://www.w3.org/2000/svg">
<path d="M0 0V31.6111H8.83181V0H0ZM6.9527 29.1277C6.9527 29.4526 6.67083 29.7312 6.34199 29.7312H2.51331C2.18446 29.7312 1.9026 29.4526 1.9026 29.1277V25.3446C1.9026 25.0197 2.18446 24.7412 2.51331 24.7412H6.34199C6.67083 24.7412 6.9527 25.0197 6.9527 25.3446V29.1277ZM6.9527 21.5847C6.9527 21.9096 6.67083 22.1881 6.34199 22.1881H2.51331C2.18446 22.1881 1.9026 21.9096 1.9026 21.5847V17.8016C1.9026 17.4766 2.18446 17.1981 2.51331 17.1981H6.34199C6.67083 17.1981 6.9527 17.4766 6.9527 17.8016V21.5847ZM6.9527 14.0416C6.9527 14.3666 6.67083 14.6451 6.34199 14.6451H2.51331C2.18446 14.6451 1.9026 14.3666 1.9026 14.0416V10.2585C1.9026 9.9336 2.18446 9.65508 2.51331 9.65508H6.34199C6.67083 9.65508 6.9527 9.9336 6.9527 10.2585V14.0416ZM6.9527 6.49861C6.9527 6.82354 6.67083 7.10206 6.34199 7.10206H2.51331C2.18446 7.10206 1.9026 6.82354 1.9026 6.49861V2.71549C1.9026 2.39056 2.18446 2.11205 2.51331 2.11205H6.34199C6.67083 2.11205 6.9527 2.39056 6.9527 2.71549V6.49861Z" fill="url(#paint0_linear_1507_806)"/>
<path d="M22.71 0V12.4781C20.3197 2.28765 12.4062 0 12.4062 0H22.71Z" fill="url(#paint1_linear_1507_806)"/>
<path d="M16.9768 25.2572C16.9768 21.733 14.1337 18.8899 10.6094 18.8899C14.1337 18.8899 16.9768 16.0467 16.9768 12.5225C16.9768 16.0467 19.8199 18.8899 23.3442 18.8899C19.8495 18.9195 16.9768 21.733 16.9768 25.2572Z" fill="url(#paint2_linear_1507_806)"/>
<path d="M168.044 4.22412H163.199L153.738 27.897H159.314L161.045 23.0109H170.236L172.005 27.897H177.581L168.044 4.22412ZM171.274 15.4356C169.851 15.6629 168.582 16.3447 167.621 17.2916C166.66 18.2385 165.967 19.4884 165.737 20.8899H165.583C165.121 18.087 162.891 15.8523 160.045 15.4356V15.2841C161.468 15.0569 162.737 14.4129 163.698 13.4282C164.66 12.4812 165.352 11.2313 165.583 9.79199H165.737C165.967 11.1934 166.621 12.4434 167.621 13.4282C168.582 14.3751 169.89 15.0569 171.313 15.2841V15.4356H171.274Z" fill="#D2AB72"/>
<path d="M210.772 4.03418H206.234L197.428 20.1318L188.506 4.03418H183.93V27.8207H189.121V14.7154L196.12 27.1768H198.62L205.658 14.3745L205.696 27.7829H210.888L210.772 4.03418Z" fill="#D2AB72"/>
<path d="M236.001 23.3515V27.7452H217.504V3.99658H235.54V8.39026H222.965V13.5415H234.04V17.8216H222.965V23.3137H236.001V23.3515Z" fill="#D2AB72"/>
<path d="M131.59 27.3666V4.37549H147.588V8.27678H136.282V13.731H146.011V17.6323H136.282V27.4045H131.59V27.3666Z" fill="#D2AB72"/>
<path d="M47.5304 24.2987H58.7596V27.4803H43.2617V4.56494H47.5688V24.2987H47.5304Z" fill="#D2AB72"/>
<path d="M75.2993 27.8209C72.6843 27.8209 70.5692 27.0634 68.954 25.5483C67.3388 24.0333 66.5312 21.9879 66.5312 19.4502V18.9957C66.5312 17.2912 66.8774 15.7762 67.608 14.4505C68.3002 13.1248 69.3001 12.0642 70.5692 11.3067C71.8382 10.5492 73.2611 10.1704 74.8378 10.1704C77.3375 10.1704 79.2603 10.9279 80.6447 12.4051C81.9907 13.8823 82.6829 15.9655 82.6829 18.6927V20.2456H70.6845C70.7999 21.647 71.2998 22.7833 72.1843 23.5787C73.0688 24.412 74.1841 24.7908 75.53 24.7908C77.4144 24.7908 78.9527 24.0711 80.1448 22.6697L82.3753 24.6393C81.6446 25.662 80.6447 26.4574 79.4141 27.0255C78.222 27.5179 76.8376 27.8209 75.2993 27.8209ZM74.7994 13.2005C73.6841 13.2005 72.7612 13.5793 72.069 14.299C71.3768 15.0186 70.9153 16.0413 70.723 17.367H78.5681V17.1018C78.4912 15.814 78.1066 14.8671 77.4529 14.1853C76.8376 13.5414 75.9531 13.2005 74.7994 13.2005Z" fill="#D2AB72"/>
<path d="M96.6021 6.30713V10.4357H99.8324V13.2764H96.6021V22.7835C96.6021 23.4274 96.7559 23.9198 97.0251 24.1849C97.2943 24.4879 97.7942 24.6016 98.5249 24.6016C98.9864 24.6016 99.4863 24.5637 99.9863 24.4501V27.4044C99.0633 27.6317 98.1404 27.7832 97.2559 27.7832C94.1024 27.7832 92.4873 26.1545 92.4873 22.935V13.2764H89.4492V10.4357H92.4873V6.30713H96.6021Z" fill="#D2AB72"/>
<path d="M118.832 22.8591C118.832 22.1773 118.524 21.647 117.909 21.3061C117.294 20.9653 116.294 20.6244 114.909 20.3592C113.525 20.0941 112.333 19.7532 111.41 19.3366C109.333 18.4275 108.333 17.064 108.333 15.3216C108.333 13.8444 108.987 12.6324 110.333 11.6476C111.679 10.6628 113.371 10.1704 115.409 10.1704C117.601 10.1704 119.37 10.6628 120.716 11.6855C122.062 12.7081 122.755 13.9959 122.755 15.5868H118.64C118.64 14.8671 118.332 14.2232 117.755 13.7687C117.178 13.2763 116.371 13.049 115.409 13.049C114.486 13.049 113.756 13.2384 113.179 13.6172C112.602 13.996 112.333 14.5262 112.333 15.1701C112.333 15.7762 112.602 16.2307 113.14 16.5337C113.679 16.8746 114.756 17.1776 116.371 17.5185C117.986 17.8594 119.255 18.2381 120.178 18.6927C121.101 19.1472 121.793 19.7153 122.216 20.3214C122.678 20.9653 122.87 21.7228 122.87 22.6697C122.87 24.1848 122.178 25.4347 120.832 26.3816C119.447 27.3285 117.678 27.8209 115.448 27.8209C113.948 27.8209 112.602 27.5558 111.41 27.0634C110.218 26.571 109.333 25.8513 108.68 24.9802C108.026 24.109 107.68 23.1621 107.68 22.1394H111.679C111.718 23.0485 112.102 23.7303 112.794 24.2227C113.487 24.715 114.371 24.9423 115.486 24.9423C116.563 24.9423 117.409 24.7529 117.948 24.3742C118.563 23.9954 118.832 23.4651 118.832 22.8591Z" fill="#D2AB72"/>
<defs>
<linearGradient id="paint0_linear_1507_806" x1="1.54334" y1="13.8151" x2="8.71363" y2="18.9039" gradientUnits="userSpaceOnUse">
<stop stop-color="#D4AF7E"/>
<stop offset="1" stop-color="#957241"/>
</linearGradient>
<linearGradient id="paint1_linear_1507_806" x1="17.7438" y1="2.77651" x2="26.1222" y2="8.66831" gradientUnits="userSpaceOnUse">
<stop stop-color="#D2AE78"/>
<stop offset="0.2212" stop-color="#CBA772"/>
<stop offset="0.5388" stop-color="#B89561"/>
<stop offset="0.913" stop-color="#997746"/>
<stop offset="1" stop-color="#916F3F"/>
</linearGradient>
<linearGradient id="paint2_linear_1507_806" x1="12.7042" y1="15.8982" x2="21.2493" y2="21.8816" gradientUnits="userSpaceOnUse">
<stop stop-color="#D2AE78"/>
<stop offset="1" stop-color="#916F3F"/>
</linearGradient>
</defs>
</svg>
