<svg width="12" height="15" viewBox="0 0 12 15" fill="none" xmlns="http://www.w3.org/2000/svg">
<path d="M5.31935 1.29489L5.75099 6.10352e-05H3.20801L3.63965 1.29489H5.31935Z" fill="#F2C05F"/>
<path d="M11.6909 4.93786L10.7928 4.03973C10.7118 3.95879 10.6021 3.91333 10.4876 3.91333H7.39223C7.27777 3.91333 7.16797 3.95879 7.08702 4.03973L6.1889 4.93786C6.10796 5.0188 6.0625 5.12857 6.0625 5.24303V6.56905C6.0625 8.37781 7.12668 10.0105 8.76656 10.7456C8.87659 10.7949 9.00317 10.7949 9.1132 10.7456C10.7531 10.0104 11.8173 8.37781 11.8173 6.56905V5.24303C11.8173 5.12857 11.7718 5.0188 11.6909 4.93786ZM10.4659 6.68898L8.83818 8.31666C8.66962 8.48522 8.39636 8.48522 8.2278 8.31666L7.41395 7.50282C7.2454 7.33426 7.2454 7.061 7.41395 6.89244C7.58251 6.72388 7.85578 6.72388 8.02434 6.89244L8.53297 7.40108L9.85548 6.07857C10.024 5.91001 10.2973 5.91001 10.4659 6.07857C10.6344 6.24713 10.6344 6.52042 10.4659 6.68898Z" fill="#F2C05F"/>
<path d="M5.19982 6.56901V5.24302C5.19982 4.89715 5.33451 4.57201 5.57906 4.32743L6.47718 3.42931C6.72176 3.18476 7.04691 3.05007 7.39277 3.05007H8.94043V1.29483C8.94043 0.58086 8.35957 0 7.6456 0H6.66185L6.04088 1.86291C5.98213 2.03918 5.81722 2.15805 5.63143 2.15805H3.32951C3.14372 2.15805 2.97882 2.03918 2.92006 1.86291L2.29909 0H1.31534C0.601368 0 0.0205078 0.58086 0.0205078 1.29483V13.4374C0.0205078 14.1514 0.601368 14.7323 1.31534 14.7323H7.6456C8.35957 14.7323 8.94043 14.1514 8.94043 13.4374V11.6457C8.75766 11.6457 8.58056 11.6079 8.41398 11.5332C6.46147 10.658 5.19982 8.70939 5.19982 6.56901ZM5.34369 13.4374H3.61725C3.37889 13.4374 3.18564 13.2442 3.18564 13.0058C3.18564 12.7675 3.37889 12.5742 3.61725 12.5742H5.34369C5.58205 12.5742 5.7753 12.7675 5.7753 13.0058C5.7753 13.2442 5.58205 13.4374 5.34369 13.4374Z" fill="#F2C05F"/>
</svg>
