<svg width="55" height="55" viewBox="0 0 55 55" fill="none" xmlns="http://www.w3.org/2000/svg">
<circle cx="27.5" cy="27.5" r="27.5" fill="white"/>
<path d="M23.1643 19.8168V32.8938C22.4033 32.215 21.4006 31.8017 20.303 31.8017C17.9304 31.8017 16 33.7321 16 36.1048C16 38.4776 17.9304 40.4079 20.303 40.4079C22.6728 40.4079 24.6011 38.4824 24.606 36.1138H24.6061V25.6043L37.4056 22.3598V29.4224C36.6446 28.7436 35.6419 28.3304 34.5444 28.3304C32.1716 28.3304 30.2413 30.2607 30.2413 32.6334C30.2413 35.0062 32.1716 36.9365 34.5444 36.9365C36.9171 36.9365 38.8474 35.0061 38.8474 32.6334V15.8413L23.1643 19.8168Z" fill="#F3C060"/>
</svg>
