<svg width="55" height="55" viewBox="0 0 55 55" fill="none" xmlns="http://www.w3.org/2000/svg">
<circle cx="27.5" cy="27.5" r="27.5" fill="white"/>
<path d="M35.7558 17.7813H35.0374V35.4314C35.0374 36.604 34.0829 37.5584 32.9104 37.5584H25.6312H19.8428V38.2127C19.8428 38.9619 20.4509 39.57 21.2001 39.57H28.4767H35.7532C36.5025 39.57 37.1105 38.9619 37.1105 38.2127V19.1386C37.1106 18.3894 36.505 17.7813 35.7558 17.7813Z" fill="#F3C060"/>
<path d="M25.6313 36.7887H32.9079C33.6571 36.7887 34.2652 36.1806 34.2652 35.4314V17.7813V16.3573C34.2652 15.6081 33.6571 15 32.9079 15H25.6313H23.2118V15.449C23.2169 15.4952 23.2195 15.5439 23.2195 15.5927V18.5511V19.3105C23.2195 20.3651 22.3625 21.222 21.308 21.222H20.5485H17.5901C17.5516 21.222 17.5106 21.2195 17.4721 21.2169H17V35.4314C17 36.1806 17.6081 36.7887 18.3573 36.7887H19.8455H25.6313ZM25.9059 32.1754H21.1617C20.8076 32.1754 20.5203 31.888 20.5203 31.534C20.5203 31.1799 20.8076 30.8925 21.1617 30.8925H25.9084C26.2625 30.8925 26.5499 31.1799 26.5499 31.534C26.5499 31.888 26.2599 32.1754 25.9059 32.1754ZM30.6526 28.9015H21.1617C20.8076 28.9015 20.5203 28.6141 20.5203 28.26C20.5203 27.9059 20.8076 27.6186 21.1617 27.6186H30.6526C31.0067 27.6186 31.294 27.9059 31.294 28.26C31.294 28.6141 31.0067 28.9015 30.6526 28.9015ZM21.1617 24.1419H30.6526C31.0067 24.1419 31.294 24.4293 31.294 24.7834C31.294 25.1374 31.0067 25.4248 30.6526 25.4248H21.1617C20.8076 25.4248 20.5203 25.1374 20.5203 24.7834C20.5203 24.4293 20.8076 24.1419 21.1617 24.1419Z" fill="#F3C060"/>
<path d="M17.5902 20.4523H21.308C21.3106 20.4523 21.3157 20.4523 21.3183 20.4523C21.9392 20.4472 22.4421 19.9443 22.4472 19.3234C22.4472 19.3208 22.4472 19.3157 22.4472 19.3131V15.5927C22.4472 15.2489 22.165 15.0205 21.8725 15.0205C21.7314 15.0205 21.5903 15.0718 21.4722 15.1899L17.1848 19.4773C16.8256 19.8365 17.0796 20.4523 17.5902 20.4523Z" fill="#F3C060"/>
</svg>
