<svg width="16" height="15" viewBox="0 0 16 15" fill="none" xmlns="http://www.w3.org/2000/svg">
<rect x="0.0205078" width="14.99" height="14.99" rx="2" fill="#BF9648"/>
<path d="M3.68457 2.33179V12.6697H6.57288V2.33179H3.68457ZM5.95834 11.8576C5.95834 11.9638 5.86616 12.0549 5.75862 12.0549H4.50651C4.39897 12.0549 4.30679 11.9638 4.30679 11.8576V10.6203C4.30679 10.5141 4.39897 10.423 4.50651 10.423H5.75862C5.86616 10.423 5.95834 10.5141 5.95834 10.6203V11.8576ZM5.95834 9.39073C5.95834 9.49699 5.86616 9.58807 5.75862 9.58807H4.50651C4.39897 9.58807 4.30679 9.49699 4.30679 9.39073V8.15351C4.30679 8.04725 4.39897 7.95617 4.50651 7.95617H5.75862C5.86616 7.95617 5.95834 8.04725 5.95834 8.15351V9.39073ZM5.95834 6.92389C5.95834 7.03016 5.86616 7.12124 5.75862 7.12124H4.50651C4.39897 7.12124 4.30679 7.03016 4.30679 6.92389V5.68668C4.30679 5.58042 4.39897 5.48933 4.50651 5.48933H5.75862C5.86616 5.48933 5.95834 5.58042 5.95834 5.68668V6.92389ZM5.95834 4.45706C5.95834 4.56332 5.86616 4.65441 5.75862 4.65441H4.50651C4.39897 4.65441 4.30679 4.56332 4.30679 4.45706V3.21985C4.30679 3.11358 4.39897 3.0225 4.50651 3.0225H5.75862C5.86616 3.0225 5.95834 3.11358 5.95834 3.21985V4.45706Z" fill="white"/>
<path d="M11.1129 2.33179V6.41255C10.3311 3.07993 7.74316 2.33179 7.74316 2.33179H11.1129Z" fill="white"/>
<path d="M9.23861 10.5913C9.23861 9.43873 8.30881 8.50893 7.15625 8.50893C8.30881 8.50893 9.23861 7.57914 9.23861 6.42657C9.23861 7.57914 10.1684 8.50893 11.321 8.50893C10.1781 8.51862 9.23861 9.43873 9.23861 10.5913Z" fill="white"/>
</svg>
