<svg width="130" height="91" viewBox="0 0 130 91" fill="none" xmlns="http://www.w3.org/2000/svg">
<path d="M79.9583 3.08643H26.5357C22.6014 3.08643 19.4121 6.27575 19.4121 10.21C19.4121 14.1442 22.6014 17.3335 26.5357 17.3335H79.9583C83.8925 17.3335 87.0818 14.1442 87.0818 10.21C87.0818 6.27575 83.8925 3.08643 79.9583 3.08643Z" fill="#FFF7E7"/>
<path d="M107.443 17.332H34.1314C30.1971 17.332 27.0078 20.5214 27.0078 24.4556C27.0078 28.3898 30.1971 31.5791 34.1314 31.5791H107.443C111.377 31.5791 114.566 28.3898 114.566 24.4556C114.566 20.5214 111.377 17.332 107.443 17.332Z" fill="#FFF7E7"/>
<path d="M99.0423 59.4795H25.731C21.7967 59.4795 18.6074 62.6688 18.6074 66.603C18.6074 70.5373 21.7967 73.7266 25.731 73.7266H99.0423C102.977 73.7266 106.166 70.5373 106.166 66.603C106.166 62.6688 102.977 59.4795 99.0423 59.4795Z" fill="#FFF7E7"/>
<path d="M99.0446 31.5786H7.42042C3.4862 31.5786 0.296875 34.7679 0.296875 38.7022C0.296875 42.6364 3.4862 45.8257 7.42042 45.8257H99.0446C102.979 45.8257 106.168 42.6364 106.168 38.7022C106.168 34.7679 102.979 31.5786 99.0446 31.5786Z" fill="#FFF7E7"/>
<path d="M94.4694 73.6567H43.9146C39.9803 73.6567 36.791 76.8461 36.791 80.7803C36.791 84.7145 39.9803 87.9038 43.9146 87.9038H94.4694C98.4036 87.9038 101.593 84.7145 101.593 80.7803C101.593 76.8461 98.4036 73.6567 94.4694 73.6567Z" fill="#FFF7E7"/>
<path d="M121.944 45.2319H34.1314C30.1971 45.2319 27.0078 48.4213 27.0078 52.3555C27.0078 56.2897 30.1971 59.479 34.1314 59.479H121.944C125.878 59.479 129.067 56.2897 129.067 52.3555C129.067 48.4213 125.878 45.2319 121.944 45.2319Z" fill="#FFF7E7"/>
<path d="M92.1643 10.6142C91.6501 10.6142 91.1474 10.4617 90.7199 10.1761C90.2924 9.8904 89.9591 9.48436 89.7624 9.0093C89.5656 8.53424 89.5141 8.01151 89.6144 7.50719C89.7147 7.00287 89.9623 6.53962 90.3259 6.17603C90.6895 5.81243 91.1528 5.56482 91.6571 5.46451C92.1614 5.36419 92.6841 5.41568 93.1592 5.61245C93.6343 5.80923 94.0403 6.14246 94.326 6.57C94.6116 6.99754 94.7641 7.50019 94.7641 8.01439C94.7641 8.70391 94.4902 9.36518 94.0026 9.85275C93.5151 10.3403 92.8538 10.6142 92.1643 10.6142ZM92.1643 7.00245C91.9665 7.00245 91.7732 7.0611 91.6088 7.17097C91.4443 7.28085 91.3162 7.43701 91.2405 7.61973C91.1648 7.80244 91.145 8.0035 91.1836 8.19747C91.2221 8.39144 91.3174 8.56961 91.4572 8.70946C91.5971 8.8493 91.7752 8.94453 91.9692 8.98311C92.1632 9.0217 92.3642 9.0019 92.547 8.92621C92.7297 8.85053 92.8858 8.72237 92.9957 8.55793C93.1056 8.39349 93.1642 8.20016 93.1642 8.00239C93.1642 7.73719 93.0589 7.48285 92.8713 7.29533C92.6838 7.10781 92.4295 7.00245 92.1643 7.00245Z" fill="#FFD380"/>
<path d="M110.774 71.3022C110.259 71.3022 109.757 71.1497 109.329 70.8641C108.902 70.5784 108.569 70.1723 108.372 69.6973C108.175 69.2222 108.123 68.6995 108.224 68.1952C108.324 67.6909 108.572 67.2276 108.935 66.864C109.299 66.5004 109.762 66.2528 110.266 66.1525C110.771 66.0522 111.294 66.1037 111.769 66.3004C112.244 66.4972 112.65 66.8304 112.935 67.258C113.221 67.6855 113.373 68.1882 113.373 68.7024C113.373 69.3919 113.1 70.0532 112.612 70.5407C112.124 71.0283 111.463 71.3022 110.774 71.3022ZM110.774 67.6904C110.576 67.6904 110.383 67.7491 110.218 67.859C110.054 67.9688 109.926 68.125 109.85 68.3077C109.774 68.4904 109.754 68.6915 109.793 68.8855C109.832 69.0794 109.927 69.2576 110.067 69.3974C110.206 69.5373 110.385 69.6325 110.579 69.6711C110.773 69.7097 110.974 69.6899 111.156 69.6142C111.339 69.5385 111.495 69.4104 111.605 69.2459C111.715 69.0815 111.774 68.8882 111.774 68.6904C111.774 68.4252 111.668 68.1708 111.481 67.9833C111.293 67.7958 111.039 67.6904 110.774 67.6904Z" fill="#FFD380"/>
<path d="M45.6135 90.7231C45.0993 90.7231 44.5967 90.5706 44.1691 90.285C43.7416 89.9993 43.4083 89.5932 43.2116 89.1182C43.0148 88.6431 42.9633 88.1204 43.0636 87.6161C43.1639 87.1117 43.4116 86.6485 43.7751 86.2849C44.1387 85.9213 44.602 85.6737 45.1063 85.5734C45.6106 85.4731 46.1334 85.5246 46.6084 85.7213C47.0835 85.9181 47.4895 86.2513 47.7752 86.6789C48.0609 87.1064 48.2133 87.6091 48.2133 88.1233C48.2133 88.8128 47.9394 89.4741 47.4519 89.9616C46.9643 90.4492 46.303 90.7231 45.6135 90.7231ZM45.6135 87.1113C45.4157 87.1113 45.2224 87.17 45.058 87.2799C44.8935 87.3897 44.7654 87.5459 44.6897 87.7286C44.614 87.9113 44.5942 88.1124 44.6328 88.3064C44.6714 88.5003 44.7666 88.6785 44.9064 88.8183C45.0463 88.9582 45.2245 89.0534 45.4184 89.092C45.6124 89.1306 45.8135 89.1108 45.9962 89.0351C46.1789 88.9594 46.3351 88.8312 46.4449 88.6668C46.5548 88.5024 46.6134 88.309 46.6134 88.1113C46.6148 87.9791 46.5899 87.848 46.5402 87.7255C46.4906 87.6031 46.4171 87.4916 46.3241 87.3977C46.2311 87.3038 46.1205 87.2293 45.9985 87.1784C45.8765 87.1275 45.7457 87.1013 45.6135 87.1013V87.1113Z" fill="#BF9648"/>
<path d="M53.5979 5.35055C53.0837 5.35055 52.581 5.19807 52.1535 4.9124C51.7259 4.62673 51.3927 4.22069 51.1959 3.74563C50.9992 3.27057 50.9477 2.74783 51.048 2.24351C51.1483 1.73919 51.3959 1.27595 51.7595 0.912356C52.1231 0.548763 52.5864 0.30115 53.0907 0.200835C53.595 0.10052 54.1177 0.152006 54.5928 0.348781C55.0678 0.545556 55.4739 0.878785 55.7596 1.30633C56.0452 1.73387 56.1977 2.23652 56.1977 2.75072C56.1951 3.43942 55.9203 4.09917 55.4333 4.58617C54.9463 5.07316 54.2866 5.34792 53.5979 5.35055ZM53.5979 1.73878C53.4001 1.73878 53.2068 1.79743 53.0423 1.9073C52.8779 2.01718 52.7497 2.17334 52.6741 2.35606C52.5984 2.53877 52.5786 2.73983 52.6172 2.9338C52.6557 3.12776 52.751 3.30594 52.8908 3.44578C53.0307 3.58562 53.2088 3.68086 53.4028 3.71944C53.5968 3.75802 53.7978 3.73822 53.9805 3.66254C54.1633 3.58686 54.3194 3.45869 54.4293 3.29425C54.5392 3.12981 54.5978 2.93649 54.5978 2.73872C54.5978 2.47352 54.4925 2.21918 54.3049 2.03165C54.1174 1.84413 53.8631 1.73878 53.5979 1.73878Z" fill="#BF9648"/>
<path d="M116.902 44.4319H115.368V42.8979H113.768V44.4319H112.234V46.0318H113.768V47.5657H115.368V46.0318H116.902V44.4319Z" fill="#BF9648"/>
<path d="M22.654 8.19841H21.1201V6.6665H19.5202V8.19841H17.9863V9.79831H19.5202V11.3322H21.1201V9.79831H22.654V8.19841Z" fill="#BF9648"/>
<path d="M20.0505 53.9831H18.5166V52.4492H16.9167V53.9831H15.3828V55.583H16.9167V57.1149H18.5166V55.583H20.0505V53.9831Z" fill="#FFD380"/>
<path d="M99.089 50.4476L99.069 49.3097C98.9618 43.1102 97.1298 37.0631 93.7784 31.8465C90.427 26.6299 85.6887 22.45 80.0948 19.7754C74.5008 17.1009 68.2725 16.0375 62.1081 16.7044C55.9436 17.3713 50.0868 19.7423 45.1944 23.5513L44.4824 24.1073L52.0519 31.6788L52.6019 31.2908C56.4487 28.5929 61.0305 27.1397 65.7291 27.1271C71.6554 27.1201 77.3494 29.4315 81.5939 33.5673C85.8385 37.7031 88.2969 43.3352 88.4436 49.2597L88.4756 50.4496H75.8904L93.2453 67.8045L111.126 50.4476H99.089ZM82.938 32.6488C80.6836 30.385 78.0029 28.5904 75.0508 27.3688C72.0988 26.1471 68.9339 25.5226 65.7391 25.5312C60.9419 25.5428 56.2527 26.956 52.2479 29.597L46.9023 24.2653C52.3662 20.2701 58.9583 18.1145 65.7271 18.1097C74.0621 18.0956 82.0674 21.3647 88.0101 27.2092C93.9527 33.0538 97.3545 41.0036 97.4791 49.3377L97.4971 50.4496H90.0795L90.0475 49.2177C89.8948 42.9875 87.3488 37.0554 82.938 32.6528V32.6488ZM79.7522 52.0475H107.182L93.2633 65.5587L79.7522 52.0475Z" fill="#F2C05F"/>
<path d="M78.7587 66.9605C74.9125 69.6581 70.3314 71.1114 65.6335 71.1242C59.7068 71.1318 54.0123 68.8206 49.7674 64.6847C45.5224 60.5488 43.0637 54.9165 42.9169 48.9916L42.8849 47.8017H55.4801L38.1152 30.4468L20.2344 47.8037H32.2816L32.3016 48.9436C32.4083 55.1431 34.24 61.1902 37.5911 66.407C40.9423 71.6237 45.6804 75.8037 51.2743 78.4784C56.8681 81.153 63.0965 82.2164 69.2609 81.5494C75.4253 80.8823 81.282 78.5112 86.1742 74.702L86.8782 74.144L79.3086 66.5725L78.7587 66.9605ZM24.1781 46.2038L38.0972 32.6926L51.6084 46.2018H24.1781V46.2038ZM65.6355 80.1416C57.3042 80.1531 49.3033 76.8845 43.3631 71.0428C37.423 65.2011 34.0212 57.2559 33.8935 48.9256L33.8755 47.8117H41.275L41.307 49.0436C41.4679 55.3853 44.1026 61.4125 48.6482 65.8375C53.1938 70.2624 59.2898 72.734 65.6335 72.7241C70.43 72.7122 75.1185 71.299 79.1226 68.6584L84.4583 73.994C78.994 77.9861 72.4027 80.1388 65.6355 80.1416Z" fill="#F2C05F"/>
<path d="M82.9381 32.653C80.6836 30.3892 78.003 28.5947 75.0509 27.373C72.0989 26.1513 68.934 25.5268 65.7392 25.5354C60.942 25.5471 56.2528 26.9602 52.248 29.6012L46.9023 24.2655C52.3663 20.2703 58.9584 18.1147 65.7272 18.1099C74.0622 18.0958 82.0675 21.3649 88.0101 27.2094C93.9527 33.054 97.3545 41.0038 97.4791 49.3379L97.4971 50.4499H90.0796L90.0476 49.2179C89.8949 42.9878 87.3488 37.0557 82.9381 32.653Z" fill="#FFE2A9"/>
<path d="M65.6369 80.142C57.3057 80.1535 49.3047 76.8849 43.3646 71.0432C37.4245 65.2015 34.0227 57.2563 33.895 48.9259L33.877 47.812H41.2765L41.3085 49.0439C41.4693 55.3856 44.104 61.4129 48.6496 65.8378C53.1953 70.2627 59.2912 72.7343 65.6349 72.7244C70.4314 72.7125 75.1199 71.2994 79.1241 68.6587L84.4598 73.9944C78.9955 77.9864 72.4041 80.1392 65.6369 80.142Z" fill="#FFE2A9"/>
<path d="M79.752 52.0498H90.1193H98.3008H107.182L93.2631 65.5609L79.752 52.0498Z" fill="#FFE2A9"/>
<path d="M24.1836 46.204L38.1027 32.6929L51.6119 46.204H41.2465H33.065H24.1836Z" fill="#FFE2A9"/>
</svg>
