<svg width="22" height="20" viewBox="0 0 22 20" fill="none" xmlns="http://www.w3.org/2000/svg">
<path d="M12.268 12.8169H9.73464C8.6013 12.8169 7.66797 13.7502 7.66797 14.8836V19.0669C7.66797 19.3002 7.8513 19.4836 8.08464 19.4836H13.918C14.1513 19.4836 14.3346 19.3002 14.3346 19.0669V14.8836C14.3346 13.7502 13.418 12.8169 12.268 12.8169Z" fill="#F0AB00"/>
<path d="M11.018 12.8169H9.73464C8.6013 12.8169 7.66797 13.7502 7.66797 14.8836V19.0669C7.66797 19.3002 7.8513 19.4836 8.08464 19.4836H11.018V12.8169Z" fill="#F5C12E"/>
<path d="M11.0029 7.3335C9.6362 7.3335 8.51953 8.45016 8.51953 9.81683C8.51953 11.1835 9.6362 12.3168 11.0029 12.3168C12.3695 12.3168 13.4862 11.2002 13.4862 9.8335C13.4862 8.46683 12.3862 7.3335 11.0029 7.3335Z" fill="#F0AB00"/>
<path d="M11.0029 7.3335C9.6362 7.3335 8.51953 8.45016 8.51953 9.81683C8.51953 11.1835 9.6362 12.3168 11.0029 12.3168V7.3335Z" fill="#F5C12E"/>
<path d="M5.48359 15.417H4.43359C3.60026 15.417 2.93359 16.1003 2.93359 16.917V18.5837C2.93359 19.0837 3.35026 19.4837 3.83359 19.4837H6.10026C6.60026 19.4837 7.00026 19.0837 7.00026 18.5837V16.917C6.98359 16.1003 6.31693 15.417 5.48359 15.417Z" fill="#F0AB00"/>
<path d="M4.9513 15.417H4.41797C3.58464 15.417 2.91797 16.1003 2.91797 16.917V18.5837C2.91797 19.0837 3.33464 19.4837 3.81797 19.4837H4.9513V15.417Z" fill="#F5C12E"/>
<path d="M4.95156 12.3335C4.20156 12.3335 3.60156 12.9335 3.60156 13.6835C3.60156 14.4335 4.20156 15.0335 4.95156 15.0335C5.70156 15.0335 6.30156 14.4335 6.30156 13.6835C6.30156 12.9502 5.70156 12.3335 4.95156 12.3335Z" fill="#F0AB00"/>
<path d="M4.95156 12.3335C4.20156 12.3335 3.60156 12.9335 3.60156 13.6835C3.60156 14.4335 4.20156 15.0335 4.95156 15.0335V12.3335Z" fill="#F5C12E"/>
<path d="M17.5852 15.417H16.5352C15.7018 15.417 15.0352 16.1003 15.0352 16.917V18.5837C15.0352 19.0837 15.4518 19.4837 15.9352 19.4837H18.2018C18.7018 19.4837 19.1018 19.0837 19.1018 18.5837V16.917C19.1018 16.1003 18.4185 15.417 17.5852 15.417Z" fill="#F0AB00"/>
<path d="M17.0685 15.417H16.5352C15.7018 15.417 15.0352 16.1003 15.0352 16.917V18.5837C15.0352 19.0837 15.4518 19.4837 15.9352 19.4837H17.0685V15.417Z" fill="#F5C12E"/>
<path d="M17.0687 12.3335C16.3187 12.3335 15.7188 12.9335 15.7188 13.6835C15.7188 14.4335 16.3187 15.0335 17.0687 15.0335C17.8187 15.0335 18.4187 14.4335 18.4187 13.6835C18.4187 12.9502 17.8021 12.3335 17.0687 12.3335Z" fill="#F0AB00"/>
<path d="M17.0687 12.3335C16.3187 12.3335 15.7188 12.9335 15.7188 13.6835C15.7188 14.4335 16.3187 15.0335 17.0687 15.0335V12.3335Z" fill="#F5C12E"/>
<path fill-rule="evenodd" clip-rule="evenodd" d="M20.7 9.03333H19.2333C19.0167 8.16667 18.6833 7.33333 18.2167 6.56667L19.2667 5.51667C19.5167 5.26667 19.65 4.93333 19.65 4.58333C19.65 4.23333 19.5167 3.9 19.2667 3.65L18.3333 2.71667C18.0833 2.46667 17.75 2.33333 17.4167 2.33333C17.0667 2.33333 16.7333 2.46667 16.4833 2.71667L15.4333 3.76667C14.6667 3.33333 13.8333 2.98333 12.9667 2.78333V1.31667C12.9667 0.583333 12.3833 0 11.6667 0H10.35C9.63333 0 9.03333 0.583333 9.03333 1.31667V2.78333C8.16667 2.98333 7.35 3.33333 6.58333 3.8L5.53333 2.75C5.28333 2.5 4.95 2.36667 4.6 2.36667C4.25 2.36667 3.91667 2.5 3.68333 2.75L2.75 3.68333C2.23333 4.2 2.23333 5.03333 2.75 5.53333L3.8 6.58333C3.33333 7.35 2.98333 8.16667 2.78333 9.05H1.3C0.583333 9.05 0 9.63333 0 10.3667V11.6667C0 12.3833 0.583333 12.9833 1.3 12.9833H2.83333C2.85 12.8167 2.88333 12.65 2.95 12.5C2.95 12.4833 2.96667 12.4667 2.96667 12.45V12.4333C2.98333 12.4167 2.98333 12.3833 3 12.3667C3.01667 12.3333 3.03333 12.3167 3.03333 12.2833C3.05 12.2667 3.05 12.2333 3.06667 12.2167C3.1 12.1667 3.13333 12.1 3.16667 12.05C3.18333 12.0333 3.18333 12.0167 3.2 12C3.25 11.95 3.28333 11.9 3.33333 11.85C3.35 11.8333 3.36667 11.8167 3.38333 11.8C3.43333 11.75 3.48333 11.7167 3.53333 11.6833C3.55 11.6667 3.58333 11.65 3.6 11.6333C3.63333 11.6167 3.65 11.6 3.68333 11.5833C3.71667 11.5667 3.75 11.5333 3.8 11.5167C3.83333 11.5 3.86667 11.4833 3.91667 11.4667C3.93333 11.45 3.95 11.45 3.98333 11.45C4.01667 11.4333 4.05 11.4167 4.08333 11.4167C4.11667 11.4 4.16667 11.4 4.2 11.3833C4.23333 11.3833 4.26667 11.3667 4.3 11.3667C4.35 11.3667 4.4 11.35 4.45 11.35C4.46667 11.35 4.5 11.35 4.51667 11.35C4.55 11.35 4.6 11.35 4.63333 11.35C4.66667 11.35 4.71667 11.35 4.75 11.35C4.76667 11.35 4.8 11.35 4.81667 11.35C4.85 11.35 4.88333 11.35 4.9 11.3667C4.91667 11.3667 4.95 11.3667 4.96667 11.3833C4.98333 11.3833 5 11.3833 5.01667 11.4C5.05 11.4 5.06667 11.4167 5.1 11.4167C5.15 11.4333 5.2 11.45 5.25 11.4667C5.25 11.4333 5.25 11.4 5.25 11.3833C5.25 11.2667 5.23333 11.15 5.23333 11.05C5.25 7.83333 7.83333 5.25 11 5.25C14.1667 5.25 16.7667 7.83333 16.7667 11C16.7667 11.15 16.7667 11.2833 16.75 11.4333C16.8 11.4167 16.85 11.4 16.9 11.3833C16.9167 11.3833 16.95 11.3667 16.9667 11.3667C16.9833 11.3667 17 11.35 17.0333 11.35C17.0833 11.3333 17.1333 11.3333 17.1833 11.3333C17.2 11.3333 17.2333 11.3333 17.25 11.3333C17.2833 11.3333 17.3333 11.3333 17.3667 11.3333C17.4 11.3333 17.45 11.3333 17.4833 11.3333C17.5 11.3333 17.5333 11.3333 17.55 11.3333C17.6 11.3333 17.65 11.35 17.6833 11.35C17.7167 11.35 17.75 11.3667 17.7833 11.3667C17.8167 11.3833 17.8667 11.3833 17.9 11.4L18 11.4333C18.0167 11.4333 18.05 11.45 18.0667 11.45L18.1833 11.5C18.2167 11.5167 18.25 11.5333 18.3 11.5667L18.3833 11.6167C18.4 11.6167 18.4 11.6333 18.4167 11.6333C18.4333 11.6333 18.45 11.65 18.45 11.6667C18.5 11.7 18.55 11.7333 18.5833 11.7833C18.6 11.8 18.6333 11.8167 18.65 11.85C18.7 11.8833 18.7333 11.9333 18.7667 11.9833C18.7833 12 18.8 12.0333 18.8167 12.05C18.8333 12.0667 18.85 12.1 18.8667 12.1167C18.8833 12.1333 18.9 12.1667 18.9167 12.1833C18.9333 12.2 18.95 12.2333 18.9667 12.25C18.9833 12.2833 19 12.3 19 12.3333C19.0167 12.35 19.0167 12.3833 19.0333 12.4C19.0333 12.4 19.0333 12.4167 19.05 12.4167C19.05 12.4333 19.0667 12.45 19.0667 12.4667C19.1167 12.6167 19.1667 12.7833 19.1667 12.95H20.7C21.4167 12.95 22 12.3667 22 11.6333V10.3167C22 9.63333 21.4167 9.03333 20.7 9.03333ZM15.6333 4.28333L16.8167 3.1C16.9667 2.95 17.1833 2.85 17.4 2.85L15.6333 4.28333Z" fill="#F0AB00"/>
</svg>
