<svg width="22" height="19" viewBox="0 0 22 19" fill="none" xmlns="http://www.w3.org/2000/svg">
<path d="M22 11.0717H19.1688C18.969 7.24122 15.9213 4.0603 11.9909 3.81049C7.76079 3.52737 4.0969 6.7416 3.81378 10.9717L4.79637 11.0383L2.18168 14.186L0 10.7219L0.982589 10.7885C1.36563 4.99293 6.3785 0.596256 12.1741 0.9793C17.6033 1.34569 21.8002 5.75901 22 11.0717Z" fill="#F0AB00"/>
<path d="M21.9979 11.0717H19.1667C18.9668 7.24122 15.9192 4.0603 11.9888 3.81049C7.75867 3.52737 4.09478 6.7416 3.81166 10.9717L0.980469 10.7885C1.36351 4.99293 6.37638 0.596256 12.172 0.9793C17.6012 1.34569 21.798 5.75901 21.9979 11.0717Z" fill="#F5C12E"/>
<path d="M6.97427 14.6685H5.8751C5.00909 14.6685 4.29297 15.3679 4.29297 16.2506V17.9826C4.29297 18.4989 4.72597 18.9319 5.24225 18.9319H7.60712C8.1234 18.9319 8.55641 18.4989 8.55641 17.9826V16.2506C8.53975 15.3846 7.84028 14.6685 6.97427 14.6685Z" fill="#F0AB00"/>
<path d="M6.42469 14.6685H5.8751C5.00909 14.6685 4.29297 15.3679 4.29297 16.2506V17.9826C4.29297 18.4989 4.72597 18.9319 5.24225 18.9319H6.42469V14.6685Z" fill="#F5C12E"/>
<path d="M6.42731 11.4546C5.64457 11.4546 5.01172 12.0874 5.01172 12.8702C5.01172 13.6529 5.64457 14.2858 6.42731 14.2858C7.21005 14.2858 7.84291 13.6529 7.84291 12.8702C7.84291 12.0874 7.21005 11.4546 6.42731 11.4546Z" fill="#F0AB00"/>
<path d="M6.42731 11.4546C5.64457 11.4546 5.01172 12.0874 5.01172 12.8702C5.01172 13.6529 5.64457 14.2858 6.42731 14.2858V11.4546Z" fill="#F5C12E"/>
<path d="M17.1969 14.6685H16.0978C15.2317 14.6685 14.5156 15.3679 14.5156 16.2506V17.9826C14.5156 18.4989 14.9486 18.9319 15.4649 18.9319H17.8298C18.3461 18.9319 18.7791 18.4989 18.7791 17.9826V16.2506C18.7791 15.3846 18.0629 14.6685 17.1969 14.6685Z" fill="#F0AB00"/>
<path d="M16.6473 14.6685H16.0978C15.2317 14.6685 14.5156 15.3679 14.5156 16.2506V17.9826C14.5156 18.4989 14.9486 18.9319 15.4649 18.9319H16.6473V14.6685Z" fill="#F5C12E"/>
<path d="M16.65 11.4546C15.8672 11.4546 15.2344 12.0874 15.2344 12.8702C15.2344 13.6529 15.8672 14.2858 16.65 14.2858C17.4327 14.2858 18.0656 13.6529 18.0656 12.8702C18.0656 12.0874 17.4327 11.4546 16.65 11.4546Z" fill="#F0AB00"/>
<path d="M16.65 11.4546C15.8672 11.4546 15.2344 12.0874 15.2344 12.8702C15.2344 13.6529 15.8672 14.2858 16.65 14.2858V11.4546Z" fill="#F5C12E"/>
<path d="M12.8482 11.9536H10.2002C9.00109 11.9536 8.03516 12.9195 8.03516 14.1186V18.4987C8.03516 18.7318 8.235 18.9317 8.46816 18.9317H14.5802C14.8134 18.9317 15.0132 18.7318 15.0132 18.4987V14.1186C15.0132 12.9195 14.0473 11.9536 12.8482 11.9536Z" fill="#F0AB00"/>
<path d="M11.5559 11.9536H10.2236C9.02453 11.9536 8.05859 12.9195 8.05859 14.1186V18.4987C8.05859 18.7318 8.25844 18.9317 8.4916 18.9317H11.5559V11.9536Z" fill="#F5C12E"/>
<path d="M11.5355 6.2085C10.1033 6.2085 8.9375 7.37428 8.9375 8.80653C8.9375 10.2388 10.1033 11.4046 11.5355 11.4046C12.9678 11.4046 14.1336 10.2388 14.1336 8.80653C14.1336 7.37428 12.9678 6.2085 11.5355 6.2085Z" fill="#F0AB00"/>
<path d="M11.5355 6.2085C10.1033 6.2085 8.9375 7.37428 8.9375 8.80653C8.9375 10.2388 10.1033 11.4046 11.5355 11.4046V6.2085Z" fill="#F5C12E"/>
</svg>
