<svg width="21" height="27" viewBox="0 0 21 27" fill="none" xmlns="http://www.w3.org/2000/svg">
<path fill-rule="evenodd" clip-rule="evenodd" d="M5.95898 14.9431C6.66521 14.7077 7.15956 14.5194 7.63038 14.4017L5.72357 8.86963C5.2763 9.05795 4.78194 9.1992 4.09926 9.41107C3.72261 9.52877 3.29888 9.67001 2.78098 9.8348C1.83935 10.1644 1.20375 11.106 1.53332 12.0947L2.26308 14.3075C2.6162 15.2727 3.62845 15.72 4.59362 15.414C5.06443 15.2492 5.51171 15.0844 5.95898 14.9431Z" fill="#F5C12E"/>
<path fill-rule="evenodd" clip-rule="evenodd" d="M5.88672 15.6264L6.66356 17.0389L8.52328 16.0737L7.91122 14.9673C7.41687 15.085 6.89897 15.2498 6.16921 15.5087C6.09859 15.5793 6.00442 15.6029 5.88672 15.6264Z" fill="#F0AB00"/>
<path fill-rule="evenodd" clip-rule="evenodd" d="M6.12426 17.3445L5.30033 15.8379C4.82952 16.0027 4.52349 15.9791 4.26454 16.4264C4.17038 16.5912 4.09975 16.7795 4.02913 16.9678C3.79373 17.8859 3.46415 18.498 3.22875 18.9688C2.94626 19.5102 2.75793 19.8634 2.9698 20.2636C3.69956 21.676 4.45287 23.112 5.18263 24.548C5.46512 25.0423 6.1478 25.0423 6.59507 24.8069L11.8447 22.0997C12.033 22.0056 12.1507 21.8172 12.1272 21.6054C12.1036 21.4406 12.033 21.2993 11.9153 21.1816C11.774 21.0639 11.5622 21.0169 11.3503 21.1346L10.856 21.417C10.6912 21.4877 10.5028 21.4406 10.4322 21.2758C10.3616 21.111 10.4087 20.9227 10.5735 20.8521L11.7976 20.2165C12.033 20.0988 12.1036 19.9104 12.0801 19.7221C12.0565 19.5338 11.9859 19.3925 11.8682 19.2984C11.727 19.1807 11.5151 19.1336 11.3032 19.2513L10.3851 19.7221C10.2204 19.8163 10.032 19.7457 9.9614 19.5809C9.86724 19.4161 9.93786 19.2278 10.1026 19.1571L11.5151 18.4274C11.7505 18.3097 11.8211 18.1213 11.7976 17.933C11.774 17.7682 11.7034 17.627 11.5857 17.5328C11.4445 17.4151 11.2326 17.368 10.9972 17.4857L9.86724 18.0743C9.70245 18.1449 9.51413 18.0978 9.44351 17.933C9.37288 17.7682 9.41997 17.5799 9.58475 17.5093L10.7147 16.9208C10.9501 16.8031 11.0207 16.6147 10.9972 16.4264C10.9737 16.2616 10.903 16.1204 10.7853 16.0027C10.6441 15.885 10.4322 15.8379 10.2204 15.9556L6.24196 18.0272C6.07718 18.1213 5.88885 18.0507 5.81823 17.9095C5.72407 17.7447 5.79469 17.5564 5.93593 17.4857L6.12426 17.3445Z" fill="#F0AB00"/>
<path fill-rule="evenodd" clip-rule="evenodd" d="M2.41039 20.5682C2.36331 20.4741 2.31623 20.4741 2.22207 20.5212L0.0563167 21.6511C0.00923515 21.6747 -0.0143056 21.7453 0.00923515 21.8159L2.50455 26.6182C2.5281 26.6653 2.59872 26.6888 2.66934 26.6653L4.88217 25.5118C4.92925 25.4883 4.95279 25.4176 4.92925 25.347L2.41039 20.5682Z" fill="#F5C12E"/>
<path fill-rule="evenodd" clip-rule="evenodd" d="M6.30859 8.58937L8.26248 14.2862C8.99224 14.1921 9.83971 14.2156 11.3934 14.3333L17.9848 14.8748L13.8887 2.35107L8.92162 6.65903C8.26248 7.27109 7.10898 8.16564 6.30859 8.58937Z" fill="#F5C12E"/>
<path fill-rule="evenodd" clip-rule="evenodd" d="M19.8321 9.7164C19.9262 9.66932 20.0439 9.64578 20.1852 9.5987C20.4206 9.52807 20.7266 8.98664 20.8914 8.25687C21.0326 7.6919 21.0562 7.00921 20.8443 6.35007C20.6325 5.69093 20.2087 5.17304 19.7614 4.79638C19.1965 4.32557 18.6315 4.06662 18.3961 4.16078C18.2548 4.20786 18.1371 4.25495 18.043 4.27849L19.8321 9.7164Z" fill="#F0AB00"/>
<path fill-rule="evenodd" clip-rule="evenodd" d="M15.6868 0.111097C15.1689 -0.147852 14.5568 0.0640153 14.2978 0.558371C14.1801 0.793778 14.1566 1.07627 14.2272 1.33522C15.7574 6.04337 17.3111 10.728 18.8412 15.4361C18.9354 15.6951 19.1002 15.9069 19.3591 16.0246C19.877 16.2836 20.4891 16.0717 20.748 15.5774C20.8657 15.342 20.8893 15.0595 20.8186 14.8005L16.2046 0.699615C16.1105 0.440667 15.9457 0.2288 15.6868 0.111097Z" fill="#F0AB00"/>
</svg>
