<svg width="22" height="21" viewBox="0 0 22 21" fill="none" xmlns="http://www.w3.org/2000/svg">
<path d="M21.4186 11.4111H13.7976C13.4725 11.4111 13.1836 11.7114 13.1836 12.0493C13.1836 12.2369 13.2558 12.3871 13.3642 12.4997L18.7458 18.0927C18.8542 18.2053 18.9986 18.2804 19.1792 18.2804C19.3959 18.2804 19.5765 18.1677 19.6849 18.0176C21.0213 16.4411 21.852 14.4141 21.9965 12.1619C21.9965 12.1243 21.9965 12.0868 21.9965 12.0493C22.0326 11.6739 21.7436 11.4111 21.4186 11.4111Z" fill="#F5C12E"/>
<path d="M11.4851 0C11.16 0 10.8711 0.300294 10.8711 0.638124V9.45926C10.8711 9.79709 11.1239 10.0974 11.4851 10.0974H19.9729C20.298 10.0974 20.5869 9.79709 20.5869 9.45926C20.2619 4.3918 16.3611 0.300294 11.4851 0Z" fill="#DD9900"/>
<path d="M16.1449 17.5674L9.89642 11.036C9.78807 10.9234 9.71583 10.7733 9.71583 10.5856V1.3891C9.71583 1.05127 9.463 0.750977 9.10182 0.750977C4.00913 1.12634 0 5.51814 0 10.8859C0 16.4789 4.3342 20.9833 9.71583 20.9833C12.1719 20.9833 14.4112 20.0449 16.1088 18.5058C16.2532 18.3932 16.3255 18.2056 16.3255 18.0179C16.3255 17.8302 16.2532 17.68 16.1449 17.5674Z" fill="#F0AB00"/>
</svg>
