<svg width="28" height="28" viewBox="0 0 28 28" fill="none" xmlns="http://www.w3.org/2000/svg">
<circle cx="13.8503" cy="14.0467" r="13.2057" fill="#F5F5F5"/>
<path d="M10.3254 11.9761L8.44482 10.0746L10.3254 8.17311M8.70602 10.0746H14.1493" stroke="black" stroke-width="0.75" stroke-linecap="round" stroke-linejoin="round"/>
<path d="M18.2233 14.8342L16.3003 16.7834L15.5076 15.9799C15.3212 15.791 15.0187 15.791 14.8323 15.9801C14.6457 16.169 14.6457 16.4756 14.8323 16.6647L15.9627 17.8103C16.0559 17.9049 16.1781 17.9521 16.3004 17.9521C16.4226 17.9521 16.5448 17.9049 16.638 17.8103L18.8987 15.5188C19.0852 15.3298 19.0852 15.0233 18.8987 14.8343C18.7122 14.6452 18.4098 14.6452 18.2233 14.8342Z" fill="black"/>
<path d="M20.4597 11.9438H17.3703V8.11031C17.3703 6.94675 16.4235 6 15.2598 6H8.11019C6.94663 6 6 6.94675 6 8.11031V12.8909C6 13.8874 6.69455 14.7243 7.62474 14.9441V16.1407C7.62474 16.337 7.74307 16.514 7.92448 16.5892C7.98453 16.6141 8.04761 16.6262 8.11019 16.6262C8.23648 16.6262 8.36062 16.5769 8.45354 16.4839L9.93631 15.0013H11.1999V18.8347C11.1999 19.9984 12.1465 20.945 13.3101 20.945H18.6337L20.1163 22.4278C20.2093 22.5207 20.3334 22.57 20.4598 22.57C20.5223 22.57 20.5853 22.558 20.6454 22.5331C20.8268 22.4579 20.9451 22.2809 20.9451 22.0846V20.8888C21.8756 20.6689 22.57 19.8314 22.57 18.8347V14.0542C22.57 12.8905 21.6232 11.9438 20.4597 11.9438ZM9.73518 14.0304C9.60636 14.0304 9.48285 14.0815 9.39195 14.1725L8.59564 14.9687V14.5158C8.59564 14.2477 8.37832 14.0304 8.11019 14.0304C7.48201 14.0304 6.9709 13.5192 6.9709 12.8909V8.11031C6.9709 7.48201 7.48201 6.9709 8.11019 6.9709H15.2598C15.8881 6.9709 16.3994 7.48201 16.3994 8.11031V11.9438H13.3101C12.1545 11.9438 11.2133 12.8777 11.2004 14.0304H9.73518ZM21.5991 18.8347C21.5991 19.463 21.088 19.9741 20.4597 19.9741C20.1916 19.9741 19.9742 20.1916 19.9742 20.4596V20.9125L19.1781 20.1163C19.087 20.0252 18.9635 19.9741 18.8347 19.9741H13.3101C12.6819 19.9741 12.1708 19.463 12.1708 18.8347V14.0542C12.1708 13.4259 12.6819 12.9147 13.3101 12.9147H20.4597C21.088 12.9147 21.5991 13.4259 21.5991 14.0542V18.8347Z" fill="black"/>
</svg>
