<svg width="26" height="30" viewBox="0 0 26 30" fill="none" xmlns="http://www.w3.org/2000/svg">
<path fill-rule="evenodd" clip-rule="evenodd" d="M12.8536 29.9996C10.4633 29.9996 8.48871 28.025 8.48871 25.6347C8.48871 25.3922 8.41942 24.9419 8.83513 24.9419C9.04298 24.9419 9.11226 25.0458 9.18155 25.1497H16.5603C16.5949 25.0112 16.6989 24.9419 16.8721 24.9419C17.2878 24.9419 17.2185 25.3922 17.2185 25.6347C17.2185 28.025 15.2439 29.9996 12.8536 29.9996Z" fill="#F0AB00"/>
<path fill-rule="evenodd" clip-rule="evenodd" d="M11.2903 4.39954C10.8053 4.39954 10.3203 3.25635 10.3203 2.52887C10.3203 1.14319 11.4635 0 12.8492 0C15.0663 0 16.2095 2.70208 14.6852 4.29561C14.4774 4.50346 14.2002 4.39954 14.1309 4.19169H11.6021C11.5328 4.29561 11.4289 4.39954 11.2903 4.39954Z" fill="#F0AB00"/>
<path fill-rule="evenodd" clip-rule="evenodd" d="M23.3839 23.2794H2.32156C2.00978 23.2794 1.83657 22.8637 2.07907 22.6558C5.6472 19.3995 3.70724 16.8013 3.9151 12.6789C4.12295 8.9376 5.88969 5.92374 8.83427 4.46878C11.6749 3.04845 15.1738 3.25631 17.7719 5.02305C17.9798 5.16162 17.9451 5.40411 17.8412 5.54268L21.4093 12.6097C21.5825 12.575 21.7904 12.7136 21.825 12.9561C21.929 16.9053 20.1276 19.4688 23.6264 22.6558C23.8689 22.8983 23.6957 23.2794 23.3839 23.2794Z" fill="#F5C12E"/>
<path fill-rule="evenodd" clip-rule="evenodd" d="M17.2859 4.71094C17.5976 4.88415 18.1866 5.16128 17.8401 5.54235L21.4083 12.6093C21.8933 12.54 21.824 13.1636 21.824 13.5447C18.6023 14.4107 15.4152 11.9858 15.4152 8.62549C15.3806 7.0666 16.1427 5.64627 17.2859 4.71094Z" fill="#FFB800"/>
<path fill-rule="evenodd" clip-rule="evenodd" d="M4.12109 19.4341C4.19038 19.1916 4.22502 18.9837 4.22502 18.7412H21.4768C21.5114 18.9837 21.546 19.2262 21.5807 19.4341H4.12109Z" fill="#F0AB00"/>
<path fill-rule="evenodd" clip-rule="evenodd" d="M6.23758 13.1988C6.02972 13.1988 5.85651 13.0256 5.89115 12.8178C6.09901 8.45287 8.90501 5.5083 12.8542 5.5083C13.3392 5.5083 13.3392 6.20114 12.8542 6.20114C8.76644 6.23578 6.75721 9.56142 6.584 12.8524C6.584 13.0256 6.41079 13.1988 6.23758 13.1988Z" fill="white"/>
<path fill-rule="evenodd" clip-rule="evenodd" d="M24.6651 25.6349H1.03926C0.450346 25.6349 0 25.15 0 24.5957V23.6604C0 23.0714 0.484988 22.6211 1.03926 22.6211H24.6305C25.2194 22.6211 25.6697 23.1061 25.6697 23.6604V24.5957C25.7044 25.1846 25.254 25.6349 24.6651 25.6349Z" fill="#F0AB00"/>
<path fill-rule="evenodd" clip-rule="evenodd" d="M20.472 13.4411C17.8392 13.4411 15.6914 11.2933 15.6914 8.66048C15.6914 6.02769 17.8392 3.87988 20.472 3.87988C23.1048 3.87988 25.2526 6.02769 25.2526 8.66048C25.2526 11.2933 23.1048 13.4411 20.472 13.4411Z" fill="#DD9900"/>
<path fill-rule="evenodd" clip-rule="evenodd" d="M20.6788 11.2929C20.4709 11.2929 20.3324 11.1197 20.3324 10.9465V7.13585L19.2585 8.07119C18.912 8.34832 18.4617 7.82869 18.8081 7.51691L20.4709 6.09659C20.7134 5.88874 21.0598 6.06195 21.0598 6.37373V10.9118C21.0252 11.1543 20.8866 11.2929 20.6788 11.2929Z" fill="white"/>
</svg>
