<svg width="64" height="66" viewBox="0 0 64 66" fill="none" xmlns="http://www.w3.org/2000/svg">
<ellipse cx="31.9836" cy="32.5167" rx="31.9836" ry="32.5167" fill="#F2C05F" fill-opacity="0.15"/>
<path fill-rule="evenodd" clip-rule="evenodd" d="M33.6985 36.9594L33.5234 43.4638C33.9785 43.8252 34.5386 44.042 35.1336 44.042H39.9642L44.2348 47.4749C44.2698 47.511 44.3398 47.511 44.3748 47.4749C44.4098 47.4388 44.4448 47.4026 44.4448 47.3665L44.1648 44.042H44.4098C45.81 44.042 47.0001 42.8495 47.0001 41.368V34.5022C47.0001 33.0567 45.845 31.8281 44.4098 31.8281H41.5044L33.6985 36.9594Z" fill="#F0AB00"/>
<path fill-rule="evenodd" clip-rule="evenodd" d="M37.8998 22.6858C42.6954 27.6364 42.6954 35.6224 37.8998 40.573C33.9443 44.6563 27.9586 45.3791 23.268 42.6689L20.9927 43.2832L18.4374 44.0059C18.4024 44.0059 18.3324 44.0059 18.3324 43.9698C18.2974 43.9336 18.2974 43.8975 18.2974 43.8614L18.9975 41.2235L19.4875 39.2721C15.8471 34.3215 16.1971 27.2028 20.5727 22.6858C25.3683 17.7714 33.1392 17.7714 37.8998 22.6858Z" fill="#F5C12E"/>
<path fill-rule="evenodd" clip-rule="evenodd" d="M22.0441 33.2732C22.8842 33.2732 23.5843 32.5505 23.5843 31.6832C23.5843 30.816 22.8842 30.0933 22.0441 30.0933C21.204 30.0933 20.5039 30.816 20.5039 31.6832C20.5039 32.5505 21.204 33.2732 22.0441 33.2732Z" fill="white"/>
<path fill-rule="evenodd" clip-rule="evenodd" d="M29.2511 33.2732C30.0912 33.2732 30.7913 32.5505 30.7913 31.6832C30.7913 30.816 30.0912 30.0933 29.2511 30.0933C28.411 30.0933 27.7109 30.816 27.7109 31.6832C27.7109 32.5505 28.411 33.2732 29.2511 33.2732Z" fill="white"/>
<path fill-rule="evenodd" clip-rule="evenodd" d="M36.4308 33.2732C37.2709 33.2732 37.971 32.5505 37.971 31.6832C37.971 30.816 37.2709 30.0933 36.4308 30.0933C35.5907 30.0933 34.8906 30.816 34.8906 31.6832C34.8906 32.5505 35.5907 33.2732 36.4308 33.2732Z" fill="white"/>
<path fill-rule="evenodd" clip-rule="evenodd" d="M33.6985 36.9594L33.5234 43.4638C33.9785 43.8252 34.5386 44.042 35.1336 44.042H39.9642L44.2348 47.4749C44.2698 47.511 44.3398 47.511 44.3748 47.4749C44.4098 47.4388 44.4448 47.4026 44.4448 47.3665L44.1648 44.042H44.4098C45.81 44.042 47.0001 42.8495 47.0001 41.368V34.5022C47.0001 33.0567 45.845 31.8281 44.4098 31.8281H41.5044L33.6985 36.9594Z" fill="#F0AB00"/>
<path fill-rule="evenodd" clip-rule="evenodd" d="M37.8998 22.6858C42.6954 27.6364 42.6954 35.6224 37.8998 40.573C33.9443 44.6563 27.9586 45.3791 23.268 42.6689L20.9927 43.2832L18.4374 44.0059C18.4024 44.0059 18.3324 44.0059 18.3324 43.9698C18.2974 43.9336 18.2974 43.8975 18.2974 43.8614L18.9975 41.2235L19.4875 39.2721C15.8471 34.3215 16.1971 27.2028 20.5727 22.6858C25.3683 17.7714 33.1392 17.7714 37.8998 22.6858Z" fill="#F5C12E"/>
<path fill-rule="evenodd" clip-rule="evenodd" d="M22.0441 33.2732C22.8842 33.2732 23.5843 32.5505 23.5843 31.6832C23.5843 30.816 22.8842 30.0933 22.0441 30.0933C21.204 30.0933 20.5039 30.816 20.5039 31.6832C20.5039 32.5505 21.204 33.2732 22.0441 33.2732Z" fill="white"/>
<path fill-rule="evenodd" clip-rule="evenodd" d="M29.2511 33.2732C30.0912 33.2732 30.7913 32.5505 30.7913 31.6832C30.7913 30.816 30.0912 30.0933 29.2511 30.0933C28.411 30.0933 27.7109 30.816 27.7109 31.6832C27.7109 32.5505 28.411 33.2732 29.2511 33.2732Z" fill="white"/>
<path fill-rule="evenodd" clip-rule="evenodd" d="M36.4308 33.2732C37.2709 33.2732 37.971 32.5505 37.971 31.6832C37.971 30.816 37.2709 30.0933 36.4308 30.0933C35.5907 30.0933 34.8906 30.816 34.8906 31.6832C34.8906 32.5505 35.5907 33.2732 36.4308 33.2732Z" fill="white"/>
</svg>
