<svg width="22" height="22" viewBox="0 0 22 22" fill="none" xmlns="http://www.w3.org/2000/svg">
<g clip-path="url(#clip0_1507_708)">
<path d="M2.51303 0H7.49499C8.86172 0 10.008 1.1022 10.008 2.51303V4.49699C10.008 5.86373 8.90581 7.01002 7.49499 7.01002H2.51303C1.14629 7.01002 0 5.90781 0 4.49699V2.51303C0 1.1022 1.1022 0 2.51303 0Z" fill="#F5C12E"/>
<path d="M2.51303 7.97998H7.49499C8.86172 7.97998 10.008 9.08218 10.008 10.493V19.487C10.008 20.8537 8.90581 22 7.49499 22H2.51303C1.14629 22 0 20.8978 0 19.487V10.493C0 9.12627 1.1022 7.97998 2.51303 7.97998Z" fill="#F5C12E"/>
<path d="M14.5052 14.9897H19.4872C20.8539 14.9897 22.0002 16.092 22.0002 17.5028V19.4867C22.0002 20.8535 20.898 21.9998 19.4872 21.9998H14.5052C13.1385 21.9998 11.9922 20.8976 11.9922 19.4867V17.5028C11.9922 16.136 13.1385 14.9897 14.5052 14.9897Z" fill="#F0AB00"/>
<path d="M14.5052 0H19.4872C20.8539 0 22.0002 1.1022 22.0002 2.51303V11.507C22.0002 12.8737 20.898 14.02 19.4872 14.02H14.5052C13.1385 14.02 11.9922 12.9178 11.9922 11.507V2.51303C11.9922 1.1022 13.1385 0 14.5052 0Z" fill="#F0AB00"/>
</g>
<defs>
<clipPath id="clip0_1507_708">
<rect width="22" height="22" fill="white"/>
</clipPath>
</defs>
</svg>
