<svg width="28" height="28" viewBox="0 0 28 28" fill="none" xmlns="http://www.w3.org/2000/svg">
<circle cx="13.8498" cy="14.1206" r="13.2057" fill="#F5F5F5"/>
<path d="M17.3304 17.3507L21.1998 21.2202M21.1998 17.3507L17.3304 21.2202M13.8478 16.9638H10.3653C9.28529 16.9638 8.74528 16.9638 8.30586 17.0971C7.31651 17.3972 6.5423 18.1714 6.24218 19.1608C6.10889 19.6002 6.10889 20.1402 6.10889 21.2202M15.7826 10.7726C15.7826 12.696 14.2234 14.2552 12.3 14.2552C10.3767 14.2552 8.81752 12.696 8.81752 10.7726C8.81752 8.84928 10.3767 7.2901 12.3 7.2901C14.2234 7.2901 15.7826 8.84928 15.7826 10.7726Z" stroke="black" stroke-width="1.5" stroke-linecap="round" stroke-linejoin="round"/>
</svg>
