<svg width="28" height="28" viewBox="0 0 28 28" fill="none" xmlns="http://www.w3.org/2000/svg">
<circle cx="13.8498" cy="14.0467" r="13.2057" fill="#F5F5F5"/>
<path d="M12.3634 15.8481H11.2183C10.1529 15.8481 9.6202 15.8481 9.18674 15.9795C8.2108 16.2756 7.44707 17.0393 7.15102 18.0153C7.01953 18.4487 7.01953 18.9814 7.01953 20.0468M16.5621 9.74078C16.5621 11.6381 15.0241 13.1761 13.1268 13.1761C11.2295 13.1761 9.69146 11.6381 9.69146 9.74078C9.69146 7.84349 11.2295 6.30544 13.1268 6.30544C15.0241 6.30544 16.5621 7.84349 16.5621 9.74078ZM13.8902 20.0468L16.2578 19.3704C16.3712 19.338 16.4279 19.3218 16.4808 19.2975C16.5277 19.2759 16.5723 19.2497 16.614 19.2191C16.6609 19.1847 16.7026 19.143 16.786 19.0596L21.7152 14.1304C22.2422 13.6034 22.2422 12.7489 21.7152 12.2218C21.1882 11.6948 20.3337 11.6948 19.8067 12.2219L14.8774 17.1511C14.7941 17.2344 14.7524 17.2761 14.7179 17.323C14.6874 17.3647 14.6611 17.4093 14.6395 17.4563C14.6153 17.5091 14.5991 17.5658 14.5667 17.6792L13.8902 20.0468Z" stroke="black" stroke-width="1.5" stroke-linecap="round" stroke-linejoin="round"/>
</svg>
