<svg width="24" height="24" viewBox="0 0 24 24" fill="none" xmlns="http://www.w3.org/2000/svg">
<path d="M19.5 24H4.5C2.01562 24 0 21.9844 0 19.5V4.5C0 2.01562 2.01562 0 4.5 0H19.5C21.9844 0 24 2.01562 24 4.5V19.5C24 21.9844 21.9844 24 19.5 24Z" fill="#FFFEDB"/>
<path d="M8.57231 16.6263C7.61606 16.6263 6.76762 16.0169 6.45825 15.1028L6.4395 15.0325C6.36918 14.7888 6.33637 14.5872 6.33637 14.3856V10.3169L4.88793 15.1497C4.70043 15.8622 5.127 16.5981 5.8395 16.795L15.0645 19.2653C15.177 19.2935 15.2942 19.3075 15.4067 19.3075C16.002 19.3075 16.5457 18.9138 16.6957 18.3325L17.2348 16.6216L8.57231 16.6263Z" fill="#F2C05F"/>
<path d="M10.2141 10.3642C10.8703 10.3642 11.4047 9.82978 11.4047 9.17353C11.4047 8.51728 10.8703 7.98291 10.2141 7.98291C9.55781 7.98291 9.02344 8.51728 9.02344 9.17353C9.02344 9.82978 9.55781 10.3642 10.2141 10.3642Z" fill="#F2C05F"/>
<path d="M17.6695 6.1875H8.72109C7.90078 6.1875 7.23047 6.85781 7.23047 7.67813V14.2406C7.23047 15.0609 7.90078 15.7312 8.72109 15.7312H17.6695C18.4898 15.7312 19.1602 15.0609 19.1602 14.2406V7.67813C19.1602 6.85781 18.4945 6.1875 17.6695 6.1875ZM8.72109 7.37812H17.6695C17.8336 7.37812 17.9695 7.50938 17.9695 7.67813V11.9156L16.0852 9.71719C15.8836 9.48281 15.5977 9.35625 15.2836 9.35156C14.9742 9.35156 14.6836 9.49219 14.4867 9.72656L12.2695 12.3844L11.5477 11.6625C11.1398 11.2547 10.4742 11.2547 10.0664 11.6625L8.42109 13.3078V7.67813C8.42109 7.51406 8.55703 7.37812 8.72109 7.37812Z" fill="#F2C05F"/>
</svg>
