<svg width="83" height="84" viewBox="0 0 83 84" fill="none" xmlns="http://www.w3.org/2000/svg">
<g opacity="0.6">
<path fill-rule="evenodd" clip-rule="evenodd" d="M20.0064 0H62.6095C73.6171 0 82.6157 9.00336 82.6157 20.0064V63.9905C82.6157 74.9936 73.6171 83.9969 62.6095 83.9969H20.0064C9.00336 83.9969 0 74.9936 0 63.9905V20.0064C0.000164058 9.00336 9.00353 0 20.0064 0Z" fill="url(#paint0_linear_2243_384)"/>
<path d="M51.5278 54.1833H56.2296V49.4817C56.2296 49.091 56.5457 48.7747 56.9365 48.7747H60.1499C60.5405 48.7747 60.8614 49.091 60.8614 49.4817V54.1833H65.563C65.9537 54.1833 66.27 54.4996 66.27 54.8902V58.1084C66.27 58.499 65.9538 58.8153 65.563 58.8153H60.8614V63.5169C60.8614 63.9075 60.5405 64.2238 60.1499 64.2238H56.9365C56.5459 64.2238 56.2296 63.9075 56.2296 63.5169V58.8153H51.5278C51.1372 58.8153 50.8209 58.499 50.8209 58.1084V54.8902C50.8211 54.4994 51.1372 54.1833 51.5278 54.1833ZM33.884 47.5097C32.554 46.1751 31.7309 44.3381 31.7309 42.3105C31.7309 40.2782 32.554 38.4414 33.884 37.1113C35.214 35.7813 37.051 34.9581 39.0832 34.9581C41.1108 34.9581 42.9477 35.7811 44.2824 37.1113C45.6124 38.4414 46.4356 40.2783 46.4356 42.3105C46.4356 44.3381 45.6124 46.1751 44.2824 47.5097C42.9477 48.8397 41.1108 49.663 39.0832 49.663C37.051 49.663 35.214 48.8399 33.884 47.5097ZM54.8157 52.7694V49.4815C54.8157 48.3096 55.7645 47.3609 56.9363 47.3609H59.2522C59.2522 40.2411 59.2522 33.1165 59.2522 25.9965C59.2522 24.2851 58.55 22.7272 57.4246 21.5971C56.2946 20.4717 54.7412 19.7695 53.0254 19.7695H44.5383C42.8268 19.7695 41.2689 20.4717 40.1435 21.5971C39.0134 22.7272 38.3159 24.2851 38.3159 25.9965V27.4102H37.2556H34.0513H32.6376H23.4436H22.03V27.4335C20.5326 27.5684 19.1839 28.2335 18.1793 29.238C17.0493 30.368 16.3516 31.9213 16.3516 33.6374V50.9836C16.3516 52.6951 17.0491 54.253 18.1793 55.3784C19.3046 56.5085 20.8625 57.206 22.574 57.206H49.4026V54.89C49.4026 53.7181 50.356 52.7694 51.5278 52.7694H54.8157ZM23.4436 25.9967H32.6376V24.4062C32.6376 23.797 32.3865 23.2436 31.9865 22.8437C31.5865 22.4437 31.0332 22.1927 30.4286 22.1927H25.6525C25.0434 22.1927 24.4944 22.4438 24.09 22.8437C23.6901 23.2436 23.4436 23.797 23.4436 24.4062V25.9967ZM39.0832 36.3719C37.4416 36.3719 35.958 37.037 34.8838 38.1113C33.8095 39.1855 33.1444 40.6691 33.1444 42.3107C33.1444 43.9476 33.8094 45.4312 34.8838 46.5053C35.958 47.5796 37.4414 48.2447 39.0832 48.2447C40.7202 48.2447 42.2037 47.5796 43.2778 46.5053C44.3521 45.4311 45.0172 43.9475 45.0172 42.3107C45.0172 40.6691 44.3522 39.1855 43.2778 38.1113C42.2037 37.0368 40.7202 36.3719 39.0832 36.3719Z" fill="url(#paint1_linear_2243_384)"/>
</g>
<defs>
<linearGradient id="paint0_linear_2243_384" x1="0.000164058" y1="41.9985" x2="82.6157" y2="41.9985" gradientUnits="userSpaceOnUse">
<stop stop-color="#FFFBD3"/>
<stop offset="1" stop-color="#FFE098"/>
</linearGradient>
<linearGradient id="paint1_linear_2243_384" x1="16.3517" y1="41.9967" x2="66.27" y2="41.9967" gradientUnits="userSpaceOnUse">
<stop stop-color="#F26922"/>
<stop offset="1" stop-color="#FEBC20"/>
</linearGradient>
</defs>
</svg>
