<svg width="31" height="30" viewBox="0 0 31 30" fill="none" xmlns="http://www.w3.org/2000/svg">
<mask id="mask0_370_518" style="mask-type:luminance" maskUnits="userSpaceOnUse" x="0" y="0" width="31" height="30">
<path d="M15.0741 30C23.3993 30 30.1481 23.2843 30.1481 15C30.1481 6.71573 23.3993 0 15.0741 0C6.74889 0 0 6.71573 0 15C0 23.2843 6.74889 30 15.0741 30Z" fill="white"/>
</mask>
<g mask="url(#mask0_370_518)">
<path d="M37.6758 30.0101L37.6758 20.0051L-7.54645 20.0051L-7.54645 30.0101L37.6758 30.0101Z" fill="#088004"/>
<path d="M37.6816 20.0106L37.6816 10.0056L-7.54059 10.0056L-7.54059 20.0106L37.6816 20.0106Z" fill="white"/>
<path d="M37.6855 10.0104L37.6855 0.00537109L-7.53668 0.0053711L-7.53668 10.0104L37.6855 10.0104Z" fill="#F48E20"/>
<path d="M19.7424 15.0003C19.7424 12.4353 17.6471 10.3503 15.0694 10.3503C12.4918 10.3503 10.3965 12.4353 10.3965 15.0003C10.3965 17.5653 12.4918 19.6503 15.0694 19.6503C17.6471 19.6503 19.7424 17.5653 19.7424 15.0003Z" fill="#081084"/>
<path d="M18.1898 17.7154C18.0843 17.6104 18.0843 17.4604 18.1898 17.3554C18.2803 17.2654 18.4159 17.2504 18.5215 17.3254C18.627 17.1604 18.7325 16.9954 18.8079 16.8304C18.7928 16.8304 18.7928 16.8154 18.7777 16.8154C18.6571 16.7404 18.6119 16.5904 18.6873 16.4704C18.7476 16.3654 18.8832 16.3204 19.0038 16.3654C19.0641 16.1854 19.1094 16.0054 19.1546 15.8104C19.034 15.7954 18.9435 15.6904 18.9435 15.5554C18.9435 15.4204 19.0641 15.3004 19.1998 15.3004C19.2149 15.3004 19.2149 15.3004 19.2299 15.3004C19.2299 15.1954 19.245 15.1054 19.245 15.0004C19.245 14.9104 19.245 14.8204 19.2299 14.7304C19.2149 14.7304 19.2149 14.7304 19.1998 14.7304C19.0641 14.7304 18.9435 14.6104 18.9435 14.4754C18.9435 14.3404 19.034 14.2354 19.1696 14.2204C19.1395 14.0254 19.0792 13.8454 19.0189 13.6654C19.0038 13.6654 19.0038 13.6804 18.9888 13.6804C18.8531 13.7104 18.7174 13.6354 18.6722 13.5004C18.6421 13.3804 18.7023 13.2454 18.8229 13.2004C18.7325 13.0354 18.6421 12.8554 18.5365 12.7054C18.431 12.7804 18.2954 12.7804 18.1898 12.6904C18.0843 12.5854 18.0843 12.4354 18.1898 12.3304C18.2049 12.3154 18.2049 12.3154 18.22 12.3004C18.0994 12.1504 17.9637 12.0154 17.813 11.8954C17.7979 11.9104 17.7979 11.9104 17.7828 11.9254C17.6773 12.0304 17.5266 12.0304 17.4211 11.9254C17.3306 11.8354 17.3155 11.6854 17.406 11.5804C17.2402 11.4754 17.0744 11.3704 16.9085 11.2954C16.9085 11.3104 16.8935 11.3254 16.8935 11.3404C16.8181 11.4604 16.6674 11.5054 16.5468 11.4304C16.4262 11.3704 16.3809 11.2204 16.4412 11.1004C16.2604 11.0404 16.0795 10.9954 15.8835 10.9504C15.8684 11.0854 15.7629 11.1754 15.6272 11.1754C15.4916 11.1754 15.371 11.0554 15.371 10.9204C15.371 10.9054 15.371 10.8904 15.371 10.8754C15.2805 10.8754 15.175 10.8604 15.0695 10.8604C14.9791 10.8604 14.8735 10.8604 14.7831 10.8754C14.7831 10.8904 14.7831 10.9054 14.7831 10.9204C14.7831 11.0554 14.6625 11.1754 14.5268 11.1754C14.3912 11.1754 14.2856 11.0704 14.2706 10.9354C14.0746 10.9654 13.8937 11.0254 13.6978 11.0854C13.6978 11.1004 13.7128 11.1154 13.7128 11.1304C13.743 11.2654 13.6676 11.4004 13.5319 11.4454C13.3963 11.4754 13.2757 11.4154 13.2305 11.2804C13.0646 11.3704 12.8988 11.4604 12.733 11.5654C12.8235 11.6704 12.8084 11.8204 12.7179 11.9104C12.6124 12.0154 12.4617 12.0154 12.3562 11.9104C12.3411 11.8954 12.3411 11.8954 12.326 11.8804C12.1753 12.0004 12.0396 12.1504 11.919 12.2854C11.9341 12.3004 11.9492 12.3004 11.9492 12.3154C12.0547 12.4204 12.0547 12.5704 11.9492 12.6754C11.8587 12.7654 11.708 12.7804 11.6025 12.6904C11.4969 12.8554 11.3914 13.0204 11.3161 13.2004C11.3311 13.2004 11.3462 13.2154 11.3613 13.2154C11.4819 13.2904 11.5271 13.4404 11.4517 13.5604C11.3914 13.6804 11.2407 13.7254 11.1201 13.6654C11.0598 13.8454 11.0146 14.0254 10.9694 14.2204C11.105 14.2354 11.1955 14.3404 11.1955 14.4754C11.1955 14.6104 11.0749 14.7304 10.9392 14.7304C10.9241 14.7304 10.9091 14.7304 10.894 14.7304C10.894 14.8204 10.8789 14.9104 10.8789 15.0154C10.8789 15.1204 10.8789 15.2104 10.894 15.3154C10.9091 15.3154 10.9241 15.3154 10.9392 15.3154C11.0749 15.3154 11.1955 15.4354 11.1955 15.5704C11.1955 15.7054 11.0899 15.8104 10.9694 15.8254C11.0146 16.0204 11.0598 16.2004 11.1201 16.3804C11.1352 16.3804 11.1352 16.3654 11.1502 16.3654C11.2859 16.3354 11.4216 16.4104 11.4668 16.5454C11.4969 16.6654 11.4366 16.8004 11.3161 16.8454C11.4065 17.0104 11.4969 17.1754 11.6025 17.3404C11.708 17.2654 11.8436 17.2654 11.9341 17.3554C12.0396 17.4604 12.0396 17.6104 11.9341 17.7154C11.9341 17.7154 11.919 17.7304 11.9039 17.7304C12.0245 17.8804 12.1602 18.0153 12.3109 18.1353C12.3109 18.1203 12.326 18.1204 12.326 18.1204C12.4315 18.0154 12.5823 18.0154 12.6878 18.1204C12.7782 18.2104 12.7933 18.3454 12.7179 18.4504C12.8838 18.5554 13.0496 18.6603 13.2154 18.7354C13.2154 18.7203 13.2305 18.7204 13.2305 18.7054C13.3058 18.5854 13.4566 18.5404 13.5772 18.6154C13.6827 18.6754 13.7279 18.8104 13.6827 18.9304C13.8636 18.9904 14.0445 19.0354 14.2404 19.0803C14.2555 18.9604 14.361 18.8704 14.4967 18.8704C14.6324 18.8704 14.7529 18.9904 14.7529 19.1254C14.7529 19.1404 14.7529 19.1404 14.7529 19.1554C14.8434 19.1554 14.9338 19.1704 15.0394 19.1704C15.1449 19.1704 15.2353 19.1704 15.3258 19.1554C15.3258 19.1404 15.3258 19.1404 15.3258 19.1254C15.3258 18.9904 15.4463 18.8704 15.582 18.8704C15.7026 18.8704 15.8081 18.9604 15.8383 19.0803C16.0342 19.0504 16.2151 18.9904 16.396 18.9304C16.396 18.9153 16.396 18.9154 16.396 18.9004C16.3659 18.7654 16.4412 18.6304 16.5769 18.5854C16.6975 18.5553 16.8181 18.6154 16.8784 18.7204C17.0442 18.6304 17.21 18.5403 17.3758 18.4353C17.3005 18.3303 17.3155 18.1954 17.406 18.1054C17.5115 18.0004 17.6622 18.0004 17.7678 18.1054L17.7828 18.1204C17.9336 18.0004 18.0692 17.8654 18.1898 17.7154Z" fill="white"/>
<path d="M15.2345 13.2454L15.0838 10.8604L14.918 13.2454C14.918 13.2454 15.0838 14.1154 15.0838 15.0004C15.0687 14.1154 15.2345 13.2454 15.2345 13.2454Z" fill="#081084"/>
<path d="M15.0667 15.0002C14.1773 15.0002 13.303 14.8352 13.303 14.8352L10.9062 15.0002L13.303 15.1502C13.303 15.1652 14.1773 15.0002 15.0667 15.0002Z" fill="#081084"/>
<path d="M15.0664 15.0003C15.6995 14.3703 16.4231 13.8603 16.4231 13.8603L18.0059 12.0603L16.197 13.6203C16.212 13.6353 15.6995 14.3703 15.0664 15.0003Z" fill="#081084"/>
<path d="M15.0684 15.0002C14.4352 14.3702 13.9378 13.6352 13.9378 13.6352L12.1289 12.0752L13.7117 13.8752C13.6966 13.8602 14.4352 14.3702 15.0684 15.0002Z" fill="#081084"/>
<path d="M15.685 13.3354L16.1674 10.9954L15.3835 13.2454C15.3835 13.2454 15.3081 14.1304 15.082 14.9854C15.3081 14.1454 15.685 13.3354 15.685 13.3354Z" fill="#081084"/>
<path d="M16.7421 15.6151L19.0936 16.0951L16.8325 15.3151C16.8325 15.3151 15.9431 15.2401 15.0839 15.0151C15.9733 15.0151 16.8476 15.1651 16.8476 15.1651L19.2444 15.0151L16.8476 14.8501C16.8476 14.8501 15.9733 15.0151 15.0839 15.0151C14.2247 15.2401 13.3353 15.3151 13.3353 15.3151L11.0742 16.0951L13.4258 15.6301C13.4258 15.6301 14.2247 15.2551 15.099 15.0301C14.3302 15.4651 13.4861 15.7651 13.4861 15.7651L11.4963 17.0851L13.6519 16.0351C13.6519 16.0351 14.3302 15.4651 15.1141 15.0301C14.481 15.6601 13.7423 16.1551 13.7423 16.1551L12.1746 17.9551L13.9835 16.3801C13.9835 16.3801 14.496 15.6601 15.1141 15.0301C14.6618 15.7951 14.089 16.4701 14.089 16.4701L13.0338 18.6151L14.3754 16.6351C14.3754 16.6351 14.6769 15.8101 15.1141 15.0301C14.8729 15.8851 14.496 16.6801 14.496 16.6801L14.0287 19.0201L14.8126 16.7701C14.8126 16.7701 14.888 15.9001 15.1291 15.0451V15.0601C15.1291 15.9451 14.9633 16.8001 14.9633 16.8001L15.1291 19.1851L15.2799 16.8001C15.2799 16.8001 15.1291 15.9451 15.1291 15.0601C15.3553 15.9151 15.4306 16.7851 15.4306 16.7851L16.1994 19.0501L15.7472 16.7101C15.7472 16.7101 15.3703 15.9151 15.1442 15.0751V15.0601C15.5814 15.8251 15.8828 16.6501 15.8828 16.6501L17.2094 18.6451L16.1693 16.5001C16.1693 16.5001 15.5964 15.8251 15.1593 15.0601C15.7924 15.6901 16.2898 16.4101 16.2898 16.4101L18.0987 17.9851L16.531 16.1851C16.531 16.1851 15.7924 15.6901 15.1744 15.0601C15.9431 15.5101 16.6215 16.0801 16.6215 16.0801L18.7771 17.1301L16.7873 15.7951C16.7873 15.7951 15.9431 15.4951 15.1744 15.0601C15.9281 15.2401 16.7421 15.6151 16.7421 15.6151ZM15.0688 15.0151C15.0688 15.0001 15.0688 15.0001 15.0688 15.0151V15.0151Z" fill="#081084"/>
<path d="M15.0663 15.0002C14.2071 14.7602 13.4082 14.3852 13.4082 14.3852L11.0566 13.9202L13.3178 14.7002C13.3178 14.6852 14.2071 14.7752 15.0663 15.0002Z" fill="#081084"/>
<path d="M15.0664 15.0003C15.8352 14.5653 16.6793 14.2653 16.6793 14.2653L18.6842 12.9453L16.5286 13.9803C16.5286 13.9803 15.8503 14.5653 15.0664 15.0003Z" fill="#081084"/>
<path d="M15.0651 15.0004C14.628 14.2354 14.3265 13.3954 14.3265 13.3954L13 11.4004L14.0552 13.5454C14.0401 13.5454 14.6129 14.2354 15.0651 15.0004Z" fill="#081084"/>
<path d="M15.0664 15.0003C15.5186 14.2353 16.0914 13.5603 16.0914 13.5603L17.1466 11.4153L15.8201 13.3953C15.8201 13.3953 15.5186 14.2353 15.0664 15.0003Z" fill="#081084"/>
<path d="M15.0675 15.0002C14.2988 14.5502 13.6204 13.9802 13.6204 13.9802L11.4648 12.9302L13.4546 14.2502C13.4546 14.2502 14.2988 14.5652 15.0675 15.0002Z" fill="#081084"/>
<path d="M15.0664 15.0001C15.9256 14.7751 16.815 14.7001 16.815 14.7001L19.0912 13.9351L16.7396 14.3851C16.7396 14.3851 15.9256 14.7751 15.0664 15.0001Z" fill="#081084"/>
<path d="M15.0658 15.0005C14.8397 14.1455 14.7643 13.2605 14.7643 13.2605L13.9805 11.0105L14.4478 13.3505C14.4478 13.3355 14.8246 14.1455 15.0658 15.0005Z" fill="#081084"/>
</g>
</svg>
