<svg width="23" height="15" viewBox="0 0 23 15" fill="none" xmlns="http://www.w3.org/2000/svg">
<path fill-rule="evenodd" clip-rule="evenodd" d="M19.6118 4.11217C16.8914 1.98529 14.1215 0.847656 11.5 0.847656C8.87849 0.847656 6.1086 1.93583 3.38817 4.11217C1.36022 5.69497 0.123656 7.27776 0.0741936 7.37669C-0.0247312 7.52508 -0.0247312 7.72293 0.0741936 7.87131C0.123656 7.97024 1.36022 9.50357 3.38817 11.1358C6.1086 13.2627 8.87849 14.4003 11.5 14.4003C14.1215 14.4003 16.8914 13.3122 19.6118 11.1358C21.6398 9.55303 22.8763 7.97024 22.9258 7.87131C23.0247 7.72293 23.0247 7.52508 22.9258 7.37669C22.8763 7.32723 21.5903 5.74443 19.6118 4.11217ZM11.5 13.5595C6.30645 13.5595 1.9043 8.76163 0.915054 7.624C1.9043 6.48637 6.30645 1.68852 11.5 1.68852C16.6935 1.68852 21.0957 6.48637 22.0849 7.624C21.0957 8.76163 16.6935 13.5595 11.5 13.5595Z" fill="#CB9341"/>
<path fill-rule="evenodd" clip-rule="evenodd" d="M11.5009 3.66699C9.32459 3.66699 7.54395 5.44764 7.54395 7.62398C7.54395 9.80033 9.32459 11.581 11.5009 11.581C13.6773 11.581 15.4579 9.80033 15.4579 7.62398C15.4579 5.44764 13.6773 3.66699 11.5009 3.66699ZM11.5009 10.938C9.67083 10.938 8.18696 9.45409 8.18696 7.62398C8.18696 5.79387 9.67083 4.31 11.5009 4.31C13.331 4.31 14.8149 5.79387 14.8149 7.62398C14.8149 9.40463 13.331 10.938 11.5009 10.938Z" fill="#CB9341"/>
</svg>
