<svg width="19" height="19" viewBox="0 0 19 19" fill="none" xmlns="http://www.w3.org/2000/svg">
<path d="M6.80967 7.90581C7.53485 8.67364 8.49632 9.11364 9.58001 9.11364C10.6067 9.11364 11.6252 8.66501 12.2852 7.90581C13.0103 7.20699 13.4259 6.18896 13.4259 5.04152C13.4259 3.89408 13.0022 2.87606 12.2852 2.10822C11.6252 1.34039 10.5985 0.900391 9.58001 0.900391C8.49632 0.900391 7.53485 1.34901 6.80967 2.10822C6.0845 2.86743 5.66895 3.89408 5.66895 5.04152C5.66895 6.18896 6.0845 7.20699 6.80967 7.90581Z" stroke="#C6892F" stroke-miterlimit="10"/>
<path d="M13.1949 11.2646C12.02 10.8957 10.7316 10.8008 9.5 10.8008C8.21163 10.8008 6.92326 10.8957 5.80505 11.2646C3.10677 12.0025 1 13.6576 1 15.9557V17.0008C1 17.5531 1.44772 18.0008 2 18.0008H17C17.5523 18.0008 18 17.5531 18 17.0008V15.9451C18 13.6576 15.8932 12.0025 13.1949 11.2646Z" stroke="#C6892F" stroke-miterlimit="10"/>
</svg>
