<svg width="23" height="20" viewBox="0 0 23 20" fill="none" xmlns="http://www.w3.org/2000/svg">
<path d="M18.3143 1.90202V17.7181C18.3143 18.1807 17.837 18.489 17.4258 18.2834L16.9779 18.0705C11.9849 14.1569 9.0699 13.7457 7.87305 13.8044V5.81565C9.0699 5.87439 11.9849 5.4632 16.9779 1.54957L17.4258 1.33664C17.837 1.14573 18.3143 1.44678 18.3143 1.90202Z" stroke="#CB9341" stroke-miterlimit="10"/>
<path d="M19.3706 12.6441C20.8244 12.6441 21.9993 11.3738 21.9993 9.80985C21.9993 8.24586 20.8244 6.97559 19.3706 6.97559V12.6441Z" stroke="#CB9341" stroke-miterlimit="10"/>
<path d="M6.86677 19.2892C6.11782 19.5315 5.32481 19.0836 5.09719 18.298L3.84894 13.9952C2.25559 13.8924 1 12.5046 1 10.8011V9.00217C1 7.2326 2.35839 5.80078 4.03985 5.80078H6.80803V13.9511L7.81397 17.4242C8.03425 18.2172 7.61572 19.0542 6.86677 19.2892Z" stroke="#CB9341" stroke-miterlimit="10"/>
</svg>
