<svg width="71" height="71" viewBox="0 0 71 71" fill="none" xmlns="http://www.w3.org/2000/svg">
<ellipse cx="35.7521" cy="35.6868" rx="35.09" ry="35.0903" fill="#F5F5F5"/>
<path d="M40.2082 27.5999C39.4139 27.5999 38.7692 26.9552 38.7692 26.1608V24.0022H33.0129V26.1608C33.0129 26.9552 32.3682 27.5999 31.5738 27.5999C30.7795 27.5999 30.1348 26.9552 30.1348 26.1608V24.0022C30.1348 22.4149 31.4256 21.124 33.0129 21.124H38.7692C40.3564 21.124 41.6473 22.4149 41.6473 24.0022V26.1608C41.6473 26.9552 41.0026 27.5999 40.2082 27.5999Z" fill="black"/>
<path d="M36.9155 40.379C36.6565 40.4797 36.2823 40.5516 35.8938 40.5516C35.5052 40.5516 35.1311 40.4797 34.7857 40.3502L18.625 34.968V45.9482C18.625 48.1356 20.3951 49.9057 22.5824 49.9057H49.2051C51.3925 49.9057 53.1626 48.1356 53.1626 45.9482V34.968L36.9155 40.379Z" fill="black"/>
<path d="M53.1626 29.3986V32.6941L36.2392 38.3353C36.124 38.3785 36.0089 38.3929 35.8938 38.3929C35.7787 38.3929 35.6635 38.3785 35.5484 38.3353L18.625 32.6941V29.3986C18.625 27.2112 20.3951 25.4412 22.5824 25.4412H49.2051C51.3925 25.4412 53.1626 27.2112 53.1626 29.3986Z" fill="black"/>
</svg>
