<svg width="60" height="60" viewBox="0 0 60 60" fill="none" xmlns="http://www.w3.org/2000/svg">
<circle cx="30" cy="30" r="30" fill="#F2C05F" fill-opacity="0.2"/>
<path d="M29.0145 21.805C28.4251 21.805 27.9467 21.3266 27.9467 20.7372V19.1356H23.6756V20.7372C23.6756 21.3266 23.1972 21.805 22.6078 21.805C22.0184 21.805 21.54 21.3266 21.54 20.7372V19.1356C21.54 17.9578 22.4978 17 23.6756 17H27.9467C29.1245 17 30.0823 17.9578 30.0823 19.1356V20.7372C30.0823 21.3266 29.6039 21.805 29.0145 21.805Z" fill="#F2C05F"/>
<path d="M38.6267 23.1399V25.5851L26.0696 29.7708C25.9842 29.8028 25.8987 29.8135 25.8133 29.8135C25.7279 29.8135 25.6425 29.8028 25.5571 29.7708L13 25.5851V23.1399C13 21.5169 14.3134 20.2035 15.9364 20.2035H35.6903C37.3133 20.2035 38.6267 21.5169 38.6267 23.1399Z" fill="#F2C05F"/>
<path d="M45.061 37.15C45.0902 36.9328 45.1296 36.717 45.1296 36.4928C45.1296 36.2671 45.0888 36.0527 45.061 35.8355L46.3759 34.8797C46.6693 34.6667 46.751 34.2771 46.5671 33.9701L45.3865 32.0081C45.2026 31.7026 44.81 31.575 44.4714 31.7124L42.9581 32.3248C42.5888 32.0543 42.1963 31.8161 41.7628 31.6423L41.5614 30.0993C41.5147 29.7489 41.2054 29.4855 40.8376 29.4855H38.4778C38.11 29.4855 37.7992 29.7489 37.7539 30.0993L37.5525 31.6423C37.1191 31.8161 36.7251 32.0557 36.3573 32.3248L34.8439 31.7124C34.5053 31.575 34.1128 31.7012 33.9289 32.0081L32.7482 33.9701C32.5644 34.2757 32.6461 34.6653 32.9394 34.8797L34.2543 35.8355C34.2251 36.0527 34.1857 36.2685 34.1857 36.4928C34.1857 36.7184 34.2266 36.9328 34.2543 37.15L32.9394 38.1058C32.6461 38.3189 32.5644 38.7085 32.7482 39.0154L33.9289 40.9788C34.1128 41.2843 34.5053 41.4119 34.8439 41.2745L36.3573 40.6607C36.7265 40.9312 37.1191 41.1694 37.5525 41.3432L37.7539 42.8862C37.7992 43.2366 38.1085 43.5 38.4763 43.5H40.8361C41.2039 43.5 41.5147 43.2366 41.56 42.8862L41.7614 41.3432C42.1948 41.1694 42.5888 40.9298 42.9566 40.6607L44.47 41.2731C44.8086 41.4105 45.2011 41.2843 45.385 40.9774L46.5657 39.014C46.7495 38.7085 46.6678 38.3189 46.3745 38.1044L45.061 37.15ZM39.6569 39.2957C38.0443 39.2957 36.7382 38.0414 36.7382 36.4928C36.7382 34.9442 38.0443 33.6898 39.6569 33.6898C41.2696 33.6898 42.5757 34.9442 42.5757 36.4928C42.5757 38.0414 41.2696 39.2957 39.6569 39.2957Z" fill="#916F3F"/>
<path fill-rule="evenodd" clip-rule="evenodd" d="M25.8133 31.4148C26.1016 31.4148 26.3792 31.3614 26.5714 31.2867L38.6267 27.2719V28.5675H38.1706C37.7613 28.5675 37.4154 28.8607 37.365 29.2506L37.1409 30.9677C36.6585 31.1611 36.22 31.4278 35.8108 31.7272L34.1266 31.0457C33.7498 30.8928 33.3129 31.0332 33.1083 31.3748L31.7944 33.5582C31.5898 33.8982 31.6807 34.3318 32.0072 34.5704L33.4705 35.6341C33.4638 35.6834 33.4567 35.7327 33.4496 35.782L33.4496 35.782C33.4219 35.9743 33.3941 36.167 33.3941 36.3656C33.3941 36.556 33.4203 36.7392 33.4464 36.922L33.4464 36.9221C33.4547 36.9803 33.463 37.0386 33.4705 37.097L32.0072 38.1607C31.9309 38.2161 31.8675 38.2822 31.8177 38.3554H15.9364C14.3134 38.3554 13 37.042 13 35.419V27.2719L24.9911 31.2653C25.2474 31.3614 25.525 31.4148 25.8133 31.4148Z" fill="#F2C05F"/>
</svg>
