<svg width="22" height="20" viewBox="0 0 22 20" fill="none" xmlns="http://www.w3.org/2000/svg">
<path d="M15.5077 1.93833V3.2467C15.5077 3.5859 15.2654 3.87665 14.8778 3.87665H14.2478V1.93833C14.2478 1.59912 13.9571 1.30837 13.6179 1.30837H8.43284C8.09363 1.30837 7.80288 1.59912 7.80288 1.93833V3.87665H7.17292C6.83372 3.87665 6.54297 3.5859 6.54297 3.2467V1.93833C6.54297 0.872247 7.41522 0 8.48129 0H13.5694C14.6839 0 15.5077 0.872247 15.5077 1.93833Z" fill="#F5C12E"/>
<path d="M13.5683 1.30837H11V0H13.5683C14.6344 0 15.5066 0.872247 15.5066 1.93833V3.2467C15.5066 3.5859 15.2643 3.87665 14.8767 3.87665H14.2467V1.93833C14.2467 1.55066 13.9559 1.30837 13.5683 1.30837Z" fill="#F0AB00"/>
<path d="M22 3.24679V17.445C22 18.5111 21.1278 19.3834 20.0617 19.3834H1.93833C0.872247 19.3834 0 18.5111 0 17.445V3.24679C0 3.05296 0.0969163 2.90758 0.193833 2.76221L3.48899 10.1763H18.5595L21.8062 2.76221C21.9515 2.90758 22 3.05296 22 3.24679Z" fill="#F5C12E"/>
<path d="M22 3.24679V17.445C22 18.5111 21.1278 19.3834 20.0617 19.3834H11V10.1763H18.511L21.8062 2.76221C21.9515 2.90758 22 3.05296 22 3.24679Z" fill="#F0AB00"/>
<path d="M21.8076 2.76219L19.8209 10.1763C19.5786 11.0485 18.8517 11.63 17.931 11.63H4.07196C3.19972 11.63 2.42439 11.0485 2.1821 10.1763L0.195312 2.76219C0.292229 2.66528 0.486061 2.56836 0.631436 2.56836H21.3715C21.5654 2.56836 21.7107 2.66528 21.8076 2.76219Z" fill="#EF9F00"/>
<path d="M21.8062 2.76219L19.8194 10.1763C19.5771 11.0485 18.8502 11.63 17.9295 11.63H11V2.56836H21.37C21.5639 2.56836 21.7093 2.66528 21.8062 2.76219Z" fill="#DD9900"/>
<path d="M13.5673 9.69189H8.43074C8.09153 9.69189 7.80078 9.98264 7.80078 10.3219V12.8901C7.80078 13.2293 8.09153 13.5201 8.43074 13.5201H13.5673C13.9065 13.5201 14.1973 13.2293 14.1973 12.8901V10.3219C14.2457 9.98264 13.955 9.69189 13.5673 9.69189Z" fill="#F7F7F7"/>
<path d="M14.2451 10.3215V12.8898C14.2451 13.229 13.9544 13.5197 13.6152 13.5197H11.0469V9.64307H13.5667C13.9544 9.69152 14.2451 9.98227 14.2451 10.3215Z" fill="white"/>
</svg>
