<svg width="34" height="34" viewBox="0 0 34 34" fill="none" xmlns="http://www.w3.org/2000/svg">
<g filter="url(#filter0_d_104_61)">
<g clip-path="url(#clip0_104_61)">
<path d="M17 4C9.83157 4 4 9.83157 4 17C4 24.1684 9.83157 30 17 30C24.1684 30 30 24.1684 30 17C30 9.83157 24.1684 4 17 4ZM19.9326 21.6508C20.3561 22.0743 20.3561 22.759 19.9326 23.1826C19.7213 23.3938 19.444 23.5 19.1666 23.5C18.8893 23.5 18.6119 23.3938 18.4007 23.1826L12.9841 17.7659C12.5605 17.3424 12.5605 16.6577 12.9841 16.2341L18.4008 10.8174C18.8243 10.3939 19.509 10.3939 19.9326 10.8174C20.3561 11.241 20.3561 11.9257 19.9326 12.3493L15.2818 17L19.9326 21.6508Z" fill="white"/>
</g>
</g>
<defs>
<filter id="filter0_d_104_61" x="0" y="0" width="34" height="34" filterUnits="userSpaceOnUse" color-interpolation-filters="sRGB">
<feFlood flood-opacity="0" result="BackgroundImageFix"/>
<feColorMatrix in="SourceAlpha" type="matrix" values="0 0 0 0 0 0 0 0 0 0 0 0 0 0 0 0 0 0 127 0" result="hardAlpha"/>
<feOffset/>
<feGaussianBlur stdDeviation="2"/>
<feComposite in2="hardAlpha" operator="out"/>
<feColorMatrix type="matrix" values="0 0 0 0 0 0 0 0 0 0 0 0 0 0 0 0 0 0 0.25 0"/>
<feBlend mode="normal" in2="BackgroundImageFix" result="effect1_dropShadow_104_61"/>
<feBlend mode="normal" in="SourceGraphic" in2="effect1_dropShadow_104_61" result="shape"/>
</filter>
<clipPath id="clip0_104_61">
<rect width="26" height="26" fill="white" transform="translate(4 4)"/>
</clipPath>
</defs>
</svg>
