<svg width="173" height="173" viewBox="0 0 173 173" fill="none" xmlns="http://www.w3.org/2000/svg">
<circle cx="86.5" cy="86.5" r="86.5" fill="#F7F7F7"/>
<path d="M49.2959 36.2742V136.159H77.2025V36.2742H49.2959ZM71.2649 128.312C71.2649 129.338 70.3743 130.218 69.3352 130.218H57.2374C56.1983 130.218 55.3077 129.338 55.3077 128.312V116.358C55.3077 115.331 56.1983 114.451 57.2374 114.451H69.3352C70.3743 114.451 71.2649 115.331 71.2649 116.358V128.312ZM71.2649 104.477C71.2649 105.504 70.3743 106.384 69.3352 106.384H57.2374C56.1983 106.384 55.3077 105.504 55.3077 104.477V92.5233C55.3077 91.4966 56.1983 90.6166 57.2374 90.6166H69.3352C70.3743 90.6166 71.2649 91.4966 71.2649 92.5233V104.477ZM71.2649 80.6428C71.2649 81.6695 70.3743 82.5495 69.3352 82.5495H57.2374C56.1983 82.5495 55.3077 81.6695 55.3077 80.6428V68.6889C55.3077 67.6622 56.1983 66.7822 57.2374 66.7822H69.3352C70.3743 66.7822 71.2649 67.6622 71.2649 68.6889V80.6428ZM71.2649 56.8084C71.2649 57.8351 70.3743 58.7152 69.3352 58.7152H57.2374C56.1983 58.7152 55.3077 57.8351 55.3077 56.8084V44.8546C55.3077 43.8279 56.1983 42.9478 57.2374 42.9478H69.3352C70.3743 42.9478 71.2649 43.8279 71.2649 44.8546V56.8084Z" fill="url(#paint0_linear_9_6)"/>
<path d="M121.054 36.2742V75.7022C113.501 43.5027 88.4966 36.2742 88.4966 36.2742H121.054Z" fill="url(#paint1_linear_9_6)"/>
<path d="M102.943 116.082C102.943 104.946 93.9597 95.9627 82.8237 95.9627C93.9597 95.9627 102.943 86.9791 102.943 75.8431C102.943 86.9791 111.927 95.9627 123.063 95.9627C112.021 96.0563 102.943 104.946 102.943 116.082Z" fill="url(#paint2_linear_9_6)"/>
<defs>
<linearGradient id="paint0_linear_9_6" x1="54.1725" y1="79.927" x2="76.8291" y2="96.0065" gradientUnits="userSpaceOnUse">
<stop stop-color="#D4AF7E"/>
<stop offset="1" stop-color="#957241"/>
</linearGradient>
<linearGradient id="paint1_linear_9_6" x1="105.362" y1="45.0474" x2="131.836" y2="63.6642" gradientUnits="userSpaceOnUse">
<stop stop-color="#D2AE78"/>
<stop offset="0.2212" stop-color="#CBA772"/>
<stop offset="0.5388" stop-color="#B89561"/>
<stop offset="0.913" stop-color="#997746"/>
<stop offset="1" stop-color="#916F3F"/>
</linearGradient>
<linearGradient id="paint2_linear_9_6" x1="89.4429" y1="86.5096" x2="116.444" y2="105.416" gradientUnits="userSpaceOnUse">
<stop stop-color="#D2AE78"/>
<stop offset="1" stop-color="#916F3F"/>
</linearGradient>
</defs>
</svg>
