<svg width="18" height="16" viewBox="0 0 18 16" fill="none" xmlns="http://www.w3.org/2000/svg">
<path d="M12.9548 0C11.3744 0 9.93837 0.705558 9 1.84842C8.06543 0.709233 6.62938 0 5.04517 0C2.26425 0 0 2.19017 0 4.88011C0 7.98898 2.0401 10.7377 4.38793 12.8397C6.51161 14.7432 8.6087 15.8787 8.69607 15.9228C8.79105 15.9743 8.89743 16 9 16C9.10637 16 9.20895 15.9743 9.30393 15.9228C9.3913 15.8751 11.4884 14.7432 13.6121 12.8397C15.9599 10.734 18 7.98898 18 4.88011C18 2.19017 15.7358 0 12.9548 0Z" fill="#F5334C"/>
</svg>
