<svg width="64" height="66" viewBox="0 0 64 66" fill="none" xmlns="http://www.w3.org/2000/svg">
<ellipse cx="31.9836" cy="32.5167" rx="31.9836" ry="32.5167" fill="#F2C05F" fill-opacity="0.15"/>
<path d="M26.1345 33.0716C26.1345 31.6456 24.9343 30.4854 23.4591 30.4854H19.8918C19.399 30.4854 19 30.871 19 31.3474V46.8651C19 47.3415 19.399 47.7272 19.8918 47.7272H23.4591C24.9343 47.7272 26.1345 46.5669 26.1345 45.1409V33.0716ZM23.4591 44.2788C22.9665 44.2788 22.5673 43.8929 22.5673 43.4167C22.5673 42.9405 22.9665 42.5546 23.4591 42.5546C23.9517 42.5546 24.3509 42.9405 24.3509 43.4167C24.3509 43.8929 23.9517 44.2788 23.4591 44.2788Z" fill="#F0AB00"/>
<path d="M36.2407 20.6901V18.8772C36.2407 18.3925 35.8417 18 35.3488 18C34.856 18 34.457 18.3925 34.457 18.8772V20.6901C34.457 21.1748 34.856 21.5673 35.3488 21.5673C35.8417 21.5673 36.2407 21.1748 36.2407 20.6901Z" fill="#F0AB00"/>
<path d="M40.1036 22.552L41.3348 21.567C41.6749 21.2949 41.6749 20.8541 41.3348 20.582C40.9947 20.3099 40.4437 20.3099 40.1036 20.582L38.8723 21.567C38.5322 21.8391 38.5322 22.2799 38.8723 22.552C39.2124 22.8241 39.7634 22.8241 40.1036 22.552Z" fill="#F0AB00"/>
<path d="M31.8772 22.552C32.1493 22.2799 32.1493 21.8391 31.8772 21.567L30.8922 20.582C30.6201 20.3099 30.1793 20.3099 29.9072 20.582C29.6351 20.8541 29.6351 21.2949 29.9072 21.567L30.8922 22.552C31.1643 22.8241 31.6051 22.8241 31.8772 22.552Z" fill="#F0AB00"/>
<path d="M37.1465 30.3295C37.6422 29.1843 38.1551 27.9429 38.1551 26.7457C38.1551 25.1826 37.0987 23.7999 35.586 23.3835C35.0989 23.2468 34.5945 23.5556 34.4945 24.0528L34.2073 25.4847C33.3458 29.7775 32.0273 29.3589 27.5409 31.9568C27.61 32.2633 27.6526 32.5794 27.6526 32.9065V45.112C27.6526 45.6984 27.5323 46.2567 27.3203 46.768C29.3866 47.3948 31.5233 47.7274 33.6867 47.7274C34.2488 47.7274 42.488 47.7274 42.0935 47.7274C42.8185 47.7274 43.4063 47.1419 43.4063 46.4197C43.4063 45.6975 42.8185 45.112 42.0935 45.112C41.9394 45.112 40.9192 45.112 40.7807 45.112C40.2972 45.112 39.9055 44.7217 39.9055 44.2402C39.9055 43.7586 40.2972 43.3624 40.7807 43.3624C41.0863 43.3624 44.0235 43.3624 43.8439 43.3624C44.5689 43.3624 45.1567 42.7828 45.1567 42.0606C45.1567 41.3384 44.5689 40.7529 43.8439 40.7529C43.6677 40.7529 40.7807 40.7529 40.7807 40.7529C40.297 40.7529 39.9055 40.3629 39.9055 39.8811C39.9055 39.3993 40.297 39.0034 40.7807 39.0034C40.9676 39.0034 44.0201 39.0034 43.8439 39.0034C44.5689 39.0034 45.1567 38.4237 45.1567 37.7015C45.1567 36.9793 44.5689 36.3938 43.8439 36.3938C43.6096 36.3938 40.6011 36.3938 40.7807 36.3938C40.2972 36.3938 39.9055 36.0035 39.9055 35.522C39.9055 35.0404 40.2972 34.6443 40.7807 34.6443C41.0863 34.6443 44.0235 34.6443 43.8439 34.6443C44.5689 34.6443 45.1567 34.0646 45.1567 33.3424C45.1567 32.6202 44.5689 32.0347 43.8439 32.0347H36.478C36.6572 31.4674 36.9017 30.8948 37.1465 30.3295Z" fill="#F5C12E"/>
</svg>
