<svg width="19" height="16" viewBox="0 0 19 16" fill="none" xmlns="http://www.w3.org/2000/svg">
<path d="M8.75307 2.26741L9.24979 2.85652L9.74676 2.26762C10.5858 1.2733 11.879 0.65 13.3147 0.65C15.8516 0.65 17.85 2.58574 17.85 4.88011C17.85 7.698 15.9373 10.2779 13.5628 12.3499C11.4666 14.178 9.39267 15.2771 9.26156 15.3466L9.25931 15.3478C9.25923 15.3478 9.25916 15.3479 9.25909 15.3479C9.25659 15.3492 9.25541 15.3495 9.25514 15.3496C9.25499 15.3496 9.25457 15.3497 9.25379 15.3498C9.25296 15.3499 9.25174 15.35 9.25 15.35C9.25002 15.35 9.24947 15.35 9.24845 15.3499L9.24497 15.3492L9.2418 15.3483C9.2414 15.3481 9.24111 15.348 9.24092 15.3479C9.24073 15.3478 9.24065 15.3478 9.24069 15.3478L9.23247 15.3435L9.22413 15.3394C9.2244 15.3395 9.22392 15.3393 9.2227 15.3386C9.2155 15.3349 9.18236 15.3177 9.12131 15.2846C9.05375 15.2479 8.9579 15.1948 8.83772 15.126C8.59732 14.9884 8.26064 14.7885 7.85925 14.5313C7.05533 14.0161 5.99814 13.2752 4.93704 12.3498L4.93676 12.3496C2.56296 10.2818 0.65 7.69817 0.65 4.88011C0.65 2.58574 2.64842 0.65 5.18531 0.65C6.62449 0.65 7.91768 1.27665 8.75307 2.26741Z" stroke="black" stroke-width="1.3"/>
</svg>
