<svg width="11" height="16" viewBox="0 0 11 16" fill="none" xmlns="http://www.w3.org/2000/svg">
<path d="M5.5 0.497559C2.4665 0.497559 0 2.96405 0 5.99756C0 8.93184 5.01332 14.9988 5.22594 15.254C5.2921 15.3343 5.39132 15.3816 5.5 15.3816C5.60395 15.3816 5.70318 15.3343 5.77406 15.254C5.98668 14.9988 11 8.93184 11 5.99756C11 2.96405 8.53351 0.497559 5.5 0.497559ZM5.5 14.4649C5.05584 13.9121 4.12973 12.7261 3.21778 11.3747C1.57818 8.94601 0.708763 7.08905 0.708763 5.99756C0.708763 3.35624 2.85868 1.20632 5.5 1.20632C8.14132 1.20632 10.2912 3.35624 10.2912 5.99756C10.2912 7.08905 9.42182 8.94601 7.78222 11.3747C6.87028 12.7261 5.94416 13.9074 5.5 14.4649Z" fill="#B2B2B2"/>
<path d="M5.50163 3.21436C3.89983 3.21436 2.5957 4.51848 2.5957 6.12028C2.5957 7.72209 3.89983 9.02621 5.50163 9.02621C7.10344 9.02621 8.40756 7.72209 8.40756 6.12028C8.40756 4.51848 7.10344 3.21436 5.50163 3.21436ZM5.50163 8.31745C4.29201 8.31745 3.30447 7.32991 3.30447 6.12028C3.30447 4.91066 4.29201 3.92312 5.50163 3.92312C6.71125 3.92312 7.6988 4.91066 7.6988 6.12028C7.6988 7.32991 6.71598 8.31745 5.50163 8.31745Z" fill="#B2B2B2"/>
</svg>
