<svg width="22" height="22" viewBox="0 0 22 22" fill="none" xmlns="http://www.w3.org/2000/svg">
<path fill-rule="evenodd" clip-rule="evenodd" d="M11.7333 0.733338C11.7333 0.520752 11.6411 0.318624 11.4805 0.179334C11.3199 0.0400524 11.1068 -0.0226893 10.8963 0.00737515L1.88888 1.29415C0.805046 1.44898 0 2.37721 0 3.47204V18.528C0 19.6228 0.805046 20.551 1.88888 20.7059L10.8963 21.9926C11.1068 22.0227 11.3199 21.96 11.4805 21.8207C11.6411 21.6814 11.7333 21.4793 11.7333 21.2667V0.733338ZM8.8 9.53334C9.20502 9.53334 9.53333 9.86165 9.53333 10.2667V11.7333C9.53333 12.1384 9.20502 12.4667 8.8 12.4667C8.39498 12.4667 8.06667 12.1384 8.06667 11.7333V10.2667C8.06667 9.86165 8.39498 9.53334 8.8 9.53334Z" fill="#F0AB00"/>
<path d="M13.1992 20.5338H16.8659C18.0809 20.5338 19.0659 19.5488 19.0659 18.3338V16.8671C19.0659 16.4621 18.7376 16.1338 18.3326 16.1338C17.9275 16.1338 17.5992 16.4621 17.5992 16.8671V18.3338C17.5992 18.7388 17.2709 19.0671 16.8659 19.0671H13.1992V20.5338Z" fill="#F0AB00"/>
<path d="M13.1992 2.93346V1.4668H16.8659C18.0809 1.4668 19.0659 2.45177 19.0659 3.6668V5.13346C19.0659 5.53847 18.7376 5.8668 18.3326 5.8668C17.9275 5.8668 17.5992 5.53847 17.5992 5.13346V3.6668C17.5992 3.26179 17.2709 2.93346 16.8659 2.93346H13.1992Z" fill="#F0AB00"/>
<path d="M18.8511 7.54778C18.5647 7.26142 18.1004 7.26142 17.814 7.54778C17.5276 7.83415 17.5276 8.2985 17.814 8.58486L19.4955 10.2663H13.9326C13.5275 10.2663 13.1992 10.5946 13.1992 10.9997C13.1992 11.4047 13.5275 11.733 13.9326 11.733H19.4955L17.814 13.4144C17.5276 13.7008 17.5276 14.1652 17.814 14.4515C18.1004 14.7379 18.5647 14.7379 18.8511 14.4515L21.783 11.5197C21.9165 11.3869 21.9992 11.2029 21.9992 10.9997C21.9992 10.806 21.9241 10.6298 21.8015 10.4988L21.7953 10.4922L21.7844 10.4811L18.8511 7.54778Z" fill="#F5C12E"/>
</svg>
