<svg width="216" height="216" viewBox="0 0 216 216" fill="none" xmlns="http://www.w3.org/2000/svg">
<circle opacity="0.6" cx="108" cy="108" r="108" fill="black"/>
<path d="M90.2947 75.7617L97.7731 84.6845L90.2947 75.7617ZM110.194 109.495V106.189L98.6718 92.4519V135.525L81.4039 118.129H60.9906V101.054H81.436L87.5344 94.8912L94.724 87.6695L87.2455 78.7467L76.4932 89.499H49.5V129.652H76.4932L110.227 163.385L110.194 109.495Z" fill="white"/>
<path d="M110.196 55.8311V99.5144L100.246 87.6387L98.7052 85.7771L97.7744 84.6858L90.2959 75.763L110.196 55.8311Z" fill="white"/>
<path d="M120.016 117.938L128.393 127.92C126.147 130.455 123.418 132.574 120.369 134.178C120.241 134.243 120.144 134.307 120.016 134.371V117.938Z" fill="white"/>
<path d="M135.358 109.628C135.358 115.085 133.786 120.124 131.057 124.393L120.016 111.233V84.9141C129.099 89.4397 135.358 98.7798 135.358 109.628Z" fill="white"/>
<path d="M138.311 139.767L146.207 149.203C143.768 151.578 141.136 153.696 138.311 155.59C132.823 159.249 126.628 161.945 120.016 163.454V150.776C123.707 149.684 127.174 148.112 130.383 146.122C133.272 144.324 135.936 142.174 138.311 139.767Z" fill="white"/>
<path d="M162.993 109.625C162.993 123.619 157.794 136.361 149.224 146.086L141.232 136.554C147.17 129.204 150.7 119.831 150.7 109.657C150.7 90.2063 137.765 73.7729 120.016 68.509V55.7988C144.602 61.3836 162.993 83.3376 162.993 109.625Z" fill="white"/>
<path d="M155.994 160.885L148.227 167.4L138.309 155.589L130.381 146.12L120.367 134.18L120.014 133.763L110.192 122.048L98.7019 108.311L87.5323 94.9905L80.0217 86.0356L62.3687 64.9482L70.1681 58.4326L87.2434 78.8139L94.7219 87.7367L98.7019 92.487L110.192 106.224L120.014 117.94L128.391 127.922L138.309 139.765L146.237 149.202L155.994 160.885Z" fill="white"/>
</svg>
