<svg width="22" height="22" viewBox="0 0 22 22" fill="none" xmlns="http://www.w3.org/2000/svg">
<path d="M11.3968 0.25006L11.997 1.4548L13.2817 1.67707C13.6374 1.73931 13.7796 2.19275 13.5262 2.45948L12.6105 3.42861L12.8061 4.77115C12.8594 5.14458 12.4904 5.42464 12.1659 5.25571L11.0012 4.64668L9.83647 5.25571C9.51194 5.42464 9.14296 5.14458 9.19631 4.77115L9.39191 3.42861L8.47614 2.45948C8.22274 2.19275 8.365 1.73931 8.72064 1.67707L10.0054 1.4548L10.6055 0.25006C10.77 -0.0833535 11.2279 -0.0833535 11.3968 0.25006Z" fill="#F5C12E"/>
<path d="M4.56926 3.28619L5.1694 4.49093L6.45416 4.7132C6.8098 4.77544 6.95205 5.22888 6.69866 5.49562L5.78288 6.46474L5.97849 7.80728C6.03183 8.18071 5.66285 8.46078 5.33833 8.29185L4.1736 7.68281L3.00888 8.29185C2.68436 8.46078 2.31538 8.18071 2.36872 7.80728L2.56433 6.46474L1.64411 5.50006C1.39071 5.23333 1.53297 4.77989 1.88861 4.71765L3.17336 4.49537L3.77795 3.28619C3.94244 2.95278 4.40033 2.95278 4.56926 3.28619Z" fill="#F5C12E"/>
<path d="M18.225 3.28619L18.8251 4.49093L20.1099 4.7132C20.4655 4.77544 20.6078 5.22888 20.3544 5.49562L19.4386 6.46474L19.6342 7.80728C19.6875 8.18071 19.3186 8.46078 18.994 8.29185L17.8293 7.68281L16.6646 8.29185C16.3401 8.46078 15.9711 8.18071 16.0244 7.80728L16.22 6.46474L15.3043 5.49562C15.0509 5.22888 15.1931 4.77544 15.5488 4.7132L16.8335 4.49093L17.4337 3.28619C17.5981 2.95278 18.056 2.95278 18.225 3.28619Z" fill="#F5C12E"/>
<path d="M6.97946 16.085C5.9481 17.1164 5.31239 18.5345 5.31239 20.1082C5.31239 20.3172 5.14346 20.4861 4.93452 20.4861H0.377869C0.16893 20.4861 0 20.3172 0 20.1082C0 17.0719 1.23141 14.329 3.223 12.333H3.60087L6.82387 15.556L6.97946 16.085Z" fill="#EF9F00"/>
<path d="M11.0023 9.10547L11.3802 9.48334V14.0355L11.0023 14.4134C9.43305 14.4134 8.01493 15.0491 6.97912 16.0805L3.22266 12.324C5.21869 10.3369 7.96602 9.10547 11.0023 9.10547Z" fill="#F0AB00"/>
<path d="M18.7752 12.3285L18.9664 12.8975L15.5522 16.3117L15.0232 16.0849C13.9918 15.0536 12.5737 14.4179 11 14.4179V9.10547C14.0318 9.10547 16.7792 10.3369 18.7752 12.3285Z" fill="#F5C12E"/>
<path d="M21.9985 20.1083C21.9985 20.3172 21.8295 20.4861 21.6206 20.4861H17.0684C16.8594 20.4861 16.6905 20.3172 16.6905 20.1083C16.6905 18.539 16.0548 17.1209 15.0234 16.0851L18.7799 12.3286C20.767 14.3247 21.9985 17.072 21.9985 20.1083Z" fill="#DD9900"/>
<path d="M12.4129 21.0416C14.2356 20.0547 17.0985 18.3565 19.259 17.0628C19.6547 16.8228 19.3746 16.2271 18.9434 16.3782C16.5562 17.1962 13.4176 18.2943 11.4883 19.0544L12.4129 21.0416Z" fill="#F0AB00"/>
<path d="M11.0003 22.0021C11.8375 22.0021 12.5162 21.3234 12.5162 20.4861C12.5162 19.6489 11.8375 18.9702 11.0003 18.9702C10.1631 18.9702 9.48438 19.6489 9.48438 20.4861C9.48438 21.3234 10.1631 22.0021 11.0003 22.0021Z" fill="#DD9900"/>
</svg>
