<svg width="58" height="59" viewBox="0 0 58 59" fill="none" xmlns="http://www.w3.org/2000/svg">
<path d="M40.0634 30.0326L40.0624 30.0333L22.5317 42.7918C22.3203 42.9455 22.0698 42.9632 21.8579 42.8514L21.858 42.8513L21.853 42.8488C21.6208 42.7295 21.4969 42.5234 21.4969 42.2655V16.7483C21.4969 16.4979 21.6251 16.2863 21.8554 16.1637C22.0817 16.0486 22.3227 16.07 22.5317 16.222L40.0567 28.9762C40.0575 28.9769 40.0583 28.9775 40.0592 28.9781C40.2429 29.1169 40.3328 29.2965 40.3328 29.5069C40.3328 29.7264 40.2465 29.9 40.0634 30.0326ZM29.0157 1.30371C13.4379 1.30371 0.8125 13.9291 0.8125 29.5069C0.8125 45.0847 13.4379 57.7101 29.0157 57.7101C44.5935 57.7101 57.2188 45.0847 57.2188 29.5069C57.2188 13.9291 44.5935 1.30371 29.0157 1.30371Z" fill="#F3C060" stroke="white"/>
<g filter="url(#filter0_d_1727_1496)">
<path fill-rule="evenodd" clip-rule="evenodd" d="M40.8437 29.5063C40.8437 29.885 40.6814 30.2097 40.3676 30.4369L22.8367 43.1955C22.4795 43.4553 22.025 43.4985 21.6355 43.2929C21.2351 43.0873 21.0078 42.7086 21.0078 42.2649V16.7477C21.0078 16.304 21.2459 15.9252 21.6355 15.7196C22.0359 15.514 22.4795 15.5573 22.8367 15.817L40.3676 28.5756C40.6706 28.8029 40.8437 29.1275 40.8437 29.5063Z" fill="white"/>
</g>
<defs>
<filter id="filter0_d_1727_1496" x="18.0078" y="15.5898" width="25.8359" height="33.833" filterUnits="userSpaceOnUse" color-interpolation-filters="sRGB">
<feFlood flood-opacity="0" result="BackgroundImageFix"/>
<feColorMatrix in="SourceAlpha" type="matrix" values="0 0 0 0 0 0 0 0 0 0 0 0 0 0 0 0 0 0 127 0" result="hardAlpha"/>
<feOffset dy="3"/>
<feGaussianBlur stdDeviation="1.5"/>
<feComposite in2="hardAlpha" operator="out"/>
<feColorMatrix type="matrix" values="0 0 0 0 0 0 0 0 0 0 0 0 0 0 0 0 0 0 0.25 0"/>
<feBlend mode="normal" in2="BackgroundImageFix" result="effect1_dropShadow_1727_1496"/>
<feBlend mode="normal" in="SourceGraphic" in2="effect1_dropShadow_1727_1496" result="shape"/>
</filter>
</defs>
</svg>
