<svg width="22" height="22" viewBox="0 0 22 22" fill="none" xmlns="http://www.w3.org/2000/svg">
<g clip-path="url(#clip0_1507_735)">
<path d="M4.55597 7.67537C4.84328 7.38806 5.37687 7.38806 5.66418 7.67537L12.4776 14.4888L15.7612 11.2052C16.0896 10.9179 16.541 10.9179 16.8694 11.2052L21.959 16.2948V4.06343C21.959 1.80597 20.153 0 17.8955 0H4.06343C1.80597 0 0 1.80597 0 4.06343V12.2313L4.55597 7.67537ZM16.0896 3.16045C17.6082 3.16045 18.8396 4.39179 18.8396 5.91045C18.8396 7.4291 17.6082 8.66045 16.0896 8.66045C14.5709 8.66045 13.3396 7.4291 13.3396 5.91045C13.3396 4.39179 14.5709 3.16045 16.0896 3.16045Z" fill="#F5C12E"/>
<path d="M16.3359 12.8882L13.5859 15.6382L19.5785 21.6307C20.8509 21.0561 21.7128 19.8658 21.918 18.5113L16.3359 12.8882Z" fill="#F0AB00"/>
<path d="M5.08955 9.3584L0 14.448V17.8957C0 20.1532 1.80597 21.9591 4.06343 21.9591H17.7313L5.08955 9.3584Z" fill="#F0AB00"/>
</g>
<defs>
<clipPath id="clip0_1507_735">
<rect width="22" height="22" fill="white"/>
</clipPath>
</defs>
</svg>
