<svg width="60" height="60" viewBox="0 0 60 60" fill="none" xmlns="http://www.w3.org/2000/svg">
<circle cx="30" cy="30" r="30" fill="#F2C05F" fill-opacity="0.2"/>
<path fill-rule="evenodd" clip-rule="evenodd" d="M15 19.2419C15 18.0037 16.0037 17 17.2419 17H32.0478C33.286 17 34.2897 18.0037 34.2897 19.2419V30.899C34.2629 30.9182 34.2362 30.9376 34.2096 30.957L32.3011 30.1847C31.8741 30.0115 31.3791 30.1706 31.1472 30.5576L29.6583 33.0319C29.4264 33.4172 29.5295 33.9085 29.8994 34.1789L31.5576 35.3843C31.5501 35.4402 31.542 35.496 31.5339 35.5519L31.5339 35.552C31.5025 35.7698 31.4711 35.9881 31.4711 36.2131C31.4711 36.2388 31.4715 36.2643 31.4723 36.2897H17.2419C16.0037 36.2897 15 35.286 15 34.0478V19.2419ZM29.7028 39.4684H20.8575C20.4433 39.4684 20.1075 39.8042 20.1075 40.2184C20.1075 40.6326 20.4433 40.9684 20.8575 40.9684H30.6048L29.7028 39.4684ZM38.9679 27.3764V22.858C38.9679 22.4438 38.6321 22.108 38.2179 22.108C37.8037 22.108 37.4679 22.4438 37.4679 22.858V27.3764H38.9679ZM21.3432 23.002V30.2875C21.3439 30.4094 21.3767 30.5289 21.4384 30.634C21.5002 30.7391 21.5886 30.8261 21.6948 30.886C21.8009 30.9459 21.921 30.9767 22.0429 30.9753C22.1648 30.9738 22.2841 30.9402 22.3888 30.8777L28.6287 27.235C28.7338 27.1743 28.821 27.087 28.8816 26.9819C28.9423 26.8768 28.9742 26.7576 28.9742 26.6363C28.9742 26.515 28.9423 26.3958 28.8816 26.2907C28.821 26.1856 28.7338 26.0983 28.6287 26.0376L22.3888 22.4117C22.2841 22.3493 22.1648 22.3156 22.0429 22.3142C21.921 22.3127 21.8009 22.3435 21.6948 22.4035C21.5886 22.4634 21.5002 22.5503 21.4384 22.6554C21.3767 22.7605 21.3439 22.8801 21.3432 23.002Z" fill="#F2C05F"/>
<path d="M43.3992 36.6515C43.4284 36.4343 43.4678 36.2185 43.4678 35.9944C43.4678 35.7688 43.4269 35.5544 43.3992 35.3373L44.7137 34.3818C45.007 34.1688 45.0887 33.7793 44.9048 33.4725L43.7245 31.511C43.5407 31.2056 43.1483 31.0781 42.8098 31.2154L41.2968 31.8277C40.9277 31.5573 40.5353 31.3191 40.102 31.1453L39.9006 29.6028C39.8539 29.2525 39.5446 28.9891 39.177 28.9891H36.8179C36.4502 28.9891 36.1394 29.2525 36.0942 29.6028L35.8929 31.1453C35.4596 31.3191 35.0657 31.5587 34.698 31.8277L33.1851 31.2154C32.8466 31.0781 32.4541 31.2042 32.2703 31.511L31.09 33.4725C30.9062 33.7779 30.9879 34.1674 31.2811 34.3818L32.5956 35.3373C32.5665 35.5544 32.5271 35.7702 32.5271 35.9944C32.5271 36.2199 32.5679 36.4343 32.5956 36.6515L31.2811 37.607C30.9879 37.8199 30.9062 38.2094 31.09 38.5162L32.2703 40.4791C32.4541 40.7845 32.8466 40.912 33.1851 40.7747L34.698 40.1611C35.0671 40.4315 35.4596 40.6697 35.8929 40.8434L36.0942 42.3859C36.1394 42.7362 36.4487 42.9996 36.8164 42.9996H39.1755C39.5432 42.9996 39.8539 42.7362 39.8992 42.3859L40.1005 40.8434C40.5338 40.6697 40.9277 40.4301 41.2954 40.1611L42.8083 40.7733C43.1468 40.9106 43.5392 40.7845 43.7231 40.4777L44.9034 38.5148C45.0872 38.2094 45.0055 37.8199 44.7122 37.6056L43.3992 36.6515ZM37.9967 38.7965C36.3845 38.7965 35.0788 37.5425 35.0788 35.9944C35.0788 34.4462 36.3845 33.1923 37.9967 33.1923C39.6088 33.1923 40.9146 34.4462 40.9146 35.9944C40.9146 37.5425 39.6088 38.7965 37.9967 38.7965Z" fill="#916F3F"/>
</svg>
