<svg width="14" height="14" viewBox="0 0 14 14" fill="none" xmlns="http://www.w3.org/2000/svg">
<path d="M12.4259 13.6526H2.11985C1.77687 13.6526 1.5 13.3512 1.5 12.9779V5.97461H13.0499V12.9779C13.0458 13.3512 12.7689 13.6526 12.4259 13.6526Z" stroke="#B0B0B0" stroke-width="0.7" stroke-miterlimit="10"/>
<path d="M1.5 8.00781H13.0458" stroke="#B0B0B0" stroke-width="0.7" stroke-miterlimit="10"/>
<path d="M11.8722 2.94761L1.51654 5.97022L1 3.86519L10.7523 1.02249C11.0829 0.928038 11.4218 1.13944 11.5127 1.49928L11.8722 2.94761Z" stroke="#B0B0B0" stroke-width="0.7" stroke-miterlimit="10"/>
<path d="M2.61084 3.50098L3.73484 5.43059" stroke="#B0B0B0" stroke-width="0.7" stroke-miterlimit="10"/>
<path d="M4.90918 2.6958L6.03318 4.62541" stroke="#B0B0B0" stroke-width="0.7" stroke-miterlimit="10"/>
<path d="M7.20264 1.98047L8.32663 3.91008" stroke="#B0B0B0" stroke-width="0.7" stroke-miterlimit="10"/>
<path d="M9.50098 1.38232L10.625 3.31194" stroke="#B0B0B0" stroke-width="0.7" stroke-miterlimit="10"/>
<path d="M3.84234 5.97461L3.29688 8.00767" stroke="#B0B0B0" stroke-width="0.7" stroke-miterlimit="10"/>
<path d="M6.25667 5.97461L5.71533 8.00767" stroke="#B0B0B0" stroke-width="0.7" stroke-miterlimit="10"/>
<path d="M8.67366 5.88037L8.13232 7.91344" stroke="#B0B0B0" stroke-width="0.7" stroke-miterlimit="10"/>
<path d="M11.0921 5.97461L10.5508 8.00767" stroke="#B0B0B0" stroke-width="0.7" stroke-miterlimit="10"/>
</svg>
