<svg width="25" height="25" viewBox="0 0 25 25" fill="none" xmlns="http://www.w3.org/2000/svg">
<circle cx="12.5" cy="12.5" r="12.5" fill="#DFDFDF"/>
<path fill-rule="evenodd" clip-rule="evenodd" d="M6.06203 17.2273C7.54175 15.269 9.87258 14 12.4984 14C15.1243 14 17.4551 15.269 18.9348 17.2273C18.9415 17.2362 18.9482 17.2451 18.955 17.254C19.0822 17.4222 19.2186 17.6026 19.3161 17.7767C19.4341 17.9873 19.5216 18.231 19.5161 18.5274C19.5118 18.7657 19.4396 18.9887 19.3519 19.1648C19.2643 19.3409 19.1299 19.5329 18.9424 19.68C18.6924 19.8762 18.4202 19.9457 18.1784 19.9747C17.9663 20.0001 17.7149 20 17.4622 20C17.4508 20 17.4394 20 17.428 20H7.56885C7.55746 20 7.54607 20 7.53468 20C7.28193 20 7.03054 20.0001 6.8184 19.9747C6.57661 19.9457 6.30443 19.8762 6.05444 19.68C5.86698 19.5329 5.73256 19.3409 5.64491 19.1648C5.55725 18.9887 5.48506 18.7657 5.48071 18.5274C5.47529 18.231 5.56274 17.9873 5.68074 17.7767C5.77823 17.6026 5.91465 17.4222 6.04188 17.254C6.04863 17.2451 6.05535 17.2362 6.06203 17.2273Z" fill="#959595"/>
<path fill-rule="evenodd" clip-rule="evenodd" d="M8.37342 9.125C8.37342 6.84682 10.2202 5 12.4984 5C14.7766 5 16.6234 6.84682 16.6234 9.125C16.6234 11.4032 14.7766 13.25 12.4984 13.25C10.2202 13.25 8.37342 11.4032 8.37342 9.125Z" fill="#959595"/>
</svg>
