<?xml version="1.0" encoding="utf-8"?>
<!-- Generator: Adobe Illustrator 23.0.5, SVG Export Plug-In . SVG Version: 6.00 Build 0)  -->
<svg version="1.1" id="Capa_1" xmlns="http://www.w3.org/2000/svg" xmlns:xlink="http://www.w3.org/1999/xlink" x="0px" y="0px"
	 viewBox="0 0 489.5 489.5" style="enable-background:new 0 0 489.5 489.5;" xml:space="preserve">
<style type="text/css">
	.st0{fill:#F3C060;}
</style>
<g>
	<path class="st0" d="M265.9,464.3c88.6-9.9,159.6-80.7,169.7-169.3c13.3-115.8-76.8-214.4-189.6-215.7v-52c0-2.9-3.6-4.4-6-2.6
		l-107,78.6c-1.8,1.4-1.8,4,0,5.3l107,78.6c2.4,1.8,6,0.2,6-2.6v-51.9c79.3,1.3,142.8,68.7,137.4,149.4
		c-4.6,69.4-61.2,125.6-130.5,130.1c-73.5,4.7-136-47.8-147.2-117.3c-2.1-12.9-13.3-22.3-26.3-22.3c-16.1,0-28.8,14.3-26.2,30.3
		C68.7,401.9,160.1,476.1,265.9,464.3z"/>
</g>
</svg>
