<svg width="60" height="60" viewBox="0 0 60 60" fill="none" xmlns="http://www.w3.org/2000/svg">
<circle cx="30" cy="30" r="30" fill="#F2C05F" fill-opacity="0.2"/>
<path d="M43.5521 37.6566C43.5812 37.4396 43.6206 37.224 43.6206 37C43.6206 36.7746 43.5798 36.5604 43.5521 36.3434L44.8656 35.3886C45.1586 35.1758 45.2403 34.7866 45.0566 34.48L43.8772 32.52C43.6935 32.2148 43.3013 32.0874 42.9631 32.2246L41.4513 32.8364C41.0824 32.5662 40.6903 32.3282 40.2573 32.1546L40.0561 30.6132C40.0094 30.2632 39.7004 30 39.333 30H36.9756C36.6082 30 36.2977 30.2632 36.2525 30.6132L36.0513 32.1546C35.6183 32.3282 35.2247 32.5676 34.8573 32.8364L33.3455 32.2246C33.0073 32.0874 32.6151 32.2134 32.4315 32.52L31.252 34.48C31.0683 34.7852 31.15 35.1744 31.443 35.3886L32.7566 36.3434C32.7274 36.5604 32.688 36.776 32.688 37C32.688 37.2254 32.7289 37.4396 32.7566 37.6566L31.443 38.6114C31.15 38.8242 31.0683 39.2134 31.252 39.52L32.4315 41.4814C32.6151 41.7866 33.0073 41.914 33.3455 41.7768L34.8573 41.1636C35.2262 41.4338 35.6183 41.6718 36.0513 41.8454L36.2525 43.3868C36.2977 43.7368 36.6068 44 36.9742 44H39.3315C39.6989 44 40.0094 43.7368 40.0546 43.3868L40.2558 41.8454C40.6888 41.6718 41.0824 41.4324 41.4498 41.1636L42.9616 41.7754C43.2998 41.9126 43.692 41.7866 43.8757 41.48L45.0551 39.5186C45.2388 39.2134 45.1572 38.8242 44.8641 38.61L43.5521 37.6566ZM38.1536 39.8C36.5426 39.8 35.2378 38.547 35.2378 37C35.2378 35.453 36.5426 34.2 38.1536 34.2C39.7645 34.2 41.0693 35.453 41.0693 37C41.0693 38.547 39.7645 39.8 38.1536 39.8Z" fill="#916F3F"/>
<path fill-rule="evenodd" clip-rule="evenodd" d="M16.2118 28.9231C16.2115 28.7659 16.1806 28.6088 16.1192 28.4608L15.2716 26.4087C15.0926 25.9765 15.0001 25.5126 15 25.0447C14.9999 24.5767 15.0921 24.1132 15.2712 23.6807C15.4503 23.2483 15.7129 22.8554 16.0439 22.5245C16.3748 22.1936 16.7677 21.9312 17.2001 21.7522L19.2489 20.9035C19.5456 20.7808 19.7822 20.5452 19.9058 20.2489L20.7547 18.1994C21.1162 17.3264 21.8098 16.6328 22.6828 16.2712C23.5558 15.9096 24.5367 15.9096 25.4097 16.2712L27.4575 17.1195C27.7547 17.2422 28.0888 17.242 28.3857 17.1188L28.388 17.1178L30.4377 16.2725C31.3104 15.9113 32.2915 15.9112 33.1641 16.2727C34.0369 16.6342 34.7304 17.3276 35.092 18.2004L35.9205 20.2006C35.9279 20.2164 35.9349 20.2324 35.9416 20.2487C36.0645 20.5457 36.3001 20.7818 36.5968 20.9053L38.6468 21.7544C39.5198 22.116 40.2134 22.8096 40.575 23.6826C40.9366 24.5556 40.9366 25.5365 40.575 26.4095L39.7263 28.4584C39.6648 28.6071 39.6339 28.7655 39.6339 28.923H37.0546C36.6143 28.923 36.2421 29.2385 36.188 29.6579L35.9469 31.5053C35.4279 31.7133 34.9562 32.0002 34.5159 32.3224L32.7041 31.5891C32.2987 31.4247 31.8287 31.5757 31.6086 31.9432L30.1951 34.2922C29.9749 34.6579 30.0728 35.1244 30.424 35.3811L31.9982 36.5254C31.9911 36.5784 31.9834 36.6314 31.9758 36.6844L31.9758 36.6845C31.946 36.8914 31.9161 37.0986 31.9161 37.3123C31.9161 37.5171 31.9442 37.7143 31.9723 37.911C31.9812 37.9737 31.9902 38.0363 31.9982 38.0992L30.424 39.2435C30.0728 39.4985 29.9749 39.965 30.1951 40.3324L31.0572 41.7662C30.8467 41.7213 30.6393 41.6572 30.4377 41.5737L28.388 40.7283L28.3857 40.7274C28.0888 40.6042 27.7547 40.604 27.4575 40.7267L25.4097 41.575C24.5367 41.9366 23.5558 41.9366 22.6828 41.575C21.8098 41.2134 21.1162 40.5197 20.7547 39.6467L19.9058 37.5973C19.7822 37.3009 19.5456 37.0653 19.2489 36.9426L17.2001 36.094C16.7677 35.915 16.3748 35.6526 16.0439 35.3217C15.7129 34.9908 15.4503 34.5979 15.2712 34.1654C15.0921 33.733 14.9999 33.2695 15 32.8014C15.0001 32.3336 15.0926 31.8697 15.2716 31.4375L16.1192 29.3854C16.1806 29.2374 16.2115 29.0803 16.2118 28.9231ZM32.8657 26.8168C33.3245 26.358 33.3245 25.6141 32.8657 25.1553C32.4069 24.6965 31.6631 24.6965 31.2043 25.1553L26.7483 29.6113L25.2293 28.0924C24.7705 27.6336 24.0267 27.6336 23.5679 28.0924C23.1091 28.5512 23.1091 29.295 23.5679 29.7538L25.9175 32.1035C26.3763 32.5623 27.1202 32.5623 27.579 32.1035L32.8657 26.8168Z" fill="#F2C05F"/>
</svg>
