<svg width="22" height="22" viewBox="0 0 22 22" fill="none" xmlns="http://www.w3.org/2000/svg">
<g clip-path="url(#clip0_1507_741)">
<path d="M18.0449 22H3.99625C1.77154 22 0 20.2285 0 18.0037V3.99625C0 1.77154 1.77154 0 3.99625 0H18.0449C20.2697 0 22.0412 1.77154 22.0412 3.99625V18.0449C22 20.2285 20.2285 22 18.0449 22Z" fill="#F5C12E"/>
<path d="M15.9036 6.55029L16.6039 5.84992C16.8511 5.60273 16.6863 5.19074 16.3568 5.14954L13.2257 4.81995C12.9785 4.77876 12.7313 5.02595 12.7725 5.27314L13.1433 8.40422C13.1845 8.73381 13.5965 8.89861 13.8436 8.65142L14.544 7.95104C17.2219 10.9585 15.0796 15.6964 11.0833 15.7788C10.5478 15.7788 10.0946 16.1495 10.0534 16.6851C10.0122 17.2619 10.4654 17.7563 11.0421 17.7151C16.7687 17.7151 19.8174 10.7937 15.9036 6.55029Z" fill="white"/>
<path d="M8.157 13.3893L7.45663 14.0897C4.77873 11.0822 6.92105 6.34437 10.9173 6.26198C11.4529 6.26198 11.9061 5.89119 11.9473 5.35561C11.9885 4.77883 11.5353 4.28445 10.9585 4.32565C5.19071 4.32565 2.14202 11.2058 6.05588 15.4904L5.35551 16.1908C5.10831 16.438 5.27311 16.85 5.6027 16.8912L8.73378 17.2208C8.98097 17.262 9.22816 17.0148 9.18697 16.7676L8.81618 13.6365C8.85738 13.3069 8.40419 13.1421 8.157 13.3893Z" fill="#F0AB00"/>
</g>
<defs>
<clipPath id="clip0_1507_741">
<rect width="22" height="22" fill="white"/>
</clipPath>
</defs>
</svg>
