<svg width="34" height="34" viewBox="0 0 34 34" fill="none" xmlns="http://www.w3.org/2000/svg">
<g filter="url(#filter0_d_104_61)">
<g clip-path="url(#clip0_104_61)">
<path d="M17 4C24.1684 4 30 9.83157 30 17C30 24.1684 24.1684 30 17 30C9.83157 30 4 24.1684 4 17C4 9.83157 9.83157 4 17 4ZM14.0674 21.6508C13.6439 22.0743 13.6439 22.759 14.0674 23.1826C14.2787 23.3938 14.556 23.5 14.8334 23.5C15.1107 23.5 15.3881 23.3938 15.5993 23.1826L21.0159 17.7659C21.4395 17.3424 21.4395 16.6577 21.0159 16.2341L15.5992 10.8174C15.1757 10.3939 14.491 10.3939 14.0674 10.8174C13.6439 11.241 13.6439 11.9257 14.0674 12.3493L18.7182 17L14.0674 21.6508Z" fill="white"/>
</g>
</g>
<defs>
<filter id="filter0_d_104_61" x="0" y="0" width="34" height="34" filterUnits="userSpaceOnUse" color-interpolation-filters="sRGB">
<feFlood flood-opacity="0" result="BackgroundImageFix"/>
<feColorMatrix in="SourceAlpha" type="matrix" values="0 0 0 0 0 0 0 0 0 0 0 0 0 0 0 0 0 0 127 0" result="hardAlpha"/>
<feOffset/>
<feGaussianBlur stdDeviation="2"/>
<feComposite in2="hardAlpha" operator="out"/>
<feColorMatrix type="matrix" values="0 0 0 0 0 0 0 0 0 0 0 0 0 0 0 0 0 0 0.25 0"/>
<feBlend mode="normal" in2="BackgroundImageFix" result="effect1_dropShadow_104_61"/>
<feBlend mode="normal" in="SourceGraphic" in2="effect1_dropShadow_104_61" result="shape"/>
</filter>
<clipPath id="clip0_104_61">
<rect width="26" height="26" fill="white" transform="matrix(-1 0 0 1 30 4)"/>
</clipPath>
</defs>
</svg>
