<svg width="22" height="22" viewBox="0 0 22 22" fill="none" xmlns="http://www.w3.org/2000/svg">
<path d="M19.4537 13.5451C19.2955 14.0484 19.3818 14.5948 19.7125 14.9974L20.6184 16.1046C20.4027 16.5072 20.1582 16.881 19.885 17.2549C19.6118 17.6288 19.3242 17.9882 19.0079 18.319L17.685 17.8013C17.1961 17.6144 16.6354 17.6863 16.2184 18.0026C15.8014 18.3046 15.5425 18.8078 15.5713 19.3399L15.6576 20.7634C15.255 20.9503 14.8236 21.1229 14.3778 21.2667C13.9321 21.4105 13.5007 21.5255 13.055 21.6118L12.2929 20.4183C12.0053 19.9725 11.5164 19.7137 10.9844 19.7137V14.2209C12.868 14.2209 14.4066 12.6967 14.4066 10.7987C14.4066 8.90065 12.868 7.37647 10.9844 7.37647V1.89804C11.502 1.89804 12.0053 1.63922 12.2929 1.19346L13.0693 0C13.5151 0.0862745 13.9608 0.201307 14.3922 0.345098C14.838 0.488889 15.255 0.661438 15.672 0.848366L15.5857 2.2719C15.5569 2.78954 15.8014 3.29281 16.2327 3.60915C16.6641 3.91111 17.2105 3.99739 17.6994 3.81046L19.0223 3.29281C19.3242 3.62353 19.6262 3.96863 19.8994 4.34248C20.1726 4.71634 20.4171 5.10458 20.6327 5.49281L19.7269 6.58562C19.3961 6.98823 19.2955 7.54902 19.468 8.03791C19.6262 8.54118 20.0288 8.92941 20.5321 9.05882L21.9125 9.4183C21.97 9.86405 21.9988 10.3242 21.9988 10.7843C21.9988 11.2444 21.97 11.7046 21.9125 12.1503L20.5321 12.5098C20.0144 12.6536 19.6262 13.0562 19.4537 13.5451Z" fill="#F0AB00"/>
<path d="M4.83137 10.7987C4.83137 13.8471 7.04575 16.3778 9.96471 16.8667C10.2954 16.9242 10.6405 16.9529 10.9856 16.9529V19.685C10.468 19.685 9.96471 19.9438 9.67712 20.3895L8.91503 21.583C8.46928 21.4967 8.02353 21.3817 7.59216 21.2379C7.14641 21.0941 6.72941 20.9216 6.31242 20.7346L6.39869 19.3111C6.42745 18.7935 6.18301 18.2902 5.75163 17.9739C5.33464 17.6719 4.77386 17.5856 4.28497 17.7725L2.96209 18.2902C2.64575 17.9595 2.35817 17.6 2.08497 17.2261C1.81176 16.8523 1.56732 16.4641 1.35163 16.0758L2.25752 14.9686C2.58824 14.566 2.68889 14.0052 2.51634 13.5163C2.35817 13.0131 1.95556 12.6248 1.45229 12.4954L0.0718954 12.1359C0.0287582 11.719 0 11.2588 0 10.7987C0 10.3386 0.0287582 9.87843 0.0862745 9.43268L1.46667 9.0732C1.96993 8.94379 2.37255 8.55556 2.53072 8.05229C2.68889 7.54902 2.60261 7.00261 2.2719 6.6L1.36601 5.50719C1.5817 5.10458 1.82614 4.73072 2.09935 4.35686C2.37255 3.98301 2.66013 3.62353 2.97647 3.30719L4.29935 3.82484C4.78824 4.01177 5.34902 3.93987 5.76601 3.62353C6.19739 3.32157 6.44183 2.8183 6.41307 2.28627L6.3268 0.848366C6.74379 0.661438 7.16078 0.488889 7.60654 0.345098C8.05229 0.201307 8.49804 0.0862745 8.92941 0L9.6915 1.19346C9.97909 1.63922 10.468 1.89804 11 1.89804V4.63007C10.6549 4.63007 10.3098 4.65882 9.97909 4.71634C7.06013 5.21961 4.83137 7.75033 4.83137 10.7987Z" fill="#F5C12E"/>
<path d="M17.1542 10.7988C17.1542 14.2066 14.3935 16.953 11 16.953V14.221C12.8837 14.221 14.4222 12.6968 14.4222 10.7988C14.4222 8.90074 12.8837 7.37656 11 7.37656V4.64453C14.3935 4.64453 17.1542 7.40532 17.1542 10.7988Z" fill="#DD9900"/>
<path d="M7.57578 10.7985C7.57578 11.805 8.00715 12.6965 8.69734 13.3292C8.95617 13.5593 9.24375 13.7606 9.56009 13.9044C9.99146 14.1057 10.4804 14.2207 10.998 14.2207V16.9528C10.6529 16.9528 10.3078 16.924 9.97708 16.8665C7.05813 16.3776 4.84375 13.8469 4.84375 10.7985C4.84375 7.75014 7.05813 5.20505 9.97708 4.71616C10.3078 4.65864 10.6529 4.62988 10.998 4.62988V7.36191C10.4804 7.36191 9.99146 7.47694 9.56009 7.67825C9.24375 7.82204 8.94179 8.02335 8.69734 8.25341C8.00715 8.90047 7.57578 9.79197 7.57578 10.7985Z" fill="#EF9F00"/>
</svg>
