<svg width="64" height="66" viewBox="0 0 64 66" fill="none" xmlns="http://www.w3.org/2000/svg">
<ellipse cx="31.9836" cy="32.5167" rx="31.9836" ry="32.5167" fill="#F2C05F" fill-opacity="0.15"/>
<path fill-rule="evenodd" clip-rule="evenodd" d="M43.999 37.7842V45.6288C43.999 46.9423 42.9409 48.0004 41.6273 48.0004H26.7773C27.1422 48.0004 27.4341 47.7815 27.5071 47.4531C27.9449 45.8112 28.6746 44.3517 29.6598 43.0747C29.6598 43.0747 29.6598 43.0747 29.6598 43.0382C31.776 40.2653 35.0598 38.4409 38.7084 38.222V40.9585C38.7084 41.2504 38.8909 41.5058 39.1463 41.6517C39.1828 41.6517 39.2192 41.6882 39.2557 41.6882L43.999 37.7842Z" fill="#FCC844"/>
<path fill-rule="evenodd" clip-rule="evenodd" d="M41.5189 21H19.4811C18.1311 21 17 22.1311 17 23.5176V45.5189C17 46.8689 18.1311 48 19.4811 48H26.7784C27.1432 48 27.4351 47.7811 27.5081 47.4527C27.9459 45.8108 28.6757 44.3514 29.6608 43.0743C29.6608 43.0743 29.6608 43.0743 29.6608 43.0378C31.777 40.2649 35.0608 38.4405 38.7095 38.2216V40.9581C38.7095 41.25 38.8919 41.5054 39.1473 41.6514C39.1838 41.6514 39.2203 41.6878 39.2568 41.6878L44 37.7838V23.5176C44 22.1311 42.8689 21 41.5189 21ZM20.2108 25.4514C20.3568 25.3054 20.5392 25.2324 20.7216 25.2324H32.2878C32.6892 25.2324 33.0176 25.5608 33.0176 25.9622C33.0176 26.1446 32.9446 26.327 32.7986 26.473C32.6527 26.6189 32.5068 26.6919 32.2878 26.6919H20.7216C20.3203 26.6919 19.9919 26.3635 19.9919 25.9622C19.9919 25.7797 20.0649 25.5973 20.2108 25.4514ZM20.2108 28.1149C20.3568 27.9689 20.5392 27.8959 20.7216 27.8959H28.6392C29.0405 27.8959 29.3689 28.2243 29.3689 28.6257C29.3689 28.8081 29.2959 28.9905 29.15 29.1365C29.0041 29.2824 28.8216 29.3554 28.6392 29.3554H20.7216C20.3203 29.3554 19.9919 29.027 19.9919 28.6257C19.9919 28.4432 20.0649 28.2608 20.2108 28.1149ZM20.7216 32.0189C20.3203 32.0189 19.9919 31.6905 19.9919 31.2892C19.9919 31.1068 20.0649 30.9243 20.2108 30.7784C20.3568 30.6324 20.5392 30.5595 20.7216 30.5595H25.1C25.5014 30.5595 25.8297 30.8878 25.8297 31.2892C25.8297 31.4716 25.7568 31.6541 25.6108 31.8C25.4649 31.9459 25.2824 32.0189 25.1 32.0189H20.7216Z" fill="#F5C12E"/>
<path fill-rule="evenodd" clip-rule="evenodd" d="M46.666 35.2661C46.666 35.485 46.5565 35.6675 46.4106 35.8134L44.0025 37.7837L39.2592 41.6877C39.2227 41.6877 39.1863 41.6512 39.1498 41.6512C38.8944 41.5053 38.7119 41.2499 38.7119 40.958V38.2215C35.0633 38.4404 31.816 40.2648 29.6633 43.0377C29.6633 43.0377 29.6633 43.0377 29.6633 43.0742C28.6052 44.3148 27.839 45.8107 27.4011 47.4891C27.3281 47.781 27.0363 47.9999 26.7079 47.9999C26.3795 47.9999 26.1241 47.781 26.0146 47.4891C25.7592 46.431 25.6133 45.3729 25.6133 44.2783C25.6133 40.885 26.9268 37.6742 29.3349 35.2661C31.5971 33.0039 34.516 31.6904 37.6538 31.5445V28.9904C37.6538 28.735 37.7998 28.4796 38.0552 28.3702C38.3106 28.2607 38.6025 28.2972 38.7849 28.4796L42.5065 31.5445L44.0025 32.7485L46.4106 34.7553C46.593 34.8283 46.666 35.0472 46.666 35.2661Z" fill="#DD9900"/>
</svg>
