<svg width="17" height="17" viewBox="0 0 17 17" fill="none" xmlns="http://www.w3.org/2000/svg">
<path fill-rule="evenodd" clip-rule="evenodd" d="M8.5 0C13.1949 0 17 3.80508 17 8.5C17 13.1949 13.1949 17 8.5 17C3.80508 17 0 13.1949 0 8.5C0 3.80508 3.80508 0 8.5 0ZM12.2188 9.05781H10.6283L11.04 7.52383H12.4014C12.8629 7.52051 13.2348 7.14531 13.2314 6.68379C13.2281 6.22559 12.8596 5.85703 12.4014 5.85371H11.4883L11.7174 4.99707C11.8369 4.55215 11.5713 4.09395 11.1264 3.97441C10.6814 3.85488 10.2232 4.12051 10.1037 4.56543L9.7584 5.85371H8.31738L8.66269 4.56875C8.77891 4.12383 8.51328 3.66563 8.06836 3.54941C7.62676 3.4332 7.17187 3.69551 7.05234 4.13711L6.59082 5.85371H4.81445C4.35293 5.85703 3.98105 6.23223 3.98438 6.69375C3.9877 7.15195 4.35625 7.52051 4.81445 7.52383H6.14258L5.73086 9.05781H4.60195C4.14043 9.05449 3.76523 9.42637 3.76191 9.88789C3.75859 10.3494 4.13047 10.7246 4.59199 10.7279C4.59531 10.7279 4.59863 10.7279 4.60195 10.7279H5.28594L4.94394 12.0029C4.82441 12.4479 5.09004 12.9061 5.53496 13.0256C5.97988 13.1451 6.43809 12.8795 6.55762 12.4346L7.01582 10.7279H8.45684L7.99863 12.4312C7.88242 12.8762 8.14805 13.3344 8.59297 13.4506C9.03457 13.5668 9.48945 13.3045 9.60898 12.8629L10.1801 10.7279H12.2188C12.6803 10.7246 13.0521 10.3494 13.0488 9.88789C13.0455 9.42969 12.6736 9.06113 12.2188 9.05781ZM8.89844 9.05781L9.31016 7.52383H7.86914L7.45742 9.05781H8.89844Z" fill="#F0AB00"/>
</svg>
