<svg width="58" height="58" viewBox="0 0 58 58" fill="none" xmlns="http://www.w3.org/2000/svg">
<circle cx="29" cy="29" r="28.5" fill="white" stroke="#F5C12E"/>
<path d="M42.754 23.1429L35.1688 15.2678C34.9227 15.0108 34.5399 14.9288 34.2118 15.0655C33.8782 15.2022 33.6649 15.5194 33.6649 15.8749V19.6647H33.3751C27.1024 19.6647 22 24.7671 22 31.0398V32.7898C22 33.1945 22.2844 33.5336 22.6836 33.6265C22.7492 33.6429 22.8094 33.6484 22.875 33.6484C23.2031 33.6484 23.5203 33.457 23.6734 33.1507C25.3141 29.8695 28.6118 27.8296 32.2813 27.8296H33.6649V31.6249C33.6649 31.9804 33.8837 32.3031 34.2118 32.4343C34.5399 32.571 34.9227 32.489 35.1688 32.232L42.754 24.3569C43.0821 24.0179 43.0821 23.4819 42.754 23.1429Z" fill="#F5C12E"/>
<path d="M39.5001 43.0003H18.5C16.5695 43.0003 15 41.4308 15 39.5003V23.1651C15 21.2346 16.5695 19.665 18.5 19.665H22C22.6454 19.665 23.1649 20.1846 23.1649 20.8299C23.1649 21.4752 22.6454 22.0002 22 22.0002H18.5C17.8547 22.0002 17.3352 22.5252 17.3352 23.1651V39.5003C17.3352 40.1456 17.8602 40.6651 18.5 40.6651H39.5001C40.1454 40.6651 40.665 40.1401 40.665 39.5003V30.1651C40.665 29.5198 41.1845 29.0002 41.8298 29.0002C42.4751 29.0002 42.9947 29.5198 42.9947 30.1651V39.5003C43.0001 41.4308 41.4306 43.0003 39.5001 43.0003Z" fill="#F0AB00"/>
</svg>
