<svg width="58" height="58" viewBox="0 0 58 58" fill="none" xmlns="http://www.w3.org/2000/svg">
<circle cx="29" cy="29" r="28.5" fill="white" stroke="#F5C12E"/>
<path d="M19.3903 29.3493C19.3903 31.5364 20.0348 33.6215 21.2359 35.4403C21.0191 35.3666 20.8082 35.2817 20.5973 35.1967L15.3944 37.7577C15.2655 37.82 15.1308 37.8484 14.996 37.8484C14.4043 37.8484 13.9766 37.2874 14.1582 36.7435L15.869 31.5477C14.6445 29.8819 14 27.9554 14 25.9496C14 20.2213 19.2145 15.7507 25.4251 15.7507C27.7043 15.7507 29.9131 16.3627 31.7763 17.4732C25.056 17.8358 19.3903 22.839 19.3903 29.3493Z" fill="#F0AB00"/>
<path d="M42.1296 34.9417C43.3541 33.2816 43.9986 31.3551 43.9986 29.3493C43.9986 23.6209 38.7782 19.1504 32.5735 19.1504C26.3688 19.1504 21.1484 23.6209 21.1484 29.3493C21.1484 35.0777 26.3688 39.5482 32.5735 39.5482C34.2375 39.5482 35.8956 39.2196 37.4014 38.5963L42.6042 41.1574C42.9206 41.3104 43.3014 41.2707 43.5709 41.0497C43.8404 40.8287 43.9459 40.4718 43.8404 40.1432L42.1296 34.9417ZM28.9995 30.1992C28.5132 30.1992 28.1207 29.8196 28.1207 29.3493C28.1207 28.879 28.5132 28.4994 28.9995 28.4994C29.4858 28.4994 29.8784 28.879 29.8784 29.3493C29.8784 29.8196 29.4858 30.1992 28.9995 30.1992ZM32.5149 30.1992C32.0286 30.1992 31.6361 29.8196 31.6361 29.3493C31.6361 28.879 32.0286 28.4994 32.5149 28.4994C33.0012 28.4994 33.3938 28.879 33.3938 29.3493C33.3938 29.8196 33.0012 30.1992 32.5149 30.1992ZM36.0304 30.1992C35.5441 30.1992 35.1515 29.8196 35.1515 29.3493C35.1515 28.879 35.5441 28.4994 36.0304 28.4994C36.5167 28.4994 36.9092 28.879 36.9092 29.3493C36.9092 29.8196 36.5167 30.1992 36.0304 30.1992Z" fill="#F5C12E"/>
</svg>
