<svg width="33" height="33" viewBox="0 0 33 33" fill="none" xmlns="http://www.w3.org/2000/svg">
<circle cx="16.5" cy="16.5" r="16" fill="white" stroke="#F5C12E"/>
<path d="M10.0172 19.7725C7.32771 17.0829 7.32777 12.7067 10.0172 10.0172C12.7067 7.32762 17.0829 7.32762 19.7724 10.0172C22.0541 12.2989 22.3997 15.6923 20.81 18.3423C20.81 18.3423 20.6958 18.5338 20.85 18.688C21.7298 19.5677 24.3694 22.2073 24.3694 22.2073C25.0699 22.9077 25.2366 23.8872 24.6154 24.5085L24.5085 24.6153C23.8873 25.2366 22.9078 25.0699 22.2073 24.3694C22.2073 24.3694 19.5734 21.7354 18.6954 20.8575C18.5338 20.6959 18.3423 20.8101 18.3423 20.8101C15.6924 22.3997 12.2989 22.0542 10.0172 19.7725ZM18.4989 18.4989C20.4862 16.5116 20.4861 13.2781 18.4988 11.2908C16.5115 9.30357 13.278 9.30352 11.2908 11.2908C9.3035 13.278 9.3035 16.5116 11.2908 18.4989C13.2781 20.4861 16.5115 20.4861 18.4989 18.4989Z" fill="#F5C12E"/>
<path d="M18.0597 14.4854C18.1522 14.4854 18.2462 14.4673 18.3368 14.429C18.6989 14.2757 18.8683 13.858 18.715 13.4959C17.7519 11.2199 15.1168 10.1519 12.8409 11.115C12.4789 11.2682 12.3095 11.6859 12.4627 12.048C12.616 12.4101 13.0336 12.5794 13.3959 12.4262C14.9487 11.7692 16.7467 12.4979 17.4037 14.0507C17.5186 14.3223 17.7823 14.4854 18.0597 14.4854Z" fill="#F0AB00"/>
</svg>
