<svg width="17" height="17" viewBox="0 0 17 17" fill="none" xmlns="http://www.w3.org/2000/svg">
<path d="M2.01719 11.7725C-0.672289 9.08292 -0.672234 4.70669 2.01719 2.01715C4.70673 -0.672384 9.0829 -0.672384 11.7724 2.01715C14.0541 4.29886 14.3997 7.69234 12.81 10.3423C12.81 10.3423 12.6958 10.5338 12.85 10.688C13.7298 11.5677 16.3694 14.2073 16.3694 14.2073C17.0699 14.9077 17.2366 15.8872 16.6154 16.5085L16.5085 16.6153C15.8873 17.2366 14.9078 17.0699 14.2073 16.3694C14.2073 16.3694 11.5734 13.7354 10.6954 12.8575C10.5338 12.6959 10.3423 12.8101 10.3423 12.8101C7.69238 14.3997 4.2989 14.0542 2.01719 11.7725ZM10.4989 10.4989C12.4862 8.51162 12.4861 5.2781 10.4988 3.29081C8.51155 1.30357 5.27804 1.30352 3.2908 3.29081C1.3035 5.27805 1.3035 8.51162 3.2908 10.4989C5.27809 12.4861 8.51155 12.4861 10.4989 10.4989Z" fill="#F5C12E"/>
<path d="M10.0597 6.48544C10.1522 6.48544 10.2462 6.46725 10.3368 6.42897C10.6989 6.27574 10.8683 5.858 10.715 5.4959C9.75193 3.21994 7.11683 2.15187 4.84093 3.11496C4.47888 3.26819 4.3095 3.68593 4.46273 4.04803C4.61601 4.41014 5.03365 4.57941 5.39586 4.42624C6.94865 3.76917 8.74668 4.49792 9.40369 6.05072C9.51864 6.32229 9.78227 6.48544 10.0597 6.48544Z" fill="#F0AB00"/>
</svg>
