<svg width="17" height="17" viewBox="0 0 17 17" fill="none" xmlns="http://www.w3.org/2000/svg">
<path d="M16.3553 13.5627C16.3553 13.5491 16.3519 13.5355 16.3519 13.5253C16.3485 13.498 16.3485 13.4708 16.3485 13.4436C16.3485 13.4027 16.3519 13.3619 16.3553 13.3211C16.3553 13.3075 16.3587 13.2938 16.3621 13.2802C16.3621 13.2666 16.3655 13.253 16.3689 13.2394C16.3723 13.2258 16.3723 13.2122 16.3757 13.202C16.3825 13.1747 16.3893 13.1509 16.3961 13.1237C16.3995 13.1101 16.4029 13.0964 16.4097 13.0862C16.5084 12.797 16.7228 12.5621 16.9951 12.4396C16.9508 12.2592 16.8862 12.0891 16.8113 11.9223C16.8045 11.9053 16.7977 11.8883 16.7875 11.8713C16.7501 11.7896 16.7058 11.7079 16.6616 11.6262C16.648 11.6296 16.6377 11.6364 16.6241 11.6398C16.6105 11.6433 16.6003 11.6467 16.5867 11.6501C16.2123 11.7624 15.7903 11.6705 15.4908 11.3778C15.3241 11.211 15.222 11.0034 15.188 10.7856C15.1539 10.5916 15.1743 10.3943 15.2424 10.2105C14.9906 10.0675 14.7217 9.95523 14.4324 9.87695C14.2589 10.2581 13.8811 10.527 13.4319 10.527C13.4114 10.527 13.3944 10.527 13.374 10.527C12.707 11.0647 11.9344 11.4084 11.1313 11.5582C10.859 11.7113 10.5357 11.7419 10.243 11.6467C10.226 11.6433 10.2124 11.6364 10.1954 11.6296C10.1919 11.6364 10.1885 11.6398 10.1851 11.6467C10.049 11.8985 9.94011 12.1605 9.86523 12.4396C10.1443 12.5689 10.3587 12.8072 10.454 13.0999C10.488 13.2088 10.5085 13.3211 10.5085 13.4402C10.5085 13.8826 10.243 14.2672 9.86523 14.4407C9.94691 14.7266 10.0592 14.9989 10.1954 15.2473C10.5833 15.1078 11.0326 15.1827 11.3457 15.4821L11.3491 15.4855C11.3491 15.4855 11.3491 15.4855 11.3525 15.4855C11.3559 15.4889 11.3593 15.4889 11.3593 15.4924C11.3593 15.4924 11.3627 15.4958 11.3627 15.4992C11.3763 15.5128 11.3865 15.523 11.4001 15.5366C11.4035 15.54 11.4069 15.5434 11.4103 15.5502C11.4171 15.557 11.4239 15.5672 11.4307 15.574C11.4341 15.5774 11.4375 15.5808 11.441 15.5876C11.4512 15.6013 11.4614 15.6149 11.4716 15.6285C11.4818 15.6387 11.4886 15.6523 11.4954 15.6625C11.5022 15.6693 11.5056 15.6795 11.5124 15.6863C11.5158 15.6931 11.5226 15.7034 11.526 15.7102C11.5294 15.7136 11.5328 15.717 11.5328 15.7204C11.543 15.734 11.5499 15.751 11.5567 15.7646C11.5635 15.7782 11.5737 15.7952 11.5805 15.8089C11.5805 15.8123 11.5839 15.8123 11.5839 15.8157C11.5907 15.8327 11.5975 15.8463 11.6043 15.8633C11.6111 15.8803 11.6179 15.8973 11.6247 15.9144C11.6315 15.9314 11.6349 15.9484 11.6417 15.962C11.6417 15.9654 11.6417 15.9654 11.6417 15.9688C11.6451 15.9824 11.652 15.996 11.652 16.0131C11.652 16.0165 11.652 16.0165 11.652 16.0199C11.6554 16.0369 11.6588 16.0539 11.6622 16.0709C11.6656 16.0879 11.669 16.1049 11.6724 16.122C11.6758 16.1424 11.6758 16.1594 11.6792 16.1798C11.6826 16.1968 11.6826 16.2104 11.6826 16.2275C11.6826 16.2445 11.6826 16.2615 11.6826 16.2785C11.6826 16.3125 11.6826 16.3432 11.6792 16.3772C11.6758 16.401 11.6758 16.4283 11.669 16.4521C11.6588 16.5269 11.6383 16.5984 11.6111 16.6699C11.863 16.806 12.1352 16.9183 12.4211 17C12.4279 16.9864 12.4347 16.9694 12.4415 16.9558C12.4415 16.9558 12.4415 16.9524 12.4449 16.9524C12.4517 16.9387 12.4585 16.9285 12.4653 16.9183C12.4687 16.9149 12.4687 16.9115 12.4721 16.9081C12.4755 16.8979 12.4824 16.8911 12.4858 16.8843C12.4892 16.8775 12.4926 16.8707 12.4994 16.8673C12.513 16.8435 12.5266 16.823 12.5436 16.8026C12.5504 16.7924 12.5606 16.7822 12.5674 16.772C12.5742 16.7618 12.581 16.755 12.5879 16.7448C12.5947 16.7345 12.6015 16.7277 12.6117 16.7175C12.6219 16.7073 12.6321 16.6937 12.6457 16.6835C12.6661 16.6631 12.69 16.6427 12.7138 16.6222L12.7172 16.6188C12.741 16.5984 12.7648 16.5814 12.7886 16.561C12.8057 16.5474 12.8227 16.5372 12.8397 16.5269C12.8567 16.5167 12.8737 16.5065 12.8907 16.4963C12.901 16.4895 12.9146 16.4827 12.9248 16.4793C12.9418 16.4691 12.9588 16.4623 12.9792 16.4555C12.9962 16.4487 13.0167 16.4385 13.0337 16.4317C13.0575 16.4214 13.0847 16.4146 13.1086 16.4044C13.1222 16.401 13.1324 16.3976 13.146 16.3942C13.1562 16.3908 13.1664 16.3908 13.1766 16.3874C13.1868 16.384 13.197 16.384 13.2072 16.3806C13.2277 16.3772 13.2481 16.3738 13.2685 16.3704C13.323 16.3636 13.3774 16.3568 13.4319 16.3568C13.4863 16.3568 13.5408 16.3602 13.5952 16.3704C13.6156 16.3738 13.6327 16.3772 13.6531 16.3806C13.6735 16.384 13.6939 16.3908 13.7143 16.3942C13.7279 16.3976 13.7416 16.401 13.7518 16.4044C13.7756 16.4112 13.8028 16.4214 13.8266 16.4317C13.8437 16.4385 13.8641 16.4453 13.8811 16.4555C13.8981 16.4623 13.9151 16.4725 13.9321 16.4793C13.9526 16.4895 13.973 16.4997 13.9934 16.5133C14.0036 16.5167 14.0104 16.5235 14.0206 16.5304C14.0376 16.5406 14.0547 16.5542 14.0717 16.5644C14.1227 16.6018 14.1704 16.6427 14.2146 16.6835C14.2248 16.6937 14.2384 16.7073 14.2487 16.7175C14.2589 16.7277 14.2691 16.738 14.2793 16.7516C14.2861 16.7618 14.2963 16.7686 14.3031 16.7788C14.3065 16.7856 14.3133 16.789 14.3167 16.7958C14.3337 16.8162 14.3473 16.84 14.3644 16.8639C14.3712 16.8707 14.3746 16.8809 14.378 16.8877C14.3848 16.8979 14.3916 16.9081 14.395 16.9183C14.4018 16.9285 14.4086 16.9421 14.412 16.9524V16.9558C14.4188 16.9694 14.4256 16.983 14.4324 17C14.7183 16.9251 14.9872 16.8094 15.239 16.6699C15.2186 16.612 15.2016 16.5508 15.188 16.4895C15.1845 16.4793 15.1846 16.4657 15.1811 16.4555V16.4521C15.1811 16.4419 15.1777 16.4317 15.1777 16.4214C15.1777 16.4146 15.1743 16.4112 15.1743 16.4044C15.1743 16.3976 15.1709 16.3874 15.1709 16.3806C15.1675 16.3466 15.1675 16.3159 15.1675 16.2819C15.1675 16.2649 15.1675 16.2479 15.1675 16.2309C15.1675 16.2138 15.1675 16.1968 15.1709 16.1798C15.1709 16.1628 15.1743 16.1424 15.1777 16.122C15.1811 16.1049 15.1811 16.0879 15.188 16.0709C15.1914 16.0539 15.1948 16.0369 15.1982 16.0199C15.2016 16.0028 15.2084 15.9858 15.2118 15.9688C15.2152 15.9518 15.222 15.9348 15.2288 15.9212C15.2288 15.9212 15.2288 15.9178 15.2288 15.9144C15.2322 15.8973 15.239 15.8837 15.2458 15.8667C15.2458 15.8667 15.2458 15.8667 15.2458 15.8633C15.2492 15.8497 15.256 15.8395 15.2628 15.8259C15.2662 15.8191 15.2696 15.8123 15.273 15.8055C15.2798 15.7918 15.2866 15.7782 15.2935 15.7646C15.3003 15.7476 15.3105 15.734 15.3207 15.717C15.3309 15.7 15.3377 15.6863 15.3479 15.6693C15.3581 15.6557 15.3683 15.6387 15.3785 15.6251C15.3887 15.6115 15.399 15.5979 15.4092 15.5808C15.4126 15.5774 15.4126 15.5774 15.416 15.574C15.4262 15.5604 15.4364 15.5502 15.4466 15.5366C15.4466 15.5366 15.4466 15.5366 15.45 15.5332C15.4602 15.5196 15.4738 15.506 15.4874 15.4924C15.5691 15.4107 15.661 15.346 15.7563 15.295C15.7733 15.2848 15.7903 15.2779 15.8039 15.2711C15.838 15.2575 15.872 15.2439 15.9026 15.2303C15.9128 15.2269 15.9265 15.2235 15.9367 15.2201C15.9503 15.2167 15.9639 15.2133 15.9741 15.2099C15.9911 15.2031 16.0115 15.1997 16.032 15.1963C16.0354 15.1963 16.0388 15.1929 16.0422 15.1929C16.0524 15.1895 16.0626 15.1895 16.0728 15.1861C16.0864 15.1827 16.1 15.1827 16.1102 15.1793C16.1273 15.1758 16.1443 15.1758 16.1579 15.1724C16.1613 15.1724 16.1613 15.1724 16.1647 15.1724C16.1817 15.169 16.1987 15.169 16.2157 15.169C16.2328 15.169 16.2498 15.169 16.2668 15.169C16.3178 15.169 16.3655 15.1724 16.4131 15.1793C16.4301 15.1827 16.4472 15.1827 16.4608 15.1861C16.5254 15.1963 16.5901 15.2133 16.6514 15.2371C16.6684 15.2065 16.6854 15.1758 16.7024 15.1452C16.7875 14.9819 16.859 14.8117 16.9168 14.6347C16.9372 14.5701 16.9577 14.502 16.9781 14.4373C16.9781 14.4373 16.9781 14.4373 16.9781 14.4339C16.648 14.2842 16.3961 13.9575 16.3553 13.5627ZM13.4319 14.2978C12.9588 14.2978 12.5742 13.9132 12.5742 13.4402C12.5742 12.9671 12.9588 12.5826 13.4319 12.5826C13.9049 12.5826 14.2895 12.9671 14.2895 13.4402C14.2895 13.9132 13.9083 14.2978 13.4319 14.2978Z" fill="#F0AB00"/>
<path opacity="0.12" d="M16.349 13.4436C16.349 12.9977 16.6145 12.6132 16.9956 12.4396C16.9208 12.1537 16.8085 11.8815 16.6655 11.6262C16.3728 11.7385 16.0461 11.7215 15.7637 11.5718C15.6547 13.7567 13.8476 15.4923 11.6389 15.4923C11.5436 15.4923 11.4449 15.4889 11.3496 15.4821C11.3564 15.4855 11.3632 15.4923 11.37 15.4992C11.6865 15.8157 11.7682 16.2785 11.6219 16.6733C11.8737 16.8094 12.146 16.9217 12.4318 17C12.6054 16.6188 12.99 16.3568 13.4358 16.3568C13.8782 16.3568 14.2662 16.6188 14.4364 17C14.7223 16.9251 14.9911 16.8094 15.2464 16.6733C15.1034 16.2819 15.1817 15.8157 15.4982 15.4992C15.8147 15.1861 16.2775 15.1044 16.6655 15.2473C16.8085 15.0023 16.914 14.7266 16.9956 14.4441C16.6145 14.2706 16.349 13.8928 16.349 13.4436Z" fill="black"/>
<path d="M3.4375 12.3988L5.47606 10.3602L6.38814 11.2723L4.34958 13.3109L3.4375 12.3988Z" fill="#F0AB00"/>
<path d="M16.6958 5.79983C16.6924 5.76239 16.6856 5.72836 16.6822 5.69092C16.6754 5.63988 16.6686 5.58883 16.6583 5.53437C16.6515 5.48333 16.6413 5.43228 16.6311 5.37782C16.5903 5.1464 16.5358 4.91498 16.4678 4.68696C16.461 4.66314 16.4542 4.63591 16.4439 4.61209C16.4201 4.53722 16.3963 4.46234 16.3691 4.38747C16.3521 4.33642 16.335 4.28878 16.3146 4.23773C16.2023 3.93824 16.0662 3.64896 15.9096 3.36649C15.8892 3.32905 15.8654 3.29162 15.845 3.25078C15.8348 3.23376 15.8245 3.21675 15.8143 3.19973C15.7905 3.16229 15.7701 3.12486 15.7463 3.08742C15.719 3.04318 15.6884 2.99553 15.6578 2.95129C15.5183 2.73688 15.3617 2.53269 15.1949 2.33189C15.1541 2.28425 15.1167 2.24001 15.0724 2.19236C14.9907 2.10047 14.9057 2.00858 14.8172 1.9235C14.7934 1.89968 14.7661 1.87586 14.7423 1.85203C14.6572 1.77035 14.5687 1.68868 14.4803 1.6104C14.4598 1.58998 14.436 1.57297 14.4156 1.55255C14.3884 1.52872 14.3611 1.5049 14.3339 1.48448C14.3101 1.46406 14.2863 1.44364 14.259 1.42322C14.2556 1.41982 14.2522 1.41641 14.2488 1.41301C14.2216 1.38919 14.191 1.36877 14.1637 1.34495C14.0787 1.28028 13.9902 1.21562 13.9017 1.15436C13.8711 1.13394 13.8438 1.11352 13.8132 1.0931C13.7826 1.07268 13.752 1.05226 13.7247 1.03525C13.6362 0.977392 13.5444 0.92294 13.4525 0.868488C10.9511 -0.571097 7.70093 -0.220559 5.56368 1.9167C5.24037 2.24001 4.95449 2.59054 4.71286 2.9581C3.77356 4.39087 3.45365 6.10953 3.75314 7.73629C3.94712 8.79811 4.40656 9.81909 5.12806 10.6971C5.26419 10.8639 5.40713 11.0239 5.56368 11.177C5.64536 11.2587 5.72704 11.337 5.81212 11.4118C5.87338 11.4663 5.93463 11.5207 5.99589 11.5718C6.00951 11.582 6.02312 11.5956 6.04014 11.6058C6.21711 11.7522 6.40429 11.8883 6.59147 12.0142C6.63571 12.0448 6.68335 12.0721 6.7276 12.1027C6.77524 12.1299 6.81949 12.1605 6.86713 12.1878C6.95902 12.2422 7.05431 12.2967 7.1496 12.3443C7.22107 12.3818 7.29254 12.4192 7.36401 12.4532C7.38783 12.4634 7.41165 12.4771 7.43548 12.4873C7.4593 12.4975 7.48312 12.5111 7.50695 12.5213C7.58182 12.5553 7.65329 12.586 7.72816 12.6166C7.80303 12.6472 7.8745 12.6744 7.94937 12.7017C8.00042 12.7187 8.04807 12.7357 8.09912 12.7527C8.19781 12.7867 8.2931 12.8174 8.3918 12.8446C8.49049 12.8718 8.58919 12.8991 8.68788 12.9229C8.74914 12.9365 8.8138 12.9501 8.87506 12.9637C9.04182 12.9978 9.20858 13.025 9.37534 13.0454C9.45022 13.0556 9.52509 13.0624 9.59996 13.0692C9.6374 13.0726 9.67143 13.076 9.70886 13.0794C9.96071 13.0998 10.2091 13.1033 10.461 13.093C12.0469 13.0284 13.6124 12.392 14.824 11.1804C14.9533 11.0511 15.0758 10.9149 15.1915 10.7788C15.229 10.7346 15.2664 10.6869 15.3038 10.6427C15.3583 10.5746 15.4127 10.5066 15.4638 10.4351C15.5148 10.3636 15.5659 10.2921 15.6135 10.2207C15.6612 10.1526 15.7054 10.0845 15.7463 10.0165C15.7769 9.97224 15.8041 9.9246 15.8314 9.87695C15.8722 9.80888 15.913 9.73742 15.9505 9.66595C16.09 9.4073 16.2125 9.13844 16.3146 8.86618C16.3316 8.81513 16.3521 8.76748 16.3691 8.71643C16.3963 8.64156 16.4201 8.56669 16.4439 8.49182C16.4507 8.46459 16.461 8.44077 16.4678 8.41695C16.5358 8.18893 16.5903 7.9575 16.6311 7.72608C16.6413 7.67503 16.6481 7.62398 16.6583 7.56953C16.6652 7.51848 16.672 7.46743 16.6822 7.41298C16.6856 7.37895 16.6924 7.34151 16.6958 7.30408C16.7536 6.8106 16.7536 6.30351 16.6958 5.79983ZM7.17683 10.6563C6.97263 10.5066 6.77865 10.3398 6.59487 10.156C5.64876 9.20991 5.15529 7.98473 5.11104 6.74254C5.25738 6.54174 5.3765 6.32393 5.46839 6.08911H6.38727L7.05771 5.49694L7.65669 6.02445L8.25567 5.49694L8.85805 6.02445L9.45702 5.49694L10.1275 6.08911H10.6958L11.9176 5.07493L10.6924 4.05735H5.75766C5.97888 3.66257 6.25795 3.29162 6.59147 2.9581C8.57557 0.973989 11.8053 0.973989 13.7894 2.9581C13.9732 3.14187 14.1399 3.33926 14.2897 3.54006C15.7531 5.53097 15.5863 8.35228 13.7894 10.1526C13.6567 10.2853 13.5205 10.4079 13.3776 10.5236C12.7106 11.0613 11.938 11.405 11.1348 11.5548C10.8422 11.6092 10.5427 11.6398 10.2466 11.6432C10.2296 11.6398 10.216 11.633 10.1989 11.6262C10.1955 11.633 10.1921 11.6364 10.1887 11.6432C9.13031 11.6432 8.06849 11.3131 7.17683 10.6563Z" fill="#F0AB00"/>
<path d="M11.9155 5.07153L10.6937 6.08571H10.1253L9.4549 5.49354L8.85592 6.02105L8.25354 5.49354L7.65457 6.02105L7.05559 5.49354L6.38515 6.08571H5.46626C5.37778 6.32053 5.25526 6.53834 5.10892 6.73914C5.07489 5.81345 5.2927 4.88095 5.75894 4.05396H10.6937L11.9155 5.07153Z" fill="#E8F1F8"/>
<path d="M10.2478 11.6432C10.2274 11.6432 10.2104 11.6432 10.1934 11.6432C10.1968 11.6364 10.2002 11.633 10.2036 11.6262C10.2172 11.633 10.2342 11.6364 10.2478 11.6432Z" fill="#E8F1F8"/>
<path d="M1.66105 16.578L5.31616 12.9229C5.54078 12.6983 5.54078 12.3307 5.31616 12.1061L4.64232 11.4323C4.4177 11.2076 4.05015 11.2076 3.82553 11.4323L0.170415 15.0874C-0.0542009 15.312 -0.0542009 15.6795 0.170415 15.9042L0.844263 16.578C1.06888 16.806 1.43643 16.806 1.66105 16.578Z" fill="#F5C12E"/>
<path d="M10.6931 4.05737H5.46566C5.3023 3.63536 5.04365 3.2644 4.71353 2.96832C4.21325 2.51909 3.55302 2.24683 2.82812 2.24683C1.26602 2.24683 0 3.51284 0 5.07154C0 6.63364 1.26602 7.89966 2.82812 7.89966C3.15143 7.89966 3.46453 7.84521 3.75381 7.74311C4.30174 7.55253 4.77479 7.19859 5.11172 6.73915C5.25806 6.53835 5.37717 6.32054 5.46906 6.08572H6.38794L7.05839 5.49355L7.65736 6.02106L8.25634 5.49355L8.85872 6.02106L9.4577 5.49355L10.1281 6.08572H10.6965L11.9183 5.07154L10.6931 4.05737ZM2.08621 5.81346C1.67781 5.81346 1.34429 5.47993 1.34429 5.07495C1.34429 4.66655 1.67781 4.33303 2.08621 4.33303C2.4946 4.33303 2.82472 4.66655 2.82472 5.07495C2.82812 5.47993 2.4946 5.81346 2.08621 5.81346Z" fill="#F5C12E"/>
</svg>
