<svg width="17" height="17" viewBox="0 0 17 17" fill="none" xmlns="http://www.w3.org/2000/svg">
<path d="M16.8507 4.94389L12.2454 0.162613C12.0959 0.00655801 11.8635 -0.0432469 11.6643 0.0397613C11.4618 0.12277 11.3323 0.315349 11.3323 0.53117V2.83216H11.1563C7.34787 2.83216 4.25 5.93003 4.25 9.73844V10.8009C4.25 11.0467 4.42266 11.2525 4.66504 11.309C4.70489 11.3189 4.74141 11.3222 4.78125 11.3222C4.98047 11.3222 5.17305 11.206 5.26602 11.0201C6.26212 9.02789 8.26428 7.78941 10.4922 7.78941H11.3323V10.0937C11.3323 10.3095 11.4651 10.5054 11.6643 10.5851C11.8635 10.6681 12.0959 10.6183 12.2454 10.4623L16.8507 5.681C17.0499 5.47514 17.0499 5.14975 16.8507 4.94389Z" fill="#F5C12E"/>
<path d="M14.8751 17.0001H2.12501C0.952935 17.0001 0 16.0472 0 14.8751V4.95729C0 3.78521 0.952935 2.83228 2.12501 2.83228H4.25002C4.64182 2.83228 4.95725 3.14771 4.95725 3.53951C4.95725 3.9313 4.64182 4.25006 4.25002 4.25006H2.12501C1.73321 4.25006 1.41778 4.56881 1.41778 4.95729V14.8751C1.41778 15.2669 1.73653 15.5823 2.12501 15.5823H14.8751C15.2669 15.5823 15.5823 15.2636 15.5823 14.8751V9.20731C15.5823 8.81551 15.8977 8.50008 16.2895 8.50008C16.6813 8.50008 16.9968 8.81551 16.9968 9.20731V14.8751C17.0001 16.0472 16.0472 17.0001 14.8751 17.0001Z" fill="#F0AB00"/>
</svg>
