<svg width="23" height="15" viewBox="0 0 23 15" fill="none" xmlns="http://www.w3.org/2000/svg">
<path d="M11.2037 3.60571C9.21417 3.60571 7.59766 5.22223 7.59766 7.21179C7.59766 9.20135 9.21417 10.8179 11.2037 10.8179C13.1933 10.8179 14.8098 9.20135 14.8098 7.21179C14.8098 5.22223 13.1933 3.60571 11.2037 3.60571ZM10.9302 6.1424C10.4825 6.1424 10.1095 6.51544 10.1095 6.9631H8.91574C8.94061 5.84397 9.83591 4.94867 10.9302 4.94867V6.1424Z" fill="#F5C12E"/>
<path d="M22.1463 6.46607C20.9277 4.94903 16.5755 0 11.2037 0C5.8319 0 1.47974 4.94903 0.26113 6.46607C-0.0870433 6.88885 -0.0870433 7.51059 0.26113 7.95824C1.47974 9.47528 5.8319 14.4243 11.2037 14.4243C16.5755 14.4243 20.9277 9.47528 22.1463 7.95824C22.4945 7.53546 22.4945 6.91372 22.1463 6.46607ZM11.2037 12.4348C8.31885 12.4348 5.98112 10.097 5.98112 7.21216C5.98112 4.32729 8.31885 1.98956 11.2037 1.98956C14.0886 1.98956 16.4263 4.32729 16.4263 7.21216C16.4263 10.097 14.0886 12.4348 11.2037 12.4348Z" fill="#F0AB00"/>
</svg>
