<svg width="33" height="33" viewBox="0 0 33 33" fill="none" xmlns="http://www.w3.org/2000/svg">
<circle cx="16.5" cy="16.5" r="16" fill="white" stroke="#F5C12E"/>
<path d="M24.3572 21.5627C24.3572 21.5491 24.3538 21.5355 24.3538 21.5253C24.3504 21.498 24.3504 21.4708 24.3504 21.4436C24.3504 21.4027 24.3538 21.3619 24.3572 21.3211C24.3572 21.3075 24.3606 21.2938 24.364 21.2802C24.364 21.2666 24.3674 21.253 24.3708 21.2394C24.3742 21.2258 24.3742 21.2122 24.3776 21.202C24.3845 21.1747 24.3913 21.1509 24.3981 21.1237C24.4015 21.1101 24.4049 21.0964 24.4117 21.0862C24.5104 20.797 24.7248 20.5621 24.997 20.4396C24.9528 20.2592 24.8881 20.0891 24.8133 19.9223C24.8065 19.9053 24.7997 19.8883 24.7894 19.8713C24.752 19.7896 24.7078 19.7079 24.6635 19.6262C24.6499 19.6296 24.6397 19.6364 24.6261 19.6398C24.6125 19.6433 24.6023 19.6467 24.5887 19.6501C24.2143 19.7624 23.7923 19.6705 23.4928 19.3778C23.326 19.211 23.2239 19.0034 23.1899 18.7856C23.1559 18.5916 23.1763 18.3943 23.2444 18.2105C22.9925 18.0675 22.7237 17.9552 22.4344 17.877C22.2608 18.2581 21.883 18.527 21.4338 18.527C21.4134 18.527 21.3964 18.527 21.376 18.527C20.7089 19.0647 19.9364 19.4084 19.1332 19.5582C18.8609 19.7113 18.5376 19.7419 18.245 19.6467C18.2279 19.6433 18.2143 19.6364 18.1973 19.6296C18.1939 19.6364 18.1905 19.6398 18.1871 19.6467C18.051 19.8985 17.9421 20.1605 17.8672 20.4396C18.1463 20.5689 18.3607 20.8072 18.456 21.0999C18.49 21.2088 18.5104 21.3211 18.5104 21.4402C18.5104 21.8826 18.245 22.2672 17.8672 22.4407C17.9489 22.7266 18.0612 22.9989 18.1973 23.2473C18.5853 23.1078 19.0345 23.1827 19.3476 23.4821L19.351 23.4855C19.351 23.4855 19.351 23.4855 19.3544 23.4855C19.3578 23.4889 19.3612 23.4889 19.3612 23.4924C19.3612 23.4924 19.3646 23.4958 19.3646 23.4992C19.3782 23.5128 19.3885 23.523 19.4021 23.5366C19.4055 23.54 19.4089 23.5434 19.4123 23.5502C19.4191 23.557 19.4259 23.5672 19.4327 23.574C19.4361 23.5774 19.4395 23.5808 19.4429 23.5876C19.4531 23.6013 19.4633 23.6149 19.4735 23.6285C19.4837 23.6387 19.4905 23.6523 19.4974 23.6625C19.5042 23.6693 19.5076 23.6795 19.5144 23.6863C19.5178 23.6931 19.5246 23.7034 19.528 23.7102C19.5314 23.7136 19.5348 23.717 19.5348 23.7204C19.545 23.734 19.5518 23.751 19.5586 23.7646C19.5654 23.7782 19.5756 23.7952 19.5824 23.8089C19.5824 23.8123 19.5858 23.8123 19.5858 23.8157C19.5926 23.8327 19.5995 23.8463 19.6063 23.8633C19.6131 23.8803 19.6199 23.8973 19.6267 23.9144C19.6335 23.9314 19.6369 23.9484 19.6437 23.962C19.6437 23.9654 19.6437 23.9654 19.6437 23.9688C19.6471 23.9824 19.6539 23.996 19.6539 24.0131C19.6539 24.0165 19.6539 24.0165 19.6539 24.0199C19.6573 24.0369 19.6607 24.0539 19.6641 24.0709C19.6675 24.0879 19.6709 24.1049 19.6743 24.122C19.6777 24.1424 19.6777 24.1594 19.6811 24.1798C19.6845 24.1968 19.6845 24.2104 19.6845 24.2275C19.6845 24.2445 19.6845 24.2615 19.6845 24.2785C19.6845 24.3125 19.6845 24.3432 19.6811 24.3772C19.6777 24.401 19.6777 24.4283 19.6709 24.4521C19.6607 24.5269 19.6403 24.5984 19.6131 24.6699C19.8649 24.806 20.1372 24.9183 20.423 25C20.4299 24.9864 20.4367 24.9694 20.4435 24.9558C20.4435 24.9558 20.4435 24.9524 20.4469 24.9524C20.4537 24.9387 20.4605 24.9285 20.4673 24.9183C20.4707 24.9149 20.4707 24.9115 20.4741 24.9081C20.4775 24.8979 20.4843 24.8911 20.4877 24.8843C20.4911 24.8775 20.4945 24.8707 20.5013 24.8673C20.5149 24.8435 20.5285 24.823 20.5456 24.8026C20.5524 24.7924 20.5626 24.7822 20.5694 24.772C20.5762 24.7618 20.583 24.755 20.5898 24.7448C20.5966 24.7345 20.6034 24.7277 20.6136 24.7175C20.6238 24.7073 20.634 24.6937 20.6477 24.6835C20.6681 24.6631 20.6919 24.6427 20.7157 24.6222L20.7191 24.6188C20.743 24.5984 20.7668 24.5814 20.7906 24.561C20.8076 24.5474 20.8246 24.5372 20.8416 24.5269C20.8587 24.5167 20.8757 24.5065 20.8927 24.4963C20.9029 24.4895 20.9165 24.4827 20.9267 24.4793C20.9437 24.4691 20.9608 24.4623 20.9812 24.4555C20.9982 24.4487 21.0186 24.4385 21.0356 24.4317C21.0595 24.4214 21.0867 24.4146 21.1105 24.4044C21.1241 24.401 21.1343 24.3976 21.1479 24.3942C21.1582 24.3908 21.1684 24.3908 21.1786 24.3874C21.1888 24.384 21.199 24.384 21.2092 24.3806C21.2296 24.3772 21.25 24.3738 21.2705 24.3704C21.3249 24.3636 21.3794 24.3568 21.4338 24.3568C21.4883 24.3568 21.5427 24.3602 21.5972 24.3704C21.6176 24.3738 21.6346 24.3772 21.655 24.3806C21.6755 24.384 21.6959 24.3908 21.7163 24.3942C21.7299 24.3976 21.7435 24.401 21.7537 24.4044C21.7775 24.4112 21.8048 24.4214 21.8286 24.4317C21.8456 24.4385 21.866 24.4453 21.883 24.4555C21.9001 24.4623 21.9171 24.4725 21.9341 24.4793C21.9545 24.4895 21.9749 24.4997 21.9954 24.5133C22.0056 24.5167 22.0124 24.5235 22.0226 24.5304C22.0396 24.5406 22.0566 24.5542 22.0736 24.5644C22.1247 24.6018 22.1723 24.6427 22.2166 24.6835C22.2268 24.6937 22.2404 24.7073 22.2506 24.7175C22.2608 24.7277 22.271 24.738 22.2812 24.7516C22.288 24.7618 22.2982 24.7686 22.3051 24.7788C22.3085 24.7856 22.3153 24.789 22.3187 24.7958C22.3357 24.8162 22.3493 24.84 22.3663 24.8639C22.3731 24.8707 22.3765 24.8809 22.3799 24.8877C22.3867 24.8979 22.3935 24.9081 22.3969 24.9183C22.4038 24.9285 22.4106 24.9421 22.414 24.9524V24.9558C22.4208 24.9694 22.4276 24.983 22.4344 25C22.7203 24.9251 22.9891 24.8094 23.241 24.6699C23.2205 24.612 23.2035 24.5508 23.1899 24.4895C23.1865 24.4793 23.1865 24.4657 23.1831 24.4555V24.4521C23.1831 24.4419 23.1797 24.4317 23.1797 24.4214C23.1797 24.4146 23.1763 24.4112 23.1763 24.4044C23.1763 24.3976 23.1729 24.3874 23.1729 24.3806C23.1695 24.3466 23.1695 24.3159 23.1695 24.2819C23.1695 24.2649 23.1695 24.2479 23.1695 24.2309C23.1695 24.2138 23.1695 24.1968 23.1729 24.1798C23.1729 24.1628 23.1763 24.1424 23.1797 24.122C23.1831 24.1049 23.1831 24.0879 23.1899 24.0709C23.1933 24.0539 23.1967 24.0369 23.2001 24.0199C23.2035 24.0028 23.2103 23.9858 23.2137 23.9688C23.2171 23.9518 23.2239 23.9348 23.2307 23.9212C23.2307 23.9212 23.2307 23.9178 23.2307 23.9144C23.2341 23.8973 23.241 23.8837 23.2478 23.8667C23.2478 23.8667 23.2478 23.8667 23.2478 23.8633C23.2512 23.8497 23.258 23.8395 23.2648 23.8259C23.2682 23.8191 23.2716 23.8123 23.275 23.8055C23.2818 23.7918 23.2886 23.7782 23.2954 23.7646C23.3022 23.7476 23.3124 23.734 23.3226 23.717C23.3328 23.7 23.3397 23.6863 23.3499 23.6693C23.3601 23.6557 23.3703 23.6387 23.3805 23.6251C23.3907 23.6115 23.4009 23.5979 23.4111 23.5808C23.4145 23.5774 23.4145 23.5774 23.4179 23.574C23.4281 23.5604 23.4383 23.5502 23.4486 23.5366C23.4486 23.5366 23.4486 23.5366 23.452 23.5332C23.4622 23.5196 23.4758 23.506 23.4894 23.4924C23.5711 23.4107 23.663 23.346 23.7583 23.295C23.7753 23.2848 23.7923 23.2779 23.8059 23.2711C23.8399 23.2575 23.874 23.2439 23.9046 23.2303C23.9148 23.2269 23.9284 23.2235 23.9386 23.2201C23.9522 23.2167 23.9659 23.2133 23.9761 23.2099C23.9931 23.2031 24.0135 23.1997 24.0339 23.1963C24.0373 23.1963 24.0407 23.1929 24.0441 23.1929C24.0543 23.1895 24.0645 23.1895 24.0748 23.1861C24.0884 23.1827 24.102 23.1827 24.1122 23.1793C24.1292 23.1758 24.1462 23.1758 24.1598 23.1724C24.1632 23.1724 24.1632 23.1724 24.1666 23.1724C24.1837 23.169 24.2007 23.169 24.2177 23.169C24.2347 23.169 24.2517 23.169 24.2687 23.169C24.3198 23.169 24.3674 23.1724 24.4151 23.1793C24.4321 23.1827 24.4491 23.1827 24.4627 23.1861C24.5274 23.1963 24.5921 23.2133 24.6533 23.2371C24.6703 23.2065 24.6873 23.1758 24.7044 23.1452C24.7894 22.9819 24.8609 22.8117 24.9188 22.6347C24.9392 22.5701 24.9596 22.502 24.98 22.4373C24.98 22.4373 24.98 22.4373 24.98 22.4339C24.6499 22.2842 24.3981 21.9575 24.3572 21.5627ZM21.4338 22.2978C20.9608 22.2978 20.5762 21.9132 20.5762 21.4402C20.5762 20.9671 20.9608 20.5826 21.4338 20.5826C21.9069 20.5826 22.2914 20.9671 22.2914 21.4402C22.2914 21.9132 21.9103 22.2978 21.4338 22.2978Z" fill="#F0AB00"/>
<path opacity="0.12" d="M24.351 21.4436C24.351 20.9977 24.6164 20.6132 24.9976 20.4396C24.9227 20.1537 24.8104 19.8815 24.6675 19.6262C24.3748 19.7385 24.0481 19.7215 23.7656 19.5718C23.6567 21.7567 21.8496 23.4923 19.6408 23.4923C19.5455 23.4923 19.4469 23.4889 19.3516 23.4821C19.3584 23.4855 19.3652 23.4923 19.372 23.4992C19.6885 23.8157 19.7702 24.2785 19.6238 24.6733C19.8757 24.8094 20.1479 24.9217 20.4338 25C20.6074 24.6188 20.9919 24.3568 21.4378 24.3568C21.8802 24.3568 22.2682 24.6188 22.4383 25C22.7242 24.9251 22.9931 24.8094 23.2483 24.6733C23.1054 24.2819 23.1836 23.8157 23.5002 23.4992C23.8167 23.1861 24.2795 23.1044 24.6675 23.2473C24.8104 23.0023 24.9159 22.7266 24.9976 22.4441C24.6164 22.2706 24.351 21.8928 24.351 21.4436Z" fill="black"/>
<path d="M11.4375 20.3988L13.4761 18.3602L14.3881 19.2723L12.3496 21.3109L11.4375 20.3988Z" fill="#F0AB00"/>
<path d="M24.6958 13.7998C24.6924 13.7624 24.6856 13.7284 24.6822 13.6909C24.6754 13.6399 24.6686 13.5888 24.6583 13.5344C24.6515 13.4833 24.6413 13.4323 24.6311 13.3778C24.5903 13.1464 24.5358 12.915 24.4678 12.687C24.461 12.6631 24.4542 12.6359 24.4439 12.6121C24.4201 12.5372 24.3963 12.4623 24.3691 12.3875C24.3521 12.3364 24.335 12.2888 24.3146 12.2377C24.2023 11.9382 24.0662 11.649 23.9096 11.3665C23.8892 11.3291 23.8654 11.2916 23.845 11.2508C23.8348 11.2338 23.8245 11.2167 23.8143 11.1997C23.7905 11.1623 23.7701 11.1249 23.7463 11.0874C23.719 11.0432 23.6884 10.9955 23.6578 10.9513C23.5183 10.7369 23.3617 10.5327 23.1949 10.3319C23.1541 10.2842 23.1167 10.24 23.0724 10.1924C22.9907 10.1005 22.9057 10.0086 22.8172 9.9235C22.7934 9.89968 22.7661 9.87586 22.7423 9.85203C22.6572 9.77035 22.5687 9.68868 22.4803 9.6104C22.4598 9.58998 22.436 9.57297 22.4156 9.55255C22.3884 9.52872 22.3611 9.5049 22.3339 9.48448C22.3101 9.46406 22.2863 9.44364 22.259 9.42322C22.2556 9.41982 22.2522 9.41641 22.2488 9.41301C22.2216 9.38919 22.191 9.36877 22.1637 9.34495C22.0787 9.28028 21.9902 9.21562 21.9017 9.15436C21.8711 9.13394 21.8438 9.11352 21.8132 9.0931C21.7826 9.07268 21.752 9.05226 21.7247 9.03525C21.6362 8.97739 21.5444 8.92294 21.4525 8.86849C18.9511 7.4289 15.7009 7.77944 13.5637 9.9167C13.2404 10.24 12.9545 10.5905 12.7129 10.9581C11.7736 12.3909 11.4536 14.1095 11.7531 15.7363C11.9471 16.7981 12.4066 17.8191 13.1281 18.6971C13.2642 18.8639 13.4071 19.0239 13.5637 19.177C13.6454 19.2587 13.727 19.337 13.8121 19.4118C13.8734 19.4663 13.9346 19.5207 13.9959 19.5718C14.0095 19.582 14.0231 19.5956 14.0401 19.6058C14.2171 19.7522 14.4043 19.8883 14.5915 20.0142C14.6357 20.0448 14.6834 20.0721 14.7276 20.1027C14.7752 20.1299 14.8195 20.1605 14.8671 20.1878C14.959 20.2422 15.0543 20.2967 15.1496 20.3443C15.2211 20.3818 15.2925 20.4192 15.364 20.4532C15.3878 20.4634 15.4117 20.4771 15.4355 20.4873C15.4593 20.4975 15.4831 20.5111 15.5069 20.5213C15.5818 20.5553 15.6533 20.586 15.7282 20.6166C15.803 20.6472 15.8745 20.6744 15.9494 20.7017C16.0004 20.7187 16.0481 20.7357 16.0991 20.7527C16.1978 20.7867 16.2931 20.8174 16.3918 20.8446C16.4905 20.8718 16.5892 20.8991 16.6879 20.9229C16.7491 20.9365 16.8138 20.9501 16.8751 20.9637C17.0418 20.9978 17.2086 21.025 17.3753 21.0454C17.4502 21.0556 17.5251 21.0624 17.6 21.0692C17.6374 21.0726 17.6714 21.076 17.7089 21.0794C17.9607 21.0998 18.2091 21.1033 18.461 21.093C20.0469 21.0284 21.6124 20.392 22.824 19.1804C22.9533 19.0511 23.0758 18.9149 23.1915 18.7788C23.229 18.7346 23.2664 18.6869 23.3038 18.6427C23.3583 18.5746 23.4127 18.5066 23.4638 18.4351C23.5148 18.3636 23.5659 18.2921 23.6135 18.2207C23.6612 18.1526 23.7054 18.0845 23.7463 18.0165C23.7769 17.9722 23.8041 17.9246 23.8314 17.877C23.8722 17.8089 23.913 17.7374 23.9505 17.6659C24.09 17.4073 24.2125 17.1384 24.3146 16.8662C24.3316 16.8151 24.3521 16.7675 24.3691 16.7164C24.3963 16.6416 24.4201 16.5667 24.4439 16.4918C24.4507 16.4646 24.461 16.4408 24.4678 16.4169C24.5358 16.1889 24.5903 15.9575 24.6311 15.7261C24.6413 15.675 24.6481 15.624 24.6583 15.5695C24.6652 15.5185 24.672 15.4674 24.6822 15.413C24.6856 15.3789 24.6924 15.3415 24.6958 15.3041C24.7536 14.8106 24.7536 14.3035 24.6958 13.7998ZM15.1768 18.6563C14.9726 18.5066 14.7786 18.3398 14.5949 18.156C13.6488 17.2099 13.1553 15.9847 13.111 14.7425C13.2574 14.5417 13.3765 14.3239 13.4684 14.0891H14.3873L15.0577 13.4969L15.6567 14.0244L16.2557 13.4969L16.858 14.0244L17.457 13.4969L18.1275 14.0891H18.6958L19.9176 13.0749L18.6924 12.0574H13.7577C13.9789 11.6626 14.2579 11.2916 14.5915 10.9581C16.5756 8.97399 19.8053 8.97399 21.7894 10.9581C21.9732 11.1419 22.1399 11.3393 22.2897 11.5401C23.7531 13.531 23.5863 16.3523 21.7894 18.1526C21.6567 18.2853 21.5205 18.4079 21.3776 18.5236C20.7106 19.0613 19.938 19.405 19.1348 19.5548C18.8422 19.6092 18.5427 19.6398 18.2466 19.6432C18.2296 19.6398 18.216 19.633 18.1989 19.6262C18.1955 19.633 18.1921 19.6364 18.1887 19.6432C17.1303 19.6432 16.0685 19.3131 15.1768 18.6563Z" fill="#F0AB00"/>
<path d="M19.9155 13.0715L18.6937 14.0857H18.1253L17.4549 13.4935L16.8559 14.021L16.2535 13.4935L15.6546 14.021L15.0556 13.4935L14.3851 14.0857H13.4663C13.3778 14.3205 13.2553 14.5383 13.1089 14.7391C13.0749 13.8134 13.2927 12.881 13.7589 12.054H18.6937L19.9155 13.0715Z" fill="#E8F1F8"/>
<path d="M18.2459 19.6432C18.2254 19.6432 18.2084 19.6432 18.1914 19.6432C18.1948 19.6364 18.1982 19.633 18.2016 19.6262C18.2152 19.633 18.2322 19.6364 18.2459 19.6432Z" fill="#E8F1F8"/>
<path d="M9.6591 24.578L13.3142 20.9229C13.5388 20.6983 13.5388 20.3307 13.3142 20.1061L12.6404 19.4323C12.4157 19.2076 12.0482 19.2076 11.8236 19.4323L8.16846 23.0874C7.94385 23.312 7.94385 23.6795 8.16846 23.9042L8.84231 24.578C9.06693 24.806 9.43448 24.806 9.6591 24.578Z" fill="#F5C12E"/>
<path d="M18.6931 12.0574H13.4657C13.3023 11.6354 13.0437 11.2644 12.7135 10.9683C12.2133 10.5191 11.553 10.2468 10.8281 10.2468C9.26602 10.2468 8 11.5128 8 13.0715C8 14.6336 9.26602 15.8997 10.8281 15.8997C11.1514 15.8997 11.4645 15.8452 11.7538 15.7431C12.3017 15.5525 12.7748 15.1986 13.1117 14.7391C13.2581 14.5384 13.3772 14.3205 13.4691 14.0857H14.3879L15.0584 13.4935L15.6574 14.0211L16.2563 13.4935L16.8587 14.0211L17.4577 13.4935L18.1281 14.0857H18.6965L19.9183 13.0715L18.6931 12.0574ZM10.0862 13.8135C9.67781 13.8135 9.34429 13.4799 9.34429 13.0749C9.34429 12.6666 9.67781 12.333 10.0862 12.333C10.4946 12.333 10.8247 12.6666 10.8247 13.0749C10.8281 13.4799 10.4946 13.8135 10.0862 13.8135Z" fill="#F5C12E"/>
</svg>
