<svg width="58" height="58" viewBox="0 0 58 58" fill="none" xmlns="http://www.w3.org/2000/svg">
<circle cx="29" cy="29" r="28.5" fill="white" stroke="#F5C12E"/>
<path d="M28.4824 23.1755C25.5481 23.1755 23.1641 25.5596 23.1641 28.4938C23.1641 31.4281 25.5481 33.8121 28.4824 33.8121C31.4166 33.8121 33.8007 31.4281 33.8007 28.4938C33.8007 25.5596 31.4166 23.1755 28.4824 23.1755ZM28.0789 26.9167C27.4187 26.9167 26.8685 27.4669 26.8685 28.1271H25.108C25.1447 26.4766 26.4651 25.1561 28.0789 25.1561V26.9167Z" fill="#F5C12E"/>
<path d="M44.6148 27.3939C42.8176 25.1566 36.399 17.8577 28.4765 17.8577C20.5541 17.8577 14.1355 25.1566 12.3382 27.3939C11.8248 28.0175 11.8248 28.9344 12.3382 29.5946C14.1355 31.832 20.5541 39.1309 28.4765 39.1309C36.399 39.1309 42.8176 31.832 44.6148 29.5946C45.1283 28.9711 45.1283 28.0541 44.6148 27.3939ZM28.4765 36.1966C24.2219 36.1966 20.7742 32.7489 20.7742 28.4943C20.7742 24.2396 24.2219 20.7919 28.4765 20.7919C32.7312 20.7919 36.1789 24.2396 36.1789 28.4943C36.1789 32.7489 32.7312 36.1966 28.4765 36.1966Z" fill="#F0AB00"/>
</svg>
