<svg width="33" height="33" viewBox="0 0 33 33" fill="none" xmlns="http://www.w3.org/2000/svg">
<circle cx="16.5" cy="16.5" r="16" fill="white" stroke="#F5C12E"/>
<path d="M22.7279 18.3134H20.4204V20.6209L22.8775 23.0779L25.185 20.7705L22.7279 18.3134ZM22.7279 18.3134H20.4204V20.6209L22.8775 23.0779L25.185 20.7705L22.7279 18.3134ZM22.5602 15.4937C19.9308 15.4937 17.8047 17.6243 17.8047 20.2491C17.8047 22.8739 19.9354 25.0001 22.5602 25.0001C25.185 25.0001 27.3111 22.8694 27.3111 20.2446C27.3066 17.6243 25.1804 15.4982 22.5602 15.4937ZM25.7018 21.2827L23.3898 23.5947C23.1042 23.8758 22.6463 23.8758 22.3652 23.5947L19.9082 21.1377C19.7722 21.0017 19.6951 20.8158 19.6951 20.6209V18.3134C19.6951 17.9145 20.0215 17.5881 20.4204 17.5881H22.7279C22.9228 17.5881 23.1042 17.6651 23.2447 17.7966L25.7018 20.2537C25.9828 20.5438 25.9828 21.0017 25.7018 21.2827ZM20.4204 18.3134V20.6209L22.8775 23.0779L25.185 20.7705L22.7279 18.3134H20.4204ZM22.7279 18.3134H20.4204V20.6209L22.8775 23.0779L25.185 20.7705L22.7279 18.3134ZM22.7279 18.3134H20.4204V20.6209L22.8775 23.0779L25.185 20.7705L22.7279 18.3134Z" fill="#F5C12E"/>
<path d="M19.58 24.8368C19.6435 24.8776 19.7069 24.9184 19.7704 24.9547H8.3736C7.61653 24.9547 7 24.3381 7 23.5765V21.7451C7 20.0632 8.0744 18.5672 9.67013 18.0368L13.5099 16.7584C13.5235 16.7539 13.5416 16.7493 13.5552 16.7448C9.15333 14.6776 10.5315 8.07253 15.4637 8C20.5456 8.18133 21.6608 14.596 17.4221 16.7584L18.1429 16.9987C18.0251 17.1619 17.9163 17.3296 17.8165 17.4973C16.3659 20.0269 17.1411 23.2456 19.58 24.8368Z" fill="#F0AB00"/>
</svg>
