<svg width="33" height="33" viewBox="0 0 33 33" fill="none" xmlns="http://www.w3.org/2000/svg">
<circle cx="16.5" cy="16.5" r="16" fill="white" stroke="#F5C12E"/>
<path fill-rule="evenodd" clip-rule="evenodd" d="M22.6536 16.7586L20.8742 15.4938C20.8045 15.7394 20.5788 15.922 20.3099 15.922C19.9845 15.922 19.7223 15.6598 19.7223 15.3344C19.7223 15.1352 19.8218 14.9593 19.9746 14.8531L15.702 11.8154H9.46404C8.65732 11.8154 8 12.4728 8 13.2828V20.9018C8 21.2902 8.15603 21.662 8.42826 21.9375C8.7038 22.2131 9.07562 22.3658 9.46404 22.3658H10.3438V24.6365C10.3438 24.7693 10.4168 24.8922 10.533 24.9552C10.6492 25.0183 10.792 25.015 10.9048 24.9453L15.0347 22.3625H21.1896C21.9996 22.3625 22.6536 21.7051 22.6536 20.8984V16.7586ZM9.7595 13.2828H14.1549C14.3176 13.2828 14.4471 13.4156 14.4471 13.5749C14.4471 13.7376 14.3143 13.8671 14.1549 13.8671H9.7595C9.59683 13.8671 9.46736 13.7343 9.46736 13.5749C9.46404 13.4123 9.59683 13.2828 9.7595 13.2828ZM9.7595 16.7985H15.9144C16.0771 16.7985 16.2066 16.9313 16.2066 17.0906C16.2066 17.2533 16.0771 17.3828 15.9144 17.3828H9.7595C9.59683 17.3828 9.46736 17.25 9.46736 17.0906C9.46404 16.9313 9.59683 16.7985 9.7595 16.7985ZM11.2235 19.1423H9.7595C9.59683 19.1423 9.46736 19.0095 9.46736 18.8501C9.46736 18.6874 9.60015 18.558 9.7595 18.558H11.2235C11.3862 18.558 11.5157 18.6908 11.5157 18.8501C11.5157 19.0128 11.3862 19.1423 11.2235 19.1423ZM20.8941 19.1423H12.3954C12.2328 19.1423 12.1033 19.0095 12.1033 18.8501C12.1033 18.6874 12.2328 18.558 12.3954 18.558H20.8941C21.0568 18.558 21.1863 18.6908 21.1863 18.8501C21.1863 19.0128 21.0568 19.1423 20.8941 19.1423Z" fill="#F5C12E"/>
<path fill-rule="evenodd" clip-rule="evenodd" d="M20.7496 8.02071C18.3394 7.79496 16.1517 9.43827 15.7002 11.8153C15.6471 12.1041 15.6172 12.3995 15.6172 12.695C15.6172 15.2845 17.7153 17.3859 20.3048 17.3859C21.158 17.3859 21.958 17.1568 22.6485 16.7584C24.0495 15.9484 24.9923 14.4313 24.9923 12.695C24.999 10.2749 23.1598 8.24977 20.7496 8.02071ZM19.7205 10.0591C19.7205 9.73373 19.9827 9.47146 20.3081 9.47146C20.6334 9.47146 20.8957 9.73373 20.8957 10.0591V12.9905C20.8957 13.3158 20.6334 13.5781 20.3081 13.5781C20.1454 13.5781 19.9993 13.5117 19.8931 13.4054C19.7869 13.2992 19.7205 13.1531 19.7205 12.9905V10.0591ZM20.3081 15.9185C19.9827 15.9185 19.7205 15.6563 19.7205 15.3309C19.7205 15.1317 19.8201 14.9558 19.9728 14.8496C20.0691 14.7832 20.1819 14.7433 20.3081 14.7433C20.6334 14.7433 20.8957 15.0056 20.8957 15.3276C20.8957 15.384 20.889 15.4372 20.8724 15.487C20.8027 15.7393 20.5737 15.9185 20.3081 15.9185Z" fill="#F0AB00"/>
</svg>
