<svg width="58" height="58" viewBox="0 0 58 58" fill="none" xmlns="http://www.w3.org/2000/svg">
<circle cx="29" cy="29" r="28.5" fill="white" stroke="#F5C12E"/>
<path d="M45.5426 26.542C45.5426 25.1814 44.4484 24.0944 43.0951 24.0944H34.4639C34.4639 24.0944 36.5947 19.876 36.5947 16.6223C36.5947 12.9366 34.4855 12.3031 32.8155 12.3031C31.8437 12.3031 32.1604 15.9384 31.9156 17.3925C31.5557 19.6025 24.4219 23.6985 24.4219 25.9301V40.0394C24.4219 41.0328 25.2209 41.8318 26.2143 41.8318L40.1581 41.9758C40.9139 41.9758 41.6122 41.6375 42.0729 41.0544C42.9439 39.989 42.7784 38.4341 41.7058 37.5846C42.2673 37.4407 42.7496 37.1455 43.0879 36.7136C43.9373 35.6698 43.7646 34.1149 42.6992 33.2727C43.2319 33.1503 43.7214 32.8624 44.0597 32.4232C44.9091 31.3578 44.7364 29.8029 43.671 28.9535C44.794 28.7231 45.593 27.7297 45.5426 26.542Z" fill="#F5C12E"/>
<path d="M22.6256 40.0248C22.6256 41.0182 21.7977 41.8173 20.8331 41.8173H15.8589C14.8655 41.8173 14.0664 41.0182 14.0664 40.0248V25.9371C14.0664 24.9437 14.8655 24.1447 15.8589 24.1447H20.8043C21.7977 24.1447 22.5968 24.9437 22.5968 25.9371L22.6256 40.0248Z" fill="#F0AB00"/>
</svg>
