<svg width="19" height="17" viewBox="0 0 19 17" fill="none" xmlns="http://www.w3.org/2000/svg">
<path d="M18.0301 8.15769C18.0301 7.37821 17.4032 6.75546 16.6279 6.75546H11.683C11.683 6.75546 12.9037 4.33867 12.9037 2.47453C12.9037 0.362931 11.6953 0 10.7385 0C10.1817 0 10.3632 2.08273 10.223 2.91582C10.0168 4.18195 5.92969 6.52863 5.92969 7.80713V15.8906C5.92969 16.4597 6.38747 16.9175 6.95662 16.9175L14.9452 17C15.3783 17 15.7783 16.8062 16.0423 16.4721C16.5413 15.8617 16.4464 14.9709 15.8319 14.4842C16.1536 14.4017 16.4299 14.2327 16.6238 13.9852C17.1104 13.3872 17.0114 12.4964 16.4011 12.0138C16.7063 11.9437 16.9867 11.7787 17.1805 11.5272C17.6672 10.9168 17.5682 10.026 16.9578 9.5393C17.6012 9.40733 18.059 8.83819 18.0301 8.15769Z" fill="#F5C12E"/>
<path d="M4.90369 15.8823C4.90369 16.4515 4.4294 16.9092 3.87676 16.9092H1.02693C0.457787 16.9092 0 16.4515 0 15.8823V7.81123C0 7.24209 0.457787 6.7843 1.02693 6.7843H3.86026C4.4294 6.7843 4.88719 7.24209 4.88719 7.81123L4.90369 15.8823Z" fill="#F0AB00"/>
</svg>
