<svg width="21" height="17" viewBox="0 0 21 17" fill="none" xmlns="http://www.w3.org/2000/svg">
<path d="M15.7279 10.3134H13.4204V12.6209L15.8775 15.0779L18.185 12.7705L15.7279 10.3134ZM15.7279 10.3134H13.4204V12.6209L15.8775 15.0779L18.185 12.7705L15.7279 10.3134ZM15.5602 7.49365C12.9308 7.49365 10.8047 9.62432 10.8047 12.2491C10.8047 14.8739 12.9354 17.0001 15.5602 17.0001C18.185 17.0001 20.3111 14.8694 20.3111 12.2446C20.3066 9.62432 18.1804 7.49819 15.5602 7.49365ZM18.7018 13.2827L16.3898 15.5947C16.1042 15.8758 15.6463 15.8758 15.3652 15.5947L12.9082 13.1377C12.7722 13.0017 12.6951 12.8158 12.6951 12.6209V10.3134C12.6951 9.91445 13.0215 9.58805 13.4204 9.58805H15.7279C15.9228 9.58805 16.1042 9.66512 16.2447 9.79659L18.7018 12.2537C18.9828 12.5438 18.9828 13.0017 18.7018 13.2827ZM13.4204 10.3134V12.6209L15.8775 15.0779L18.185 12.7705L15.7279 10.3134H13.4204ZM15.7279 10.3134H13.4204V12.6209L15.8775 15.0779L18.185 12.7705L15.7279 10.3134ZM15.7279 10.3134H13.4204V12.6209L15.8775 15.0779L18.185 12.7705L15.7279 10.3134Z" fill="#F5C12E"/>
<path d="M12.58 16.8368C12.6435 16.8776 12.7069 16.9184 12.7704 16.9547H1.3736C0.616533 16.9547 0 16.3381 0 15.5765V13.7451C0 12.0632 1.0744 10.5672 2.67013 10.0368L6.50987 8.7584C6.52347 8.75387 6.5416 8.74933 6.5552 8.7448C2.15333 6.6776 3.53147 0.0725333 8.46373 0C13.5456 0.181333 14.6608 6.596 10.4221 8.7584L11.1429 8.99866C11.0251 9.16187 10.9163 9.3296 10.8165 9.49733C9.36586 12.0269 10.1411 15.2456 12.58 16.8368Z" fill="#F0AB00"/>
</svg>
