<svg width="20" height="17" viewBox="0 0 20 17" fill="none" xmlns="http://www.w3.org/2000/svg">
<path d="M3.59375 9.06625C3.59375 10.5244 4.02344 11.9146 4.82422 13.1272C4.67969 13.0781 4.53906 13.0214 4.39844 12.9647L0.929688 14.6722C0.84375 14.7138 0.753906 14.7327 0.664062 14.7327C0.269531 14.7327 -0.015625 14.3587 0.105469 13.996L1.24609 10.532C0.429688 9.42134 0 8.13696 0 6.79969C0 2.98053 3.47656 0 7.61719 0C9.13672 0 10.6094 0.407981 11.8516 1.14839C7.37109 1.39016 3.59375 4.72578 3.59375 9.06625Z" fill="#F0AB00"/>
<path d="M18.7539 12.7948C19.5703 11.6879 20 10.4036 20 9.06629C20 5.24713 16.5195 2.2666 12.3828 2.2666C8.24609 2.2666 4.76562 5.24713 4.76562 9.06629C4.76562 12.8854 8.24609 15.866 12.3828 15.866C13.4922 15.866 14.5977 15.6469 15.6016 15.2313L19.0703 16.9388C19.2813 17.0408 19.5352 17.0144 19.7148 16.867C19.8945 16.7197 19.9648 16.4817 19.8945 16.2626L18.7539 12.7948ZM10 9.63293C9.67578 9.63293 9.41406 9.37983 9.41406 9.06629C9.41406 8.75275 9.67578 8.49965 10 8.49965C10.3242 8.49965 10.5859 8.75275 10.5859 9.06629C10.5859 9.37983 10.3242 9.63293 10 9.63293ZM12.3438 9.63293C12.0195 9.63293 11.7578 9.37983 11.7578 9.06629C11.7578 8.75275 12.0195 8.49965 12.3438 8.49965C12.668 8.49965 12.9297 8.75275 12.9297 9.06629C12.9297 9.37983 12.668 9.63293 12.3438 9.63293ZM14.6875 9.63293C14.3633 9.63293 14.1016 9.37983 14.1016 9.06629C14.1016 8.75275 14.3633 8.49965 14.6875 8.49965C15.0117 8.49965 15.2734 8.75275 15.2734 9.06629C15.2734 9.37983 15.0117 9.63293 14.6875 9.63293Z" fill="#F5C12E"/>
</svg>
