<svg width="17" height="17" viewBox="0 0 17 17" fill="none" xmlns="http://www.w3.org/2000/svg">
<path fill-rule="evenodd" clip-rule="evenodd" d="M14.6536 8.75863L12.8742 7.49378C12.8045 7.73945 12.5788 7.92204 12.3099 7.92204C11.9845 7.92204 11.7223 7.65977 11.7223 7.33443C11.7223 7.13524 11.8218 6.95929 11.9746 6.85306L7.70196 3.81543H1.46404C0.657322 3.81543 0 4.47275 0 5.28279V12.9018C0 13.2902 0.156031 13.662 0.428256 13.9375C0.7038 14.2131 1.07562 14.3658 1.46404 14.3658H2.34379V16.6365C2.34379 16.7693 2.41682 16.8922 2.53302 16.9552C2.64921 17.0183 2.79196 17.015 2.90483 16.9453L7.03468 14.3625H13.1896C13.9996 14.3625 14.6536 13.7051 14.6536 12.8984V8.75863ZM1.7595 5.28279H6.15493C6.3176 5.28279 6.44707 5.41558 6.44707 5.57493C6.44707 5.7376 6.31428 5.86707 6.15493 5.86707H1.7595C1.59683 5.86707 1.46736 5.73428 1.46736 5.57493C1.46404 5.41226 1.59683 5.28279 1.7595 5.28279ZM1.7595 8.79847H7.91443C8.0771 8.79847 8.20657 8.93126 8.20657 9.09061C8.20657 9.25328 8.0771 9.38275 7.91443 9.38275H1.7595C1.59683 9.38275 1.46736 9.24996 1.46736 9.09061C1.46404 8.93126 1.59683 8.79847 1.7595 8.79847ZM3.22354 11.1423H1.7595C1.59683 11.1423 1.46736 11.0095 1.46736 10.8501C1.46736 10.6874 1.60015 10.558 1.7595 10.558H3.22354C3.38621 10.558 3.51568 10.6908 3.51568 10.8501C3.51568 11.0128 3.38621 11.1423 3.22354 11.1423ZM12.8941 11.1423H4.39543C4.23276 11.1423 4.10329 11.0095 4.10329 10.8501C4.10329 10.6874 4.23276 10.558 4.39543 10.558H12.8941C13.0568 10.558 13.1863 10.6908 13.1863 10.8501C13.1863 11.0128 13.0568 11.1423 12.8941 11.1423Z" fill="#F5C12E"/>
<path fill-rule="evenodd" clip-rule="evenodd" d="M12.7496 0.0207068C10.3394 -0.20504 8.15168 1.43827 7.70018 3.81525C7.64707 4.10407 7.61719 4.39954 7.61719 4.695C7.61719 7.28445 9.71531 9.38589 12.3048 9.38589C13.158 9.38589 13.958 9.15683 14.6485 8.75845C16.0495 7.94841 16.9923 6.43126 16.9923 4.695C16.999 2.27486 15.1598 0.249774 12.7496 0.0207068ZM11.7205 2.05907C11.7205 1.73373 11.9827 1.47146 12.3081 1.47146C12.6334 1.47146 12.8957 1.73373 12.8957 2.05907V4.99046C12.8957 5.3158 12.6334 5.57807 12.3081 5.57807C12.1454 5.57807 11.9993 5.51167 11.8931 5.40544C11.7869 5.29921 11.7205 5.15313 11.7205 4.99046V2.05907ZM12.3081 7.91854C11.9827 7.91854 11.7205 7.65627 11.7205 7.33093C11.7205 7.13174 11.8201 6.95579 11.9728 6.84956C12.0691 6.78316 12.1819 6.74332 12.3081 6.74332C12.6334 6.74332 12.8957 7.00559 12.8957 7.32761C12.8957 7.38405 12.889 7.43716 12.8724 7.48696C12.8027 7.73927 12.5737 7.91854 12.3081 7.91854Z" fill="#F0AB00"/>
</svg>
