<svg width="216" height="216" viewBox="0 0 216 216" fill="none" xmlns="http://www.w3.org/2000/svg">
<circle opacity="0.6" cx="108" cy="108" r="108" fill="black"/>
<path d="M109.975 109.535V55.8442L76.2777 89.5732H49.2881V129.721H76.2777L110.007 163.45L109.975 109.535ZM98.4856 135.562L81.2199 118.167H60.7771V101.126H81.1878L98.4535 83.7325V135.562H98.4856Z" fill="white"/>
<path d="M135.135 109.631C135.135 98.8159 128.877 89.4449 119.795 84.9199V134.342C128.877 129.817 135.135 120.446 135.135 109.631Z" fill="white"/>
<path d="M119.795 55.8135V68.4899C137.542 73.7531 150.475 90.1843 150.475 109.632C150.475 129.08 137.542 145.511 119.795 150.775V163.451C144.378 157.867 162.767 135.916 162.767 109.632C162.767 83.3487 144.378 61.3975 119.795 55.8135Z" fill="white"/>
</svg>
