<svg width="30" height="30" viewBox="0 0 30 30" fill="none" xmlns="http://www.w3.org/2000/svg">
<mask id="mask0_370_546" style="mask-type:luminance" maskUnits="userSpaceOnUse" x="0" y="0" width="30" height="30">
<path d="M15 30C23.2843 30 30 23.2843 30 15C30 6.71573 23.2843 0 15 0C6.71573 0 0 6.71573 0 15C0 23.2843 6.71573 30 15 30Z" fill="white"/>
</mask>
<g mask="url(#mask0_370_546)">
<path d="M49.2031 0H-7.79688V2.31H49.2031V0Z" fill="#B01820"/>
<path d="M49.2031 27.6899H-7.79688V29.9999H49.2031V27.6899Z" fill="#B01820"/>
<path d="M49.2031 23.0701H-7.79688V25.3801H49.2031V23.0701Z" fill="#B01820"/>
<path d="M49.2031 18.4651H-7.79688V20.7751H49.2031V18.4651Z" fill="#B01820"/>
<path d="M49.2031 13.845H-7.79688V16.155H49.2031V13.845Z" fill="#B01820"/>
<path d="M49.2031 9.2251H-7.79688V11.5351H49.2031V9.2251Z" fill="#B01820"/>
<path d="M49.2031 4.62012H-7.79688V6.93012H49.2031V4.62012Z" fill="#B01820"/>
<path d="M49.2031 25.3799H-7.79688V27.6899H49.2031V25.3799Z" fill="white"/>
<path d="M49.2031 20.7749H-7.79688V23.0849H49.2031V20.7749Z" fill="white"/>
<path d="M49.2031 16.1548H-7.79688V18.4648H49.2031V16.1548Z" fill="white"/>
<path d="M49.2031 11.5349H-7.79688V13.8449H49.2031V11.5349Z" fill="white"/>
<path d="M49.2031 6.92993H-7.79688V9.23993H49.2031V6.92993Z" fill="white"/>
<path d="M49.2031 2.30981H-7.79688V4.61981H49.2031V2.30981Z" fill="white"/>
<path d="M15.0012 0H-7.79883V16.155H15.0012V0Z" fill="#002A70"/>
<path d="M1.69617 0.690186L1.50117 1.33519H0.826172L1.36617 1.72519L1.15617 2.37019L1.69617 1.96519L2.25117 2.37019L2.04117 1.72519L2.58117 1.33519H1.90617L1.69617 0.690186Z" fill="white"/>
<path d="M5.50609 0.690186L5.29609 1.33519H4.62109L5.16109 1.72519L4.95109 2.37019L5.50609 1.96519L6.04609 2.37019L5.83609 1.72519L6.37609 1.33519H5.70109L5.50609 0.690186Z" fill="white"/>
<path d="M9.30102 0.690186L9.09102 1.33519H8.41602L8.97102 1.72519L8.76102 2.37019L9.30102 1.96519L9.84102 2.37019L9.63102 1.72519L10.186 1.33519H9.51102L9.30102 0.690186Z" fill="white"/>
<path d="M12.5566 2.37019L13.0966 1.96519L13.6516 2.37019L13.4416 1.72519L13.9816 1.33519H13.3066L13.0966 0.690186L12.9016 1.33519H12.2266L12.7666 1.72519L12.5566 2.37019Z" fill="white"/>
<path d="M1.69617 3.91528L1.50117 4.56028H0.826172L1.36617 4.95028L1.15617 5.59528L1.69617 5.20528L2.25117 5.59528L2.04117 4.95028L2.58117 4.56028H1.90617L1.69617 3.91528Z" fill="white"/>
<path d="M5.50609 3.91528L5.29609 4.56028H4.62109L5.16109 4.95028L4.95109 5.59528L5.50609 5.20528L6.04609 5.59528L5.83609 4.95028L6.37609 4.56028H5.70109L5.50609 3.91528Z" fill="white"/>
<path d="M9.30102 3.91528L9.09102 4.56028H8.41602L8.97102 4.95028L8.76102 5.59528L9.30102 5.20528L9.84102 5.59528L9.63102 4.95028L10.186 4.56028H9.51102L9.30102 3.91528Z" fill="white"/>
<path d="M13.0966 3.91528L12.9016 4.56028H12.2266L12.7666 4.95028L12.5566 5.59528L13.0966 5.20528L13.6516 5.59528L13.4416 4.95028L13.9816 4.56028H13.3066L13.0966 3.91528Z" fill="white"/>
<path d="M1.69617 7.15527L1.50117 7.78527H0.826172L1.36617 8.19027L1.15617 8.82027L1.69617 8.43027L2.25117 8.82027L2.04117 8.19027L2.58117 7.78527H1.90617L1.69617 7.15527Z" fill="white"/>
<path d="M5.50609 7.15527L5.29609 7.78527H4.62109L5.16109 8.19027L4.95109 8.82027L5.50609 8.43027L6.04609 8.82027L5.83609 8.19027L6.37609 7.78527H5.70109L5.50609 7.15527Z" fill="white"/>
<path d="M9.30102 7.15527L9.09102 7.78527H8.41602L8.97102 8.19027L8.76102 8.82027L9.30102 8.43027L9.84102 8.82027L9.63102 8.19027L10.186 7.78527H9.51102L9.30102 7.15527Z" fill="white"/>
<path d="M13.0966 7.15527L12.9016 7.78527H12.2266L12.7666 8.19027L12.5566 8.82027L13.0966 8.43027L13.6516 8.82027L13.4416 8.19027L13.9816 7.78527H13.3066L13.0966 7.15527Z" fill="white"/>
<path d="M1.69617 10.3801L1.50117 11.0251H0.826172L1.36617 11.4151L1.15617 12.0601L1.69617 11.6551L2.25117 12.0601L2.04117 11.4151L2.58117 11.0251H1.90617L1.69617 10.3801Z" fill="white"/>
<path d="M5.50609 10.3801L5.29609 11.0251H4.62109L5.16109 11.4151L4.95109 12.0601L5.50609 11.6551L6.04609 12.0601L5.83609 11.4151L6.37609 11.0251H5.70109L5.50609 10.3801Z" fill="white"/>
<path d="M9.30102 10.3801L9.09102 11.0251H8.41602L8.97102 11.4151L8.76102 12.0601L9.30102 11.6551L9.84102 12.0601L9.63102 11.4151L10.186 11.0251H9.51102L9.30102 10.3801Z" fill="white"/>
<path d="M13.0966 10.3801L12.9016 11.0251H12.2266L12.7666 11.4151L12.5566 12.0601L13.0966 11.6551L13.6516 12.0601L13.4416 11.4151L13.9816 11.0251H13.3066L13.0966 10.3801Z" fill="white"/>
<path d="M1.90617 14.2501L1.69617 13.6201L1.50117 14.2501H0.826172L1.36617 14.6551L1.15617 15.2851L1.69617 14.8951L2.25117 15.2851L2.04117 14.6551L2.58117 14.2501H1.90617Z" fill="white"/>
<path d="M5.70109 14.2501L5.50609 13.6201L5.29609 14.2501H4.62109L5.16109 14.6551L4.95109 15.2851L5.50609 14.8951L6.04609 15.2851L5.83609 14.6551L6.37609 14.2501H5.70109Z" fill="white"/>
<path d="M9.51102 14.2501L9.30102 13.6201L9.09102 14.2501H8.41602L8.97102 14.6551L8.76102 15.2851L9.30102 14.8951L9.84102 15.2851L9.63102 14.6551L10.186 14.2501H9.51102Z" fill="white"/>
<path d="M13.3066 14.2501L13.0966 13.6201L12.9016 14.2501H12.2266L12.7666 14.6551L12.5566 15.2851L13.0966 14.8951L13.6516 15.2851L13.4416 14.6551L13.9816 14.2501H13.3066Z" fill="white"/>
<path d="M-0.195078 2.3103L-0.405078 2.9403H-1.08008L-0.540078 3.3453L-0.750078 3.9753L-0.195078 3.5853L0.344922 3.9753L0.134922 3.3453L0.674922 2.9403H-7.79629e-05L-0.195078 2.3103Z" fill="white"/>
<path d="M3.59984 2.3103L3.38984 2.9403H2.71484L3.26984 3.3453L3.05984 3.9753L3.59984 3.5853L4.13984 3.9753L3.92984 3.3453L4.48484 2.9403H3.80984L3.59984 2.3103Z" fill="white"/>
<path d="M7.39539 2.3103L7.20039 2.9403H6.52539L7.06539 3.3453L6.85539 3.9753L7.39539 3.5853L7.95039 3.9753L7.74039 3.3453L8.28039 2.9403H7.60539L7.39539 2.3103Z" fill="white"/>
<path d="M11.2053 2.3103L10.9953 2.9403H10.3203L10.8603 3.3453L10.6503 3.9753L11.2053 3.5853L11.7453 3.9753L11.5353 3.3453L12.0753 2.9403H11.4003L11.2053 2.3103Z" fill="white"/>
<path d="M-0.195078 5.53516L-0.405078 6.18016H-1.08008L-0.540078 6.57016L-0.750078 7.21516L-0.195078 6.81016L0.344922 7.21516L0.134922 6.57016L0.674922 6.18016H-7.79629e-05L-0.195078 5.53516Z" fill="white"/>
<path d="M3.59984 5.53516L3.38984 6.18016H2.71484L3.26984 6.57016L3.05984 7.21516L3.59984 6.81016L4.13984 7.21516L3.92984 6.57016L4.48484 6.18016H3.80984L3.59984 5.53516Z" fill="white"/>
<path d="M7.39539 5.53516L7.20039 6.18016H6.52539L7.06539 6.57016L6.85539 7.21516L7.39539 6.81016L7.95039 7.21516L7.74039 6.57016L8.28039 6.18016H7.60539L7.39539 5.53516Z" fill="white"/>
<path d="M11.2053 5.53516L10.9953 6.18016H10.3203L10.8603 6.57016L10.6503 7.21516L11.2053 6.81016L11.7453 7.21516L11.5353 6.57016L12.0753 6.18016H11.4003L11.2053 5.53516Z" fill="white"/>
<path d="M-0.195078 8.77515L-0.405078 9.40515H-1.08008L-0.540078 9.79515L-0.750078 10.4401L-0.195078 10.0501L0.344922 10.4401L0.134922 9.79515L0.674922 9.40515H-7.79629e-05L-0.195078 8.77515Z" fill="white"/>
<path d="M3.59984 8.77515L3.38984 9.40515H2.71484L3.26984 9.79515L3.05984 10.4401L3.59984 10.0501L4.13984 10.4401L3.92984 9.79515L4.48484 9.40515H3.80984L3.59984 8.77515Z" fill="white"/>
<path d="M7.39539 8.77515L7.20039 9.40515H6.52539L7.06539 9.79515L6.85539 10.4401L7.39539 10.0501L7.95039 10.4401L7.74039 9.79515L8.28039 9.40515H7.60539L7.39539 8.77515Z" fill="white"/>
<path d="M11.2053 8.77515L10.9953 9.40515H10.3203L10.8603 9.79515L10.6503 10.4401L11.2053 10.0501L11.7453 10.4401L11.5353 9.79515L12.0753 9.40515H11.4003L11.2053 8.77515Z" fill="white"/>
<path d="M-7.79629e-05 12.6452L-0.195078 12.0002L-0.405078 12.6452H-1.08008L-0.540078 13.0352L-0.750078 13.6652L-0.195078 13.2752L0.344922 13.6652L0.134922 13.0352L0.674922 12.6452H-7.79629e-05Z" fill="white"/>
<path d="M3.80984 12.6452L3.59984 12.0002L3.38984 12.6452H2.71484L3.26984 13.0352L3.05984 13.6652L3.59984 13.2752L4.13984 13.6652L3.92984 13.0352L4.48484 12.6452H3.80984Z" fill="white"/>
<path d="M7.60539 12.6452L7.39539 12.0002L7.20039 12.6452H6.52539L7.06539 13.0352L6.85539 13.6652L7.39539 13.2752L7.95039 13.6652L7.74039 13.0352L8.28039 12.6452H7.60539Z" fill="white"/>
<path d="M11.4003 12.6452L11.2053 12.0002L10.9953 12.6452H10.3203L10.8603 13.0352L10.6503 13.6652L11.2053 13.2752L11.7453 13.6652L11.5353 13.0352L12.0753 12.6452H11.4003Z" fill="white"/>
</g>
</svg>
