<svg width="60" height="60" viewBox="0 0 60 60" fill="none" xmlns="http://www.w3.org/2000/svg">
<circle cx="30" cy="30" r="30" fill="#F2C05F" fill-opacity="0.2"/>
<path d="M26.2883 27.4076C29.4505 27.4076 32.0141 24.8539 32.0141 21.7037C32.0141 18.5536 29.4505 15.9999 26.2883 15.9999C23.126 15.9999 20.5625 18.5536 20.5625 21.7037C20.5625 24.8539 23.126 27.4076 26.2883 27.4076Z" fill="#F2C05F"/>
<path fill-rule="evenodd" clip-rule="evenodd" d="M28.7903 39.9999L28.5214 39.5348C28.3248 39.1937 28.4122 38.7607 28.7257 38.5239L30.1308 37.4616C30.1237 37.4033 30.1157 37.3452 30.1077 37.287L30.1077 37.2869C30.0827 37.1043 30.0575 36.9213 30.0575 36.7311C30.0575 36.5328 30.0842 36.3404 30.1108 36.1484C30.1177 36.0991 30.1245 36.0499 30.1308 36.0006L28.7257 34.9384C28.4122 34.7 28.3248 34.267 28.5214 33.9275L29.7831 31.7469C29.9796 31.4057 30.3991 31.2656 30.7609 31.4182L32.3782 32.0989C32.7712 31.7998 33.1923 31.5335 33.6555 31.3403L33.7702 30.4265C32.8377 29.9126 31.8765 29.7331 31.2251 29.7331L31.2252 29.7339L31.2251 29.7339L31.2246 29.7331L31.223 29.7339C31.1918 29.7333 31.1606 29.733 31.1293 29.733H21.4237C18.4332 29.733 16 32.164 16 35.1517V39.1444C16 39.6166 16.3837 39.9999 16.8564 39.9999H28.7903Z" fill="#F2C05F"/>
<path d="M42.3977 37.6566C42.4269 37.4396 42.4663 37.224 42.4663 37C42.4663 36.7746 42.4254 36.5604 42.3977 36.3434L43.7113 35.3886C44.0043 35.1758 44.0859 34.7866 43.9023 34.48L42.7228 32.52C42.5392 32.2148 42.147 32.0874 41.8088 32.2246L40.297 32.8364C39.9281 32.5662 39.536 32.3282 39.103 32.1546L38.9018 30.6132C38.8551 30.2632 38.5461 30 38.1787 30H35.8213C35.4539 30 35.1434 30.2632 35.0982 30.6132L34.897 32.1546C34.464 32.3282 34.0704 32.5676 33.703 32.8364L32.1912 32.2246C31.853 32.0874 31.4608 32.2134 31.2772 32.52L30.0977 34.48C29.9141 34.7852 29.9957 35.1744 30.2887 35.3886L31.6023 36.3434C31.5731 36.5604 31.5337 36.776 31.5337 37C31.5337 37.2254 31.5746 37.4396 31.6023 37.6566L30.2887 38.6114C29.9957 38.8242 29.9141 39.2134 30.0977 39.52L31.2772 41.4814C31.4608 41.7866 31.853 41.914 32.1912 41.7768L33.703 41.1636C34.0719 41.4338 34.464 41.6718 34.897 41.8454L35.0982 43.3868C35.1434 43.7368 35.4525 44 35.8199 44H38.1772C38.5446 44 38.8551 43.7368 38.9003 43.3868L39.1015 41.8454C39.5345 41.6718 39.9281 41.4324 40.2955 41.1636L41.8073 41.7754C42.1455 41.9126 42.5377 41.7866 42.7214 41.48L43.9008 39.5186C44.0845 39.2134 44.0029 38.8242 43.7098 38.61L42.3977 37.6566ZM36.9993 39.8C35.3883 39.8 34.0835 38.547 34.0835 37C34.0835 35.453 35.3883 34.2 36.9993 34.2C38.6102 34.2 39.915 35.453 39.915 37C39.915 38.547 38.6102 39.8 36.9993 39.8Z" fill="#916F3F"/>
</svg>
