<svg width="22" height="19" viewBox="0 0 22 19" fill="none" xmlns="http://www.w3.org/2000/svg">
<g clip-path="url(#clip0_1507_719)">
<path d="M18.8192 10.0454H16.592C14.8192 10.0454 13.4102 11.4545 13.4102 13.2272V16.7272C13.4102 17.7727 14.2738 18.6363 15.3192 18.6363H20.092C21.1374 18.6363 22.0011 17.7727 22.0011 16.7272V13.2272C22.0011 11.5 20.592 10.0454 18.8192 10.0454Z" fill="#F0AB00"/>
<path d="M17.7283 10.0454H16.592C14.8192 10.0454 13.4102 11.4545 13.4102 13.2272V16.7272C13.4102 17.7727 14.2738 18.6363 15.3192 18.6363H17.7283V10.0454Z" fill="#F5C12E"/>
<path d="M17.7269 3.54541C16.136 3.54541 14.8633 4.81814 14.8633 6.40905C14.8633 7.99996 16.136 9.27268 17.7269 9.27268C19.3178 9.27268 20.5906 7.99996 20.5906 6.40905C20.5906 4.81814 19.2724 3.54541 17.7269 3.54541Z" fill="#F0AB00"/>
<path d="M17.7269 3.54541C16.136 3.54541 14.8633 4.81814 14.8633 6.40905C14.8633 7.99996 16.136 9.27268 17.7269 9.27268V3.54541Z" fill="#F5C12E"/>
<path d="M5.40909 10.0454H3.18182C1.40909 10.0454 0 11.4545 0 13.2272V16.7272C0 17.7727 0.863636 18.6363 1.90909 18.6363H6.68182C7.72727 18.6363 8.59091 17.7727 8.59091 16.7272V13.2272C8.59091 11.5 7.18182 10.0454 5.40909 10.0454Z" fill="#F0AB00"/>
<path d="M4.31818 10.0454H3.18182C1.40909 10.0454 0 11.4545 0 13.2272V16.7272C0 17.7727 0.863636 18.6363 1.90909 18.6363H4.31818C4.31818 18.6818 4.31818 10.0454 4.31818 10.0454Z" fill="#F5C12E"/>
<path d="M12.9542 8.40918H9.0451C7.27237 8.40918 5.86328 9.81827 5.86328 11.591V18.0001C5.86328 18.3637 6.13601 18.6365 6.49965 18.6365H15.4542C15.8178 18.6365 16.0906 18.3637 16.0906 18.0001V11.591C16.136 9.81827 14.6815 8.40918 12.9542 8.40918Z" fill="#F0AB00"/>
<path d="M11.0465 8.40918H9.09197C7.31925 8.40918 5.91016 9.81827 5.91016 11.591V18.0001C5.91016 18.3637 6.18288 18.6365 6.54652 18.6365H11.0465V8.40918Z" fill="#F5C12E"/>
<path d="M11.0018 0C8.91087 0 7.18359 1.72727 7.18359 3.81818C7.18359 5.90909 8.91087 7.63636 11.0018 7.63636C13.0927 7.63636 14.82 5.90909 14.82 3.81818C14.82 1.72727 13.0927 0 11.0018 0Z" fill="#F0AB00"/>
<path d="M11.0018 0C8.91087 0 7.18359 1.72727 7.18359 3.81818C7.18359 5.90909 8.91087 7.63636 11.0018 7.63636V0Z" fill="#F5C12E"/>
<path d="M4.31676 3.54541C2.72585 3.54541 1.45312 4.81814 1.45312 6.40905C1.45312 7.99996 2.72585 9.27268 4.31676 9.27268C5.90767 9.27268 7.1804 7.99996 7.1804 6.40905C7.13494 4.81814 5.86222 3.54541 4.31676 3.54541Z" fill="#F0AB00"/>
<path d="M4.31676 3.54541C2.72585 3.54541 1.45312 4.81814 1.45312 6.40905C1.45312 7.99996 2.72585 9.27268 4.31676 9.27268V3.54541Z" fill="#F5C12E"/>
</g>
<defs>
<clipPath id="clip0_1507_719">
<rect width="22" height="18.6818" fill="white"/>
</clipPath>
</defs>
</svg>
