<svg width="71" height="72" viewBox="0 0 71 72" fill="none" xmlns="http://www.w3.org/2000/svg">
<ellipse cx="35.7521" cy="36.0172" rx="35.09" ry="35.0903" fill="#F5F5F5"/>
<path d="M36.1654 36.0172C38.7828 36.0172 41.2931 34.9775 43.1439 33.1266C44.9947 31.2758 46.0345 28.7655 46.0345 26.1481C46.0345 23.5306 44.9947 21.0204 43.1439 19.1695C41.2931 17.3187 38.7828 16.2789 36.1654 16.2789C33.548 16.2789 31.0377 17.3187 29.1869 19.1695C27.3361 21.0204 26.2963 23.5306 26.2963 26.1481C26.2963 28.7655 27.3361 31.2758 29.1869 33.1266C31.0377 34.9775 33.548 36.0172 36.1654 36.0172ZM32.6418 39.7182C25.0473 39.7182 18.8945 45.871 18.8945 53.4656C18.8945 54.7301 19.92 55.7556 21.1845 55.7556H51.1463C52.4108 55.7556 53.4362 54.7301 53.4362 53.4656C53.4362 45.871 47.2835 39.7182 39.689 39.7182H32.6418Z" fill="black"/>
</svg>
