<svg width="83" height="84" viewBox="0 0 83 84" fill="none" xmlns="http://www.w3.org/2000/svg">
<g opacity="0.6">
<path fill-rule="evenodd" clip-rule="evenodd" d="M20.0064 0H62.6095C73.6171 0 82.6157 9.00336 82.6157 20.0064V63.9905C82.6157 74.9936 73.6171 83.9969 62.6095 83.9969H20.0064C9.00336 83.9969 0 74.9936 0 63.9905V20.0064C0.000164058 9.00336 9.00353 0 20.0064 0Z" fill="url(#paint0_linear_2246_1362)"/>
<path fill-rule="evenodd" clip-rule="evenodd" d="M66.027 33.0126C65.6372 32.6938 65.1239 32.566 64.6304 32.6647L59.3208 33.7266V31.0215C59.3208 27.1498 56.1676 24 52.2989 24H23.0219C19.1482 24 16 27.1498 16 31.0215V52.978C16 56.8497 19.1482 60 23.0219 60H52.2989C56.1677 60 59.3208 56.8497 59.3208 52.978V50.2729L64.6304 51.3362C65.1239 51.4339 65.6371 51.3066 66.027 50.9874C66.4168 50.6677 66.6438 50.191 66.6438 49.6876V34.3133C66.6438 33.8085 66.4169 33.3319 66.027 33.0126ZM45.0944 43.6807H39.3407V49.4354C39.3407 50.3641 38.5857 51.1165 37.6579 51.1165C36.7302 51.1165 35.9801 50.3641 35.9801 49.4354V43.6807H30.2215C29.2937 43.6807 28.5436 42.9286 28.5436 41.9999C28.5436 41.0713 29.2937 40.3187 30.2215 40.3187H35.9801V34.5644C35.9801 33.6352 36.7302 32.8831 37.6579 32.8831C38.5857 32.8831 39.3407 33.6352 39.3407 34.5644V40.3187H45.0944C46.0222 40.3187 46.777 41.0713 46.777 41.9999C46.777 42.9286 46.0222 43.6807 45.0944 43.6807Z" fill="url(#paint1_linear_2246_1362)"/>
</g>
<defs>
<linearGradient id="paint0_linear_2246_1362" x1="0.000164058" y1="41.9985" x2="82.6157" y2="41.9985" gradientUnits="userSpaceOnUse">
<stop stop-color="#FFFBD3"/>
<stop offset="1" stop-color="#FFE098"/>
</linearGradient>
<linearGradient id="paint1_linear_2246_1362" x1="20.3446" y1="60.227" x2="56.7989" y2="23.7727" gradientUnits="userSpaceOnUse">
<stop stop-color="#FC4422"/>
<stop offset="1" stop-color="#FFBB32"/>
</linearGradient>
</defs>
</svg>
