<svg width="24" height="24" viewBox="0 0 24 24" fill="none" xmlns="http://www.w3.org/2000/svg">
<path d="M19.5 24H4.5C2.01562 24 0 21.9844 0 19.5V4.5C0 2.01562 2.01562 0 4.5 0H19.5C21.9844 0 24 2.01562 24 4.5V19.5C24 21.9844 21.9844 24 19.5 24Z" fill="#FFFEDB"/>
<path d="M5.95662 10.2945C5.76134 9.99319 5.64844 9.63097 5.64844 9.24441C5.64844 8.16995 6.52417 7.29639 7.60129 7.29639C8.67841 7.29639 9.55414 8.16995 9.55414 9.24441C9.55414 9.63097 9.44124 9.99014 9.24596 10.2945H5.95662Z" fill="#F2C05F"/>
<path d="M10.3513 10.2948C9.95764 9.83822 9.71963 9.24468 9.72269 8.59635C9.71963 7.2236 10.7907 6.08523 12.1637 6H12.3255C13.7626 6 14.9283 7.16273 14.9283 8.59635C14.9283 9.22337 14.6994 9.82605 14.2905 10.2948H10.3513Z" fill="#F2C05F"/>
<path d="M15.7407 11.9873V16.5317C15.7407 17.4296 15.0114 18.1541 14.1143 18.1541H6.62636C5.72927 18.1541 5 17.4296 5 16.5317V11.9873C5 11.2538 5.49126 10.6116 6.19917 10.4198L14.276 10.3711C15.0999 10.4533 15.7407 11.1442 15.7407 11.9873Z" fill="#F2C05F"/>
<path d="M19.32 12.3098V16.2059C19.3291 16.9242 18.7555 17.5117 18.0384 17.5238C17.7546 17.5269 17.4769 17.4386 17.2481 17.2712L15.875 16.282V12.2337L17.2481 11.2536C17.8279 10.8275 18.6426 10.9523 19.0697 11.5306C19.2345 11.7589 19.323 12.0298 19.32 12.3098Z" fill="#F2C05F"/>
</svg>
