<svg width="27" height="27" viewBox="0 0 27 27" fill="none" xmlns="http://www.w3.org/2000/svg">
<circle cx="13.2057" cy="13.2057" r="13.2057" fill="#F5F5F5"/>
<path d="M7.69149 21.57H9.7426C10.0648 21.57 10.3261 21.3273 10.3261 21.0051C10.3261 20.6829 10.065 20.4402 9.7426 20.4402H7.69149C6.82797 20.4402 6.12977 19.6739 6.12977 18.7774V10.4606H20.2519V12.5849C20.2519 12.9071 20.5888 13.1684 20.911 13.1684C21.2331 13.1684 21.57 12.9073 21.57 12.5849V7.80447C21.57 6.28436 20.1414 5 18.6375 5H7.69149C6.18457 5 5 6.258 5 7.80447V18.7774C5 20.3173 6.18457 21.57 7.69149 21.57ZM6.12977 7.80447C6.12977 6.91685 6.84266 6.12977 7.69149 6.12977H18.6375C19.5087 6.12977 20.2519 6.91685 20.2519 7.80447V9.3308H6.12977V7.80447Z" fill="black"/>
<path d="M18.2612 7.25954H18.0279C17.7057 7.25954 17.4443 7.5964 17.4443 7.91858C17.4443 8.24075 17.7055 8.57761 18.0279 8.57761H18.2612C18.5833 8.57761 18.8447 8.24075 18.8447 7.91858C18.8447 7.5964 18.5833 7.25954 18.2612 7.25954Z" fill="black"/>
<path d="M16.2773 7.25954H16.044C15.7218 7.25954 15.4604 7.5964 15.4604 7.91858C15.4604 8.24075 15.7216 8.57761 16.044 8.57761H16.2773C16.5994 8.57761 16.8608 8.24075 16.8608 7.91858C16.8608 7.5964 16.5994 7.25954 16.2773 7.25954Z" fill="black"/>
<path d="M14.1772 7.25954H13.9439C13.6217 7.25954 13.3604 7.5964 13.3604 7.91858C13.3604 8.24075 13.6215 8.57761 13.9439 8.57761H14.1772C14.4994 8.57761 14.7607 8.24075 14.7607 7.91858C14.7607 7.5964 14.4994 7.25954 14.1772 7.25954Z" fill="black"/>
<path d="M15.7321 13.1221C13.1735 13.1221 10.837 14.7288 9.89551 17.1204C9.89551 17.1204 11.1204 21.6308 15.7321 21.5325C20.6048 21.4288 21.5698 17.1204 21.5698 17.1204C20.6283 14.7288 18.2914 13.1221 15.7321 13.1221ZM15.7737 20.3657C13.7714 20.3657 11.9427 19.1536 11.1537 17.3273C11.9425 15.501 13.7714 14.289 15.7737 14.289C17.7766 14.289 19.6057 15.501 20.3947 17.3273C19.6059 19.1536 17.7766 20.3657 15.7737 20.3657Z" fill="black"/>
<path d="M15.7743 15.0635C14.5259 15.0635 13.5103 16.0789 13.5103 17.3273C13.5103 18.5757 14.5259 19.5912 15.7743 19.5912C17.0227 19.5912 18.0382 18.5757 18.0382 17.3273C18.0382 16.0789 17.0227 15.0635 15.7743 15.0635ZM15.7743 18.4243C15.1693 18.4243 14.6771 17.9321 14.6771 17.3273C14.6771 16.7225 15.1693 16.2303 15.7743 16.2303C16.3793 16.2303 16.8713 16.7225 16.8713 17.3273C16.8713 17.9321 16.3793 18.4243 15.7743 18.4243Z" fill="black"/>
</svg>
