<svg width="64" height="66" viewBox="0 0 64 66" fill="none" xmlns="http://www.w3.org/2000/svg">
<ellipse cx="31.9836" cy="32.5167" rx="31.9836" ry="32.5167" fill="#F2C05F" fill-opacity="0.15"/>
<g clip-path="url(#clip0_1727_1515)">
<path d="M33.0186 21.9057L32.2825 17H21.8439C20.2379 17 19 18.3221 19 19.9574V40.5544C19 42.1897 20.2379 43.5118 21.8439 43.5118H31.7807L33.0186 41.5634C32.5167 40.798 32.2156 39.8586 32.2156 38.8496C32.2156 36.2054 34.29 34.0483 36.8327 34.0483C37.1338 34.0483 37.4349 34.0831 37.7361 34.1526L38.9405 32.2739V24.202L33.0186 21.9057ZM23.5836 29.073H30.1413C30.5093 29.073 30.777 29.3861 30.777 29.734C30.777 30.1167 30.4758 30.3951 30.1413 30.3951H23.5836C23.2156 30.3951 22.948 30.0819 22.948 29.734C22.948 29.3861 23.2491 29.073 23.5836 29.073ZM22.948 36.5533C22.948 36.1706 23.2491 35.8923 23.5836 35.8923H29.9071C30.0074 35.8923 30.0744 35.927 30.1747 35.9618C30.0074 36.3794 29.8401 36.7969 29.7398 37.2492H23.5836C23.2491 37.2492 22.948 36.936 22.948 36.5533ZM23.5836 33.8047C23.2156 33.8047 22.948 33.4916 22.948 33.1437C22.948 32.7609 23.2491 32.4826 23.5836 32.4826H32.0483C32.2491 32.4826 32.4498 32.587 32.5502 32.7609C32.1487 33.0741 31.8141 33.4568 31.4796 33.8395H23.5836V33.8047ZM33.487 38.8496C33.487 39.3715 33.5874 39.8586 33.7881 40.3109L36.8996 35.4052C36.8662 35.4052 36.8327 35.4052 36.7993 35.4052C34.9926 35.3704 33.487 36.936 33.487 38.8496Z" fill="#F5C12E"/>
<path d="M32.2812 17L38.8723 24.202H34.4894C33.285 24.202 32.2812 23.193 32.2812 21.9057V17Z" fill="#F5C12E"/>
<path d="M32.681 33.1089C32.681 33.4916 32.3799 33.77 32.0453 33.77H31.4766C31.8111 33.3873 32.1457 33.0045 32.5472 32.6914C32.6476 32.8306 32.681 32.9697 32.681 33.1089Z" fill="#083863"/>
<path d="M30.5413 36.5535C30.5413 36.9362 30.2401 37.2146 29.9056 37.2146H29.7383C29.8387 36.7623 30.0059 36.3448 30.1732 35.9272C30.4074 36.0316 30.5413 36.2752 30.5413 36.5535Z" fill="#083863"/>
<path d="M36.9002 35.3703L33.7886 40.276C34.324 41.459 35.4615 42.294 36.7998 42.294C37.7031 42.294 38.5396 41.9461 39.1418 41.285C39.7775 40.6239 40.1121 39.7541 40.1121 38.8495C40.1455 36.9707 38.7069 35.4399 36.9002 35.3703ZM38.9076 30.9169C38.5061 30.8473 38.1381 30.8473 37.7366 30.8125C35.7626 30.8125 33.9559 31.5083 32.5507 32.7261C32.1492 33.0392 31.8147 33.4219 31.4801 33.8046C30.9448 34.4309 30.5098 35.1615 30.1753 35.9618C30.008 36.3793 29.8407 36.7968 29.7403 37.2491C29.573 37.9449 29.4727 38.6756 29.4727 39.441C29.4727 40.9371 29.8407 42.3288 30.4764 43.5465C31.8816 46.2255 34.5916 48.0347 37.7366 48.0347C42.2868 48.0347 46.0005 44.1728 46.0005 39.441C46.0005 35.092 42.9225 31.5083 38.9076 30.9169ZM42.4206 44.6599C42.2868 44.799 42.1195 44.8686 41.9522 44.8686C41.7849 44.8686 41.6176 44.799 41.4838 44.6599L39.5767 42.6767C38.7738 43.303 37.8035 43.6509 36.7998 43.6509C35.2273 43.6509 33.8221 42.8159 32.9857 41.5633C32.4838 40.7979 32.1827 39.8585 32.1827 38.8495C32.1827 36.2053 34.257 34.0482 36.7998 34.0482C37.1009 34.0482 37.402 34.083 37.7031 34.1526C39.8444 34.5701 41.4504 36.5184 41.4504 38.8495C41.4504 39.8933 41.1158 40.9023 40.5136 41.7373L42.4206 43.7205C42.6883 43.964 42.6883 44.3815 42.4206 44.6599ZM36.9002 35.3703C36.8667 35.3703 36.8333 35.3703 36.7998 35.3703C34.9596 35.3703 33.4541 36.936 33.4541 38.8147C33.4541 39.3366 33.5544 39.8237 33.7552 40.276C34.2905 41.459 35.428 42.294 36.7663 42.294C37.6697 42.294 38.5061 41.9461 39.1083 41.285C39.744 40.6239 40.0786 39.7541 40.0786 38.8495C40.1455 36.9707 38.7069 35.4399 36.9002 35.3703Z" fill="#F0AB00"/>
</g>
<defs>
<clipPath id="clip0_1727_1515">
<rect width="27" height="31" fill="white" transform="translate(19 17)"/>
</clipPath>
</defs>
</svg>
