<svg width="28" height="27" viewBox="0 0 28 27" fill="none" xmlns="http://www.w3.org/2000/svg">
<circle cx="13.8498" cy="13.3159" r="13.2057" fill="#F5F5F5"/>
<path d="M15.6499 18.2816C15.6499 18.2816 16.6189 16.0205 18.88 16.0205C21.141 16.0205 22.1101 18.2816 22.1101 18.2816C22.1101 18.2816 21.141 20.5427 18.88 20.5427C16.6189 20.5427 15.6499 18.2816 15.6499 18.2816Z" stroke="black" stroke-width="0.75" stroke-linecap="round" stroke-linejoin="round"/>
<path d="M18.8806 19.2506C19.4158 19.2506 19.8497 18.8168 19.8497 18.2816C19.8497 17.7464 19.4158 17.3126 18.8806 17.3126C18.3455 17.3126 17.9116 17.7464 17.9116 18.2816C17.9116 18.8168 18.3455 19.2506 18.8806 19.2506Z" stroke="black" stroke-width="0.75" stroke-linecap="round" stroke-linejoin="round"/>
<path d="M14.5133 15.8526H11.1411C10.0953 15.8526 9.57241 15.8526 9.14691 15.9817C8.1889 16.2723 7.43921 17.022 7.1486 17.98C7.01953 18.4055 7.01953 18.9284 7.01953 19.9742M16.3868 9.85755C16.3868 11.72 14.877 13.2298 13.0146 13.2298C11.1521 13.2298 9.64236 11.72 9.64236 9.85755C9.64236 7.99513 11.1521 6.48534 13.0146 6.48534C14.877 6.48534 16.3868 7.99513 16.3868 9.85755Z" stroke="black" stroke-width="1.5" stroke-linecap="round" stroke-linejoin="round"/>
</svg>
